<?xml version="1.0" encoding="UTF-8" standalone="no"?><!DOCTYPE svg PUBLIC "-//W3C//DTD SVG 1.1//EN" "http://www.w3.org/Graphics/SVG/1.1/DTD/svg11.dtd"><svg width="100%" height="100%" viewBox="0 0 4961 3508" version="1.1" xmlns="http://www.w3.org/2000/svg" xmlns:xlink="http://www.w3.org/1999/xlink" xml:space="preserve" xmlns:serif="http://www.serif.com/" style="fill-rule:evenodd;clip-rule:evenodd;stroke-linejoin:round;stroke-miterlimit:2;"><g><path d="M4107.69,510.762c-316.269,179.693 -515.181,393.844 -649.122,1011.15l-15.918,66.948c-132.596,598.069 -212.172,959.433 389.876,1443.46c27.655,31.213 36.347,70.806 33.268,105.508l146.08,0l38.726,-642.719c9.293,-41.772 29.179,-67.626 49.731,-67.626l35.136,17.24c17.907,21.208 26.522,52.376 23.876,88.179l-5.969,157.139c-1.99,78.898 -4.646,158.485 -7.292,237.371c-1.834,70.917 -3.668,141.145 -5.502,210.416l124.093,0c11.294,0 22.431,-0.589 33.469,-1.567c-11.782,-193.02 -4.413,-369.223 6.669,-525.907c4.647,-55.699 23.876,-90.835 49.064,-90.179l34.48,17.907c15.251,17.896 25.866,45.073 23.876,72.939c-9.225,164.298 -15.017,338.822 -5.002,498.93c43.562,-17.741 83.055,-43.373 116.757,-75.119c-2.412,-112.977 4.146,-237.493 19.653,-374.68c7.291,-33.825 21.219,-49.731 25.854,-49.731c9.293,0 29.178,20.542 36.47,55.689l10.071,233.636c17.329,-43.395 26.966,-90.68 26.966,-140.244l-0,-303.608c-9.259,-25.855 -13.216,-53.866 -12.038,-84.767c3.223,-31.668 7.392,-62.791 12.038,-93.637l-0,-473.452c-35.692,85.278 -69.561,174.424 -102.741,268.25c-35.802,70.95 -78.241,-23.865 -70.283,-51.065c34.814,-117.746 102.252,-260.969 173.024,-384.362l-0,-235.348c-131.785,152.66 -237.049,332.197 -304.775,605.271c-5.958,53.054 -11.26,112.066 40.449,181.682l25.199,21.876c26.521,23.198 54.376,51.053 74.918,78.242c19.23,21.219 23.209,49.719 9.959,75.574c-14.594,31.168 -47.085,50.408 -83.555,49.73l-17.24,-0.655l-4.635,-0.656l-279.81,-215.496c-19.219,-17.24 -33.813,-47.741 -33.813,-82.877c-0,-30.512 10.604,-53.71 17.907,-61.002c133.93,-85.533 225.433,-251.965 331.519,-482.701c58.234,-108.82 135.02,-209.737 223.877,-291.492l-0,-414.841c-172.446,123.082 -291.315,287.436 -343.102,518.893c-6.613,194.921 -46.407,322.227 -118.013,375.27l-16.573,10.615l-4.646,-43.762c-11.938,-489.992 143.879,-816.865 467.45,-977.328c4.724,-3.235 9.76,-6.414 14.628,-9.626c-1.712,-64.459 -19.507,-124.871 -49.564,-177.414c-34.958,20.13 -62.08,45.073 -75.263,76.319c-17.907,17.24 -53.054,27.844 -93.481,27.177c-51.064,-0.645 -79.576,-17.896 -82.232,-22.531l12.605,-14.595c39.993,-51.342 109.565,-97.705 189.93,-133.163c-51.62,-56.8 -120.303,-97.738 -197.922,-114.923c-80.187,41.205 -160.897,84.856 -239.127,131.663Zm-274.831,664.828c-25.198,-33.813 -29.167,-81.554 -11.938,-135.92c98.795,-226.756 247.976,-270.529 440.262,-267.872l25.199,-0c25.855,7.292 35.136,21.23 35.136,25.854c-0,2.668 -15.917,39.127 -82.21,39.794c-106.753,-2.001 -234.059,-4.646 -320.915,183.661c-23.209,51.042 -12.594,81.543 -1.334,100.117c18.574,29.178 35.147,39.126 91.514,39.126l2.645,0l3.313,33.814c-25.188,17.24 -55.689,27.833 -86.19,27.833c-39.793,-1.323 -74.929,-17.229 -95.482,-46.407Zm202.358,-146.335c-2.646,-41.106 26.521,-85.534 100.117,-92.826c18.574,6.625 23.209,13.928 23.876,15.918c1.323,2.645 3.323,26.521 -39.116,79.564c-15.261,15.917 -35.803,34.48 -58.356,35.136c-0.522,0.033 -1.034,0.045 -1.534,0.045c-18.051,-0 -24.343,-22.998 -24.987,-37.837Zm-276.542,965.79c-33.158,0 -53.721,-6.625 -68.961,-20.552c-68.293,-50.387 -86.867,-145.869 -52.376,-299.696c29.823,-200.245 139.233,-299.695 329.518,-305.009c24.532,0 41.117,18.585 41.117,35.159c-0,18.551 -22.543,43.75 -31.824,45.74c-173.724,5.969 -238.694,106.086 -237.371,326.884c23.865,106.086 68.293,99.461 105.419,100.117c31.824,0.678 64.981,-7.948 100.117,-26.522c32.491,-7.291 50.398,11.283 55.044,18.574c3.968,5.302 5.302,16.562 -1.99,34.469c-3.923,24.832 -125.06,90.869 -233.914,90.881c-1.6,-0 -3.19,-0.012 -4.779,-0.045Zm92.08,-281.922c-5.958,-70.95 11.271,-100.784 25.866,-112.722c7.959,-4.646 19.897,-11.26 67.627,-10.615c32.49,13.261 52.387,25.866 56.355,37.804c7.292,15.917 -3.312,38.459 -20.541,60.334c-55.711,41.772 -83.544,45.752 -94.16,45.752c-3.979,-0 -19.885,-0 -35.147,-20.553Zm-27.644,1103.38c-164.431,-112.066 -261.903,-249.309 -293.06,-406.448c-11.271,-92.159 2.646,-161.13 42.439,-210.194c45.741,-54.366 129.285,-84.211 253.933,-92.825l32.491,-3.302c53.71,1.323 88.846,28.511 96.805,55.022c3.979,19.23 -1.99,39.782 -18.563,52.376l-159.129,33.157c-41.105,14.595 -80.232,42.439 -91.503,73.607c-16.584,40.438 0,145.19 45.084,219.453c114.701,142.556 171.735,149.192 147.859,241.35c-3.313,42.428 -20.553,42.428 -29.167,42.428l-27.189,-4.624Zm-31.157,-376.948c5.302,-92.158 49.731,-90.18 66.96,-90.18c17.907,0 43.106,5.302 71.617,14.584c26.522,13.272 43.751,33.157 43.751,53.71c-0,21.886 -21.876,44.428 -54.366,58.345c-21.22,3.312 -41.105,4.646 -59.001,4.646c-63.659,-1.334 -68.961,-23.209 -68.961,-41.105Z" style="fill:url(#_Linear1);fill-rule:nonzero;"/><path d="M3334.67,370.051c0.844,7.825 3.045,15.295 6.68,22.431c15.917,33.135 57.689,51.042 126.639,51.709l2.656,0l25.855,7.959c-74.918,65.637 -186.307,106.742 -338.811,125.305c-53.043,-3.313 -71.606,-15.24 -77.575,-23.865c-5.969,-11.26 -5.969,-28.5 -1.323,-44.418c34.08,-50.342 68.561,-96.593 103.308,-139.121l-326.529,0c-97.671,57.834 -201.334,102.162 -312.778,134.075c-25.866,5.302 -49.075,7.97 -67.638,7.97c-23.209,-0.678 -39.793,-5.313 -47.085,-13.939c-8.615,-9.27 -11.927,-23.854 -9.937,-39.104c3.812,-32.057 9.87,-61.68 18.14,-89.002l-174.98,0c-4.613,26.511 -5.402,59.268 1.023,102.451c10.604,38.449 5.969,66.304 -14.584,89.502c-124.66,96.805 -303.674,208.86 -396.5,206.882c-17.896,-0 -32.49,-5.314 -41.116,-15.918c-39.115,-40.46 -56.355,-89.513 -47.074,-140.577c13.928,-62.981 67.638,-120.003 148.525,-153.16l1.99,-0c-0.667,50.397 15.25,81.554 30.501,98.794c20.552,21.219 49.73,33.157 80.231,34.48c57.678,0 122.659,-39.771 129.284,-108.743c10.371,-43.428 26.633,-81.131 49.542,-113.711l-671.264,0c-157.061,86.234 -312.611,181.005 -466.85,285.245l-3.979,3.991c-32.502,47.73 -39.794,87.523 -21.887,121.992c23.198,50.398 92.826,74.93 226.089,80.232c79.576,-0 137.254,-23.854 188.974,-73.596l86.201,-140.566c6.625,-22.542 17.229,-33.158 26.522,-33.158c9.281,0 25.198,12.594 31.812,37.804l36.481,185.662c3.312,27.177 -5.302,39.104 -33.157,43.095c-147.859,49.052 -292.404,72.261 -428.991,69.616c-246.653,-3.979 -469.429,-86.867 -679.612,-250.643c-31.156,-44.429 -45.762,-80.231 -35.147,-98.794c9.949,-22.542 53.043,-37.126 114.712,-40.438c22.542,1.978 46.418,3.312 69.616,3.312c221.454,3.979 422.366,-57.022 617.287,-187.64c3.635,-2.068 7.292,-4.046 10.927,-6.114l-574.882,0c-208.948,0 -378.337,169.389 -378.337,378.327l-0,237.126c27.989,-20.075 55.622,-39.616 82.799,-58.501c26.521,-15.906 51.72,-23.854 74.262,-23.854c19.219,0.667 32.491,7.292 36.459,17.896c3.98,11.271 -1.989,39.783 -43.75,73.596c-50.509,36.537 -100.351,74.096 -149.77,112.333l-0,341.89c140.233,-117.213 285.023,-230.402 434.337,-339.378c31.835,-16.573 70.95,-25.188 104.775,-25.188c37.781,0 57.678,11.26 59.667,19.219c1.979,5.969 -8.625,30.501 -76.263,68.96c-162.519,128.462 -336.154,273.363 -522.516,447.71l-0,292.77c277.32,-254.211 552.672,-476.098 814.131,-680.278c21.219,-19.23 34.48,-27.189 47.741,-26.522l18.574,5.969c7.291,29.834 -5.98,98.128 -57.023,144.546c-263.303,179.148 -536.988,418.476 -823.423,720.705l-0,270.218c244.507,-235.837 516.28,-464.172 816.987,-686.592c19.23,-18.563 31.824,-26.522 41.105,-26.522l11.938,4.646c14.584,51.721 -19.896,165.754 -69.616,198.912c-260.836,233.781 -529.486,481.289 -800.414,767.868l-0,153.594c-0,48.508 9.237,94.837 25.877,137.465c289.291,-304.264 591.521,-578.272 873.32,-827.525l20.564,-13.917l13.917,18.563c25.854,47.73 23.876,148.514 -12.605,198.901c-252.644,203.09 -522.039,491.037 -778.562,782.24c40.016,31.946 86.623,55.956 137.499,69.616c219.397,-227.789 468.695,-438.661 748.616,-658.047l8.615,-5.969l15.261,7.292c14.584,28.511 13.25,81.554 -6.636,113.389c-195.754,179.359 -388.808,359.763 -577.382,556.318l203.813,0c173.035,-171.845 357.385,-336.71 552.462,-493.46l10.604,14.583c15.917,26.533 19.897,65.648 10.615,82.877c-120.825,134.998 -244.885,267.15 -371.613,396l187.419,0c57.111,-59.812 113.855,-119.046 167.743,-174.413l27.189,-11.927l27.844,27.178c17.907,35.147 20.552,94.815 -0.656,124.66l-32.246,34.502l302.93,0c-50.809,-46.273 -95.104,-112.21 -130.129,-195.699c-40.438,-137.898 -5.291,-242.017 108.076,-318.258l452.856,-330.852l19.897,-8.626l15.25,10.615c11.271,22.531 8.626,68.283 -17.896,104.086c-137.254,104.774 -275.831,215.495 -348.103,305.675c-52.388,58.334 -52.388,139.889 -29.834,192.287c20.552,45.073 55.688,69.616 97.471,71.595c30.501,0.667 59.668,-11.271 88.179,-34.48l270.518,-166.421c13.928,2.656 25.199,14.583 33.157,33.157c12.605,31.835 12.605,76.908 -15.25,103.43l-320.648,233.491l282.355,0c39.905,-30.534 84.244,-58.4 135.364,-82.376c13.25,1.989 23.209,10.615 30.501,27.188c6.758,16.418 9.104,36.425 7.259,55.188l226.5,0c-5.425,-39.182 -0.967,-53.432 2.278,-57.978c4.647,-4.646 11.938,-7.948 47.741,-7.948c137.243,-7.969 230.747,-89.524 328.874,-176.38l29.823,-11.271c22.553,-0 43.773,15.25 55.033,36.459c3.99,6.647 15.261,29.178 1.333,51.075l-157.55,166.043l533.932,0c-113.945,-85 -218.053,-203.102 -315.78,-356.806c-351.416,-473.409 36.47,-1545.55 164.442,-1896.3c102.107,-245.33 268.528,-408.427 523.128,-514.524l0.334,-0.145l-656.658,0Zm-1964.74,1260.72c-68.305,-185.651 15.239,-358.708 255.267,-525.796c344.113,-184.984 782.385,-409.094 1130.49,-494.627l13.916,-4.647c-13.916,24.532 -54.366,72.929 -131.941,123.326c-408.427,164.443 -798.958,332.198 -1092.7,568.902c-38.459,38.448 -51.053,86.845 -33.813,129.295c15.251,38.46 52.376,61.658 98.795,62.313c28.511,0.678 62.991,-7.291 104.763,-28.511c326.217,-251.287 647.788,-388.541 892.451,-480.033l11.938,17.896c2.645,25.855 -11.272,70.283 -59.679,87.523c-291.07,123.327 -604.694,306.332 -954.109,562.921c-51.72,34.481 -93.503,49.064 -130.629,49.064c-40.438,-1.311 -74.929,-23.865 -104.752,-67.626Zm1551.12,-437.472c-59.013,-1.334 -100.784,-21.887 -122.004,-59.012c-33.813,-60.335 -8.626,-167.755 65.648,-295.717l11.938,-25.209l1.979,-6.614l-0,-9.293c-0,-12.605 -3.969,-41.761 120.669,-143.878l7.303,-5.969c7.292,28.511 37.793,48.396 87.523,57.689c29.823,5.969 65.637,8.614 105.42,9.937c37.136,0 82.877,-1.99 135.92,-5.291l19.885,10.593c-2.645,21.22 -26.521,55.044 -69.616,63.67c-250.621,3.968 -339.467,84.866 -339.467,159.796c3.313,62.98 67.627,111.377 157.796,112.033c32.49,-0 63.658,-3.302 92.825,-12.594l15.25,2.001c-0.655,7.291 -3.312,15.906 -12.593,33.146c-81.588,71.728 -187.352,114.712 -276.453,114.712l-2.023,-0Zm-1330.2,1244.79c-127.305,-132.597 -156.472,-379.916 -90.169,-487.325c247.976,-244.663 575.515,-462.148 1029.04,-683.613l17.24,15.262c10.615,27.188 -3.979,74.262 -39.782,102.106c-74.918,51.721 -184.328,115.379 -311.623,187.641c-245.996,141.233 -498.618,286.434 -549.004,385.896c-42.439,64.97 -46.407,157.139 -10.604,226.756c25.187,46.418 64.97,71.605 114.7,72.928c28.511,1.334 59.668,-7.947 92.826,-26.51l550.327,-317.603l12.594,-6.625l5.969,1.979c6.625,31.179 -18.563,118.691 -82.877,181.671c-144.546,114.723 -269.862,200.246 -397.167,269.862l-38.46,20.552c-60.335,33.158 -152.493,84.878 -218.797,84.878c-31.168,0 -60.335,-10.615 -84.211,-27.855Zm1513,-1122.13l25.198,22.542c3.313,6.647 7.303,24.543 -6.624,39.783l-120.681,94.148c-186.974,57.689 -238.038,181.671 -225.433,270.528c9.948,73.596 62.991,127.295 125.972,127.973c41.783,0.655 85.533,-19.886 140.566,-64.993c2.656,18.574 2.656,47.086 -13.25,84.222c-98.794,168.4 -243.34,242.007 -344.135,240.006c-46.407,-0 -82.21,-17.229 -100.773,-46.407c-29.178,-43.095 -26.521,-109.399 6.636,-192.287c104.096,-205.536 117.357,-374.614 116.034,-511.868c0,-34.458 7.292,-45.073 17.896,-54.354c17.229,3.301 45.741,19.896 56.356,26.51c38.459,17.24 74.929,25.866 114.045,26.522c1.667,0.033 3.334,0.055 4.979,0.055c67.571,0 127.495,-26.132 203.214,-62.38Zm-1319.64,718.671c76.241,-115.367 672.975,-416.397 672.975,-416.397c-2.645,19.241 -10.604,47.752 -25.198,64.981c-137.243,123.316 -312.946,244.674 -541.035,371.958l-38.46,6.647c-35.803,-0.678 -75.585,-17.24 -68.282,-27.189Zm1007.35,906.579c-54.366,-1.323 -103.429,-36.47 -148.514,-104.764c-49.075,-100.773 -84.222,-232.058 -99.461,-389.864c-3.979,-29.178 0,-51.053 9.937,-63.647c9.949,-8.615 38.46,-17.907 55.711,-24.532l39.771,-14.584c106.753,-49.074 198.245,-115.378 304.342,-192.953l4.635,15.906c15.251,63.003 7.959,102.118 -24.521,127.317l-151.848,123.982c-59.668,66.971 -62.325,153.171 -37.793,207.537c17.907,41.772 52.388,66.971 92.826,68.949c35.803,0 72.272,-18.574 110.065,-56.355c11.271,-16.562 20.564,-23.209 29.178,-23.209c2.657,-0 13.261,0.667 34.48,21.886c78.898,71.606 62.325,118.024 39.116,149.181c-101.451,104.085 -185.895,155.161 -256.568,155.161c-0.455,-0 -0.9,-0 -1.356,-0.011Zm-696.596,-190.564c-7.947,-20.553 -1.989,-45.751 14.584,-60.991l220.142,-125.983l31.157,20.564l-0.667,45.74l-192.276,155.817l-19.897,1.99c-23.865,-0 -43.761,-14.584 -53.043,-37.137Z" style="fill:url(#_Linear2);fill-rule:nonzero;"/><path d="M3080.11,553.594c5.969,8.626 24.532,20.553 77.575,23.865c152.504,-18.563 263.893,-59.668 338.811,-125.305l-25.855,-7.969l-2.656,-0c-68.95,-0.656 -110.722,-18.563 -126.639,-51.71c-3.646,-7.136 -5.825,-14.605 -6.68,-22.431l-152.571,0c-34.759,42.539 -69.217,88.78 -103.308,139.122c-4.646,15.917 -4.646,33.157 1.323,44.428" style="fill:#9f2241;fill-rule:nonzero;"/><path d="M3467.86,884.722c-127.962,350.749 -515.847,1422.89 -164.431,1896.3c97.727,153.705 201.823,271.795 315.768,356.807l246.597,-0c3.09,-34.703 -5.613,-74.296 -33.258,-105.509c-602.047,-484.023 -522.483,-845.387 -389.875,-1443.44l15.917,-66.971c133.931,-617.298 332.842,-831.46 649.122,-1011.14c78.231,-46.818 158.929,-90.458 239.127,-131.663c-26.466,-5.869 -53.932,-9.048 -82.154,-9.048l-273.352,0l-0.322,0.145c-254.611,106.086 -421.032,269.194 -523.139,514.524" style="fill:#9f2241;fill-rule:nonzero;"/><path d="M2428.07,498.163c7.292,8.625 23.865,13.26 47.074,13.927c18.563,0 41.772,-2.656 67.638,-7.958c111.443,-31.913 215.106,-76.253 312.778,-134.086l-419.287,-0c-8.281,27.321 -14.339,56.955 -18.151,89.001c-1.99,15.251 1.333,29.834 9.948,39.116" style="fill:#9f2241;fill-rule:nonzero;"/><path d="M3966.86,1369.79c-190.297,5.313 -299.696,104.763 -329.53,305.008c-34.48,153.816 -15.917,249.31 52.376,299.685c15.251,13.939 35.803,20.564 68.961,20.564c110.065,1.989 234.714,-65.637 238.694,-90.836c7.291,-17.907 5.969,-29.178 1.989,-34.48c-4.646,-7.292 -22.542,-25.855 -55.032,-18.563c-35.148,18.563 -68.294,27.188 -100.118,26.521c-37.136,-0.667 -81.554,5.969 -105.43,-100.128c-1.323,-220.787 63.658,-320.904 237.371,-326.873c9.282,-1.989 31.824,-27.188 31.824,-45.751c-0,-16.573 -16.573,-35.147 -41.105,-35.147" style="fill:#9f2241;fill-rule:nonzero;"/><path d="M2024.28,592.505c-30.501,-1.323 -59.668,-13.261 -80.232,-34.48c-15.25,-17.24 -31.157,-48.397 -30.501,-98.794l-1.989,-0c-80.888,33.157 -134.598,90.179 -148.514,153.16c-9.282,51.064 7.958,100.128 47.074,140.577c8.614,10.604 23.209,15.906 41.105,15.906c92.825,1.99 271.851,-110.065 396.5,-206.87c20.553,-23.198 25.199,-51.053 14.595,-89.513c-6.425,-43.172 -5.647,-75.941 -1.023,-102.44l-58.178,0c-22.909,32.58 -39.182,70.283 -49.542,113.711c-6.636,68.961 -71.606,108.743 -129.295,108.743" style="fill:#9f2241;fill-rule:nonzero;"/><path d="M3930.53,2363.96c-28.511,-9.292 -53.71,-14.583 -71.605,-14.583c-17.241,-0 -61.669,-1.99 -66.971,90.168c-0,17.896 5.302,39.783 68.96,41.106c17.896,-0 37.793,-1.323 59.012,-4.647c32.491,-13.916 54.366,-36.459 54.366,-58.345c0,-20.541 -17.24,-40.438 -43.762,-53.699" style="fill:#9f2241;fill-rule:nonzero;"/><path d="M3820.93,1039.67c-17.24,54.365 -13.261,102.117 11.938,135.92c20.552,29.178 55.688,45.084 95.471,46.407c30.5,-0 61.001,-10.593 86.2,-27.833l-3.312,-33.814l-2.657,0c-56.355,0 -72.929,-9.948 -91.503,-39.126c-11.271,-18.563 -21.875,-49.064 1.334,-100.117c86.857,-188.308 214.162,-185.651 320.904,-183.661c66.304,-0.667 82.221,-37.126 82.221,-39.794c0,-4.635 -9.281,-18.563 -35.136,-25.854l-25.199,-0c-192.286,-2.657 -341.467,41.116 -440.261,267.872" style="fill:#9f2241;fill-rule:nonzero;"/><path d="M4135.34,936.43c-73.595,7.292 -102.773,51.721 -100.117,92.826c0.656,15.25 7.292,39.126 26.522,37.792c22.542,-0.667 43.095,-19.23 58.345,-35.136c42.439,-53.054 40.449,-76.919 39.126,-79.564c-0.666,-2.001 -5.313,-9.293 -23.876,-15.918" style="fill:#9f2241;fill-rule:nonzero;"/><path d="M3944.25,1589.79c-47.741,-0.655 -59.679,5.969 -67.627,10.616c-14.594,11.927 -31.834,41.772 -25.865,112.711c15.25,20.552 31.167,20.552 35.147,20.552c10.604,0 38.448,-3.979 94.148,-45.74c17.24,-21.886 27.844,-44.429 20.552,-60.335c-3.979,-11.949 -23.865,-24.543 -56.355,-37.804" style="fill:#9f2241;fill-rule:nonzero;"/><path d="M1784.19,2034.63c-7.292,9.949 32.491,26.522 68.294,27.189l38.459,-6.636c228.09,-127.295 403.792,-248.642 541.035,-371.969c14.594,-17.24 22.553,-45.751 25.199,-64.981c-0,0 -596.735,301.03 -672.987,416.397" style="fill:#9f2241;fill-rule:nonzero;"/><path d="M2707.35,1379.61c1.323,137.254 -11.938,306.331 -116.035,511.867c-33.146,82.888 -35.802,149.192 -6.624,192.287c18.562,29.178 54.365,46.407 100.773,46.407c100.784,2.001 245.329,-71.606 344.124,-240.016c15.917,-37.126 15.917,-65.637 13.26,-84.2c-55.032,45.084 -98.794,65.637 -140.566,64.981c-62.991,-0.667 -116.034,-54.377 -125.972,-127.973c-12.605,-88.857 38.449,-212.839 225.433,-270.528l120.67,-94.148c13.928,-15.251 9.948,-33.146 6.636,-39.782l-25.199,-22.543c-77.575,37.126 -138.577,63.648 -208.193,62.325c-39.126,-0.656 -75.585,-9.282 -114.045,-26.522c-10.615,-6.624 -39.126,-23.209 -56.366,-26.51c-10.604,9.27 -17.896,19.886 -17.896,54.355" style="fill:#9f2241;fill-rule:nonzero;"/><path d="M1369.92,1630.77c29.834,43.773 64.315,66.304 104.764,67.638c37.126,0 78.898,-14.595 130.618,-49.075c349.426,-256.589 663.038,-439.595 954.119,-562.921c48.397,-17.24 62.325,-61.669 59.668,-87.523l-11.927,-17.896c-244.663,91.503 -566.245,228.745 -892.462,480.044c-41.772,21.208 -76.252,29.178 -104.752,28.511c-46.418,-0.667 -83.544,-23.865 -98.794,-62.324c-17.24,-42.439 -4.647,-90.847 33.813,-129.295c293.727,-236.705 684.258,-404.459 1092.7,-568.902c77.575,-50.386 118.013,-98.794 131.941,-123.326l-13.928,4.646c-348.092,85.534 -786.364,309.644 -1130.49,494.628c-240.016,167.088 -323.56,340.145 -255.267,525.795" style="fill:#9f2241;fill-rule:nonzero;"/><path d="M1259.92,376.169c-194.932,130.618 -395.834,191.62 -617.287,187.629c-23.209,0 -47.085,-1.322 -69.628,-3.301c-61.657,3.301 -104.763,17.896 -114.7,40.438c-10.615,18.563 3.979,54.366 35.136,98.795c210.182,163.775 432.97,246.652 679.622,250.631c136.587,2.657 281.133,-20.552 428.991,-69.616c27.844,-3.99 36.459,-15.917 33.146,-43.095l-36.469,-185.65c-6.625,-25.21 -22.543,-37.804 -31.824,-37.804c-9.281,-0 -19.886,10.615 -26.522,33.157l-86.189,140.556c-51.72,49.741 -109.41,73.606 -188.974,73.606c-133.264,-5.302 -202.891,-29.834 -226.1,-80.231c-17.896,-34.48 -10.604,-74.263 21.886,-121.993l3.98,-3.99c154.249,-104.252 309.799,-199.023 466.85,-285.257l-261.003,0c-3.624,2.068 -7.281,4.058 -10.915,6.125" style="fill:#9f2241;fill-rule:nonzero;"/><path d="M2109.55,2689.65c-16.574,15.25 -22.543,40.449 -14.584,61.001c9.282,22.543 29.167,37.126 53.043,37.126l19.886,-1.978l192.286,-155.817l0.656,-45.751l-31.156,-20.564l-220.131,125.983Z" style="fill:#9f2241;fill-rule:nonzero;"/><path d="M3686.53,2317.89c11.271,-31.168 50.387,-59.013 91.503,-73.607l159.129,-33.146c16.573,-12.605 22.542,-33.147 18.563,-52.377c-7.959,-26.521 -43.095,-53.71 -96.805,-55.032l-32.49,3.312c-124.649,8.615 -208.193,38.449 -253.945,92.825c-39.782,49.064 -53.71,118.025 -42.427,210.183c31.156,157.14 128.628,294.393 293.059,406.449l27.189,4.635c8.614,-0 25.854,-0 29.167,-42.428c23.876,-92.158 -33.147,-98.794 -147.858,-241.35c-45.085,-74.263 -61.658,-179.026 -45.085,-219.464" style="fill:#9f2241;fill-rule:nonzero;"/><path d="M2546.96,1282.41l-17.24,-15.262c-453.522,221.476 -781.062,438.939 -1029.04,683.602c-66.304,107.42 -37.137,354.739 90.168,487.336c23.865,17.24 53.043,27.855 84.211,27.855c66.304,0 158.462,-51.72 218.797,-84.866l38.46,-20.564c127.305,-69.616 252.621,-155.15 397.167,-269.85c64.314,-62.992 89.502,-150.515 82.877,-181.683l-5.969,-1.979l-12.594,6.625l-550.327,317.603c-33.158,18.563 -64.314,27.844 -92.826,26.51c-49.73,-1.322 -89.513,-26.51 -114.711,-72.928c-35.803,-69.617 -31.824,-161.775 10.615,-226.756c50.386,-99.461 303.008,-244.674 548.993,-385.896c127.306,-72.273 236.705,-135.92 311.634,-187.641c35.803,-27.844 50.386,-74.918 39.782,-102.106" style="fill:#9f2241;fill-rule:nonzero;"/><path d="M2921.05,1193.29c89.513,0.667 196.255,-42.428 278.476,-114.701c9.282,-17.24 11.938,-25.854 12.594,-33.157l-15.239,-1.99c-29.178,9.293 -60.346,12.594 -92.837,12.594c-90.168,-0.656 -154.482,-49.053 -157.795,-112.044c0,-74.93 88.846,-155.817 339.478,-159.796c43.095,-8.615 66.96,-42.439 69.616,-63.659l-19.897,-10.593c-53.043,3.302 -98.783,5.291 -135.92,5.291c-39.782,-1.322 -75.585,-3.968 -105.419,-9.937c-49.73,-9.292 -80.231,-29.178 -87.523,-57.689l-7.292,5.969c-124.649,102.107 -120.681,131.274 -120.681,143.879l0,9.281l-1.989,6.625l-11.927,25.21c-74.263,127.961 -99.461,235.37 -65.648,295.716c21.219,37.126 62.991,57.678 122.003,59.001" style="fill:#9f2241;fill-rule:nonzero;"/><path d="M3010.36,2636.87c-21.219,-21.22 -31.823,-21.886 -34.48,-21.886c-8.615,-0 -17.896,6.635 -29.178,23.209c-37.793,37.792 -74.252,56.355 -110.054,56.355c-40.45,-1.978 -74.93,-27.177 -92.826,-68.949c-24.532,-54.366 -21.886,-140.567 37.793,-207.537l151.837,-123.982c32.48,-25.199 39.783,-64.314 24.532,-127.306l-4.646,-15.917c-106.086,77.575 -197.589,143.878 -304.342,192.942l-29.167,11.271l-10.615,3.324c-17.229,6.625 -45.74,15.917 -55.689,24.532c-9.948,12.594 -13.928,34.469 -9.948,63.647c15.25,157.806 50.386,289.091 99.461,389.864c45.084,68.294 94.148,103.441 148.514,104.775c70.95,0.655 155.817,-50.398 257.924,-155.161c23.209,-31.168 39.782,-77.575 -39.116,-149.181" style="fill:#9f2241;fill-rule:nonzero;"/><path d="M1602.19,2978.66l-27.844,-27.189l-27.189,11.938c-53.887,55.367 -110.632,114.601 -167.743,174.413l189.874,0l32.235,-34.513c21.22,-29.834 18.574,-89.502 0.667,-124.649" style="fill:#9f2241;fill-rule:nonzero;"/><path d="M1552.99,2658.95l-10.604,-14.583c-195.077,156.75 -379.438,321.626 -552.451,493.46l202.057,0c126.717,-128.85 250.788,-261.013 371.602,-396c9.293,-17.229 5.313,-56.344 -10.604,-82.877" style="fill:#9f2241;fill-rule:nonzero;"/><path d="M1238.71,2272.99c36.469,-50.387 38.459,-151.171 12.593,-198.901l-13.916,-18.574l-20.564,13.928c-281.799,249.254 -584.018,523.261 -873.321,827.514c24.432,62.58 64.993,117.035 116.646,158.273c256.512,-291.203 525.918,-579.149 778.562,-782.24" style="fill:#9f2241;fill-rule:nonzero;"/><path d="M1363.49,2581.5c19.897,-31.823 21.22,-84.878 6.625,-113.389l-15.239,-7.292l-8.626,5.97c-279.921,219.386 -529.23,430.257 -748.616,658.047c31.357,8.425 64.303,12.983 98.327,12.983l90.158,-0c188.563,-196.555 381.617,-376.959 577.371,-556.319" style="fill:#9f2241;fill-rule:nonzero;"/><path d="M2431.65,2800.91c-7.959,-18.563 -19.23,-30.501 -33.146,-33.157l-270.529,166.432c-28.511,23.198 -57.678,35.136 -88.179,34.469c-41.772,-1.979 -76.919,-26.522 -97.472,-71.595c-22.542,-52.387 -22.542,-133.953 29.834,-192.298c72.273,-90.169 210.85,-200.89 348.104,-305.653c26.521,-35.814 29.167,-81.554 17.896,-104.097l-15.251,-10.615l-19.885,8.615l-452.856,330.863c-113.389,76.252 -148.525,180.36 -108.076,318.258c35.025,83.477 79.309,149.426 130.118,195.699l223.543,0l320.649,-233.491c27.844,-26.522 27.844,-71.606 15.25,-103.43" style="fill:#9f2241;fill-rule:nonzero;"/><path d="M916.402,1103.52c-1.989,-7.948 -21.886,-19.219 -59.679,-19.219c-33.813,0 -72.928,8.615 -104.752,25.188c-149.325,108.976 -294.116,222.154 -434.337,339.378l-0,171.323c186.351,-174.347 359.986,-319.248 522.516,-447.71c67.638,-38.459 78.242,-62.991 76.252,-68.96" style="fill:#9f2241;fill-rule:nonzero;"/><path d="M1118.03,1838.04c49.731,-33.158 84.211,-147.191 69.617,-198.912l-11.927,-4.646c-9.293,0 -21.887,7.959 -41.116,26.522c-300.696,222.42 -572.47,450.766 -816.977,686.592l0,258.312c270.929,-286.59 539.579,-534.087 800.403,-767.868" style="fill:#9f2241;fill-rule:nonzero;"/><path d="M511.149,921.042c-3.98,-10.604 -17.241,-17.229 -36.47,-17.896c-22.543,0 -47.741,7.948 -74.263,23.865c-27.166,18.874 -54.81,38.415 -82.788,58.501l0,121.459c49.42,-38.227 99.261,-75.786 149.759,-112.322c41.772,-33.814 47.741,-62.325 43.762,-73.607" style="fill:#9f2241;fill-rule:nonzero;"/><path d="M2543.97,3082.64c-7.292,-16.573 -17.24,-25.188 -30.501,-27.188c-51.12,23.965 -95.46,51.842 -135.364,82.376l173.134,0c1.834,-18.762 -0.511,-38.77 -7.269,-55.188" style="fill:#9f2241;fill-rule:nonzero;"/><path d="M1141.04,1356.67c51.054,-46.418 64.315,-114.712 57.023,-144.546l-18.563,-5.969c-13.261,-0.667 -26.522,7.292 -47.741,26.522c-261.469,204.18 -536.811,426.067 -814.131,680.278l-0,164.42c286.435,-302.23 560.12,-541.557 823.412,-720.705" style="fill:#9f2241;fill-rule:nonzero;"/><path d="M4412.23,2611.01c1.99,-27.856 -8.615,-55.033 -23.865,-72.94l-34.48,-17.907c-25.199,-0.656 -44.429,34.48 -49.064,90.18c-11.082,156.695 -18.463,332.886 -6.669,525.918c38.281,-3.357 74.918,-12.405 109.076,-26.311c-10.015,-160.107 -4.224,-334.642 5.002,-498.94" style="fill:#9f2241;fill-rule:nonzero;"/><path d="M4540.26,2072.28c33.18,-93.814 67.038,-182.961 102.741,-268.25l-0,-167.176c-70.761,123.404 -138.21,266.627 -173.024,384.373c-7.958,27.188 34.481,122.003 70.283,51.053" style="fill:#9f2241;fill-rule:nonzero;"/><path d="M4419.12,1570.5c-106.086,230.746 -197.589,397.167 -331.519,482.701c-7.292,7.303 -17.907,30.501 -17.907,61.002c-0,35.136 14.594,65.637 33.813,82.877l279.81,215.484l4.635,0.667l17.24,0.656c36.47,0.678 68.961,-18.563 83.544,-49.719c13.261,-25.855 9.282,-54.366 -9.937,-75.586c-20.564,-27.188 -48.408,-55.043 -74.93,-78.241l-25.198,-21.876c-51.71,-69.616 -46.407,-128.639 -40.438,-181.682c67.726,-273.063 172.979,-452.611 304.764,-605.271l-0,-122.504c-88.857,81.765 -165.654,182.672 -223.877,291.492" style="fill:#9f2241;fill-rule:nonzero;"/><path d="M4643,2455.89l-0,-178.403c-4.646,30.857 -8.815,61.98 -12.038,93.637c-1.178,30.901 2.79,58.912 12.038,84.766" style="fill:#9f2241;fill-rule:nonzero;"/><path d="M4160.67,1725.18l4.647,43.773l16.573,-10.615c71.606,-53.043 111.388,-180.349 118.024,-375.281c51.776,-231.447 170.645,-395.811 343.09,-518.882l0,-115.801c0,-3.401 -0.167,-6.758 -0.255,-10.148c-4.869,3.212 -9.904,6.391 -14.628,9.626c-323.572,160.463 -479.389,487.336 -467.451,977.328" style="fill:#9f2241;fill-rule:nonzero;"/><path d="M4354.81,627.188l-12.594,14.583c2.645,4.646 31.157,21.887 82.21,22.542c40.449,0.678 75.585,-9.937 93.492,-27.177c13.194,-31.246 40.316,-56.2 75.263,-76.319c-13.75,-24.02 -29.956,-46.451 -48.441,-66.793c-80.354,35.459 -149.937,81.81 -189.93,133.164" style="fill:#9f2241;fill-rule:nonzero;"/><path d="M4153.38,2690.04l5.969,-157.139c2.646,-35.803 -5.969,-66.971 -23.876,-88.179l-35.136,-17.24c-20.552,-0 -40.449,25.854 -49.73,67.626l-38.727,642.719l128.706,0c1.834,-69.271 3.668,-139.499 5.503,-210.416c2.645,-78.897 5.302,-158.462 7.291,-237.371" style="fill:#9f2241;fill-rule:nonzero;"/><path d="M3241.49,2920.71c-11.271,-21.219 -32.49,-36.459 -55.032,-36.459l-29.834,11.272c-98.128,86.856 -191.62,168.41 -328.874,176.369c-35.803,-0 -43.095,3.312 -47.741,7.947c-3.246,4.558 -7.692,18.808 -2.279,57.979l307.532,-0l157.551,-166.043c13.928,-21.887 2.657,-44.429 -1.323,-51.065" style="fill:#9f2241;fill-rule:nonzero;"/><path d="M4569.5,2610.42c-4.646,-0 -18.563,15.906 -25.855,49.731c-15.506,137.187 -22.075,261.702 -19.652,374.68c39.782,-37.481 71.417,-83.477 92.047,-135.086l-10.07,-233.625c-7.292,-35.148 -27.189,-55.7 -36.47,-55.7" style="fill:#9f2241;fill-rule:nonzero;"/><path d="M1054.48,1711.11l-176.28,0.544l-0,-558.764l218.586,8.515c-0,-0 188.029,-9.693 238.571,146.613c0,-0 84.611,178.626 -63.469,332.575c-0,0 -72.862,78.742 -217.408,70.517m612.285,572.324c0,0 -74.04,8.226 -89.324,-22.331l-319.648,-510.033c0,-0 132.797,-35.259 202.135,-105.775c0,-0 101.062,-94.015 90.491,-258.546c0,-0 -10.582,-196.255 -253.844,-266.772c0,0 -70.516,-15.984 -200.968,-16.217l-558.508,-0l0,57.645l157.773,-0l0,1116.15l-165.709,0l9.403,58.768l495.94,-0l5.869,-58.768l-162.175,0l-0,-499.174c52.209,-10.081 185.217,-30.367 211.538,18.519l318.481,539.423l302.019,-0c-0,-0 18.807,-61.113 -43.473,-52.888" style="fill:#bd965c;fill-rule:nonzero;"/><path d="M2809.65,1103.76l0,52.654l173.935,0l0,911.958l-787.687,-964.612l-288.213,0l-0,51.476l165.698,-0l0,1124.67l-170.4,0l12.927,50.531l413.674,0c-0,0 12.927,-55.233 -50.542,-50.531l-117.513,0l-0,-947.216l780.329,970.125c-0,0 43.483,74.629 128.684,12.927l-0,-1158.74l152.193,0c-0,0 22.92,-6.002 8.814,-53.243l-421.899,0Z" style="fill:#bd965c;fill-rule:nonzero;"/><path d="M3420.16,1103.76l-8.226,402.858l62.28,0c0,0 28.211,-417.197 366.667,-339.633l-0,1116.45l-190.386,-0l-0,45.829l558.23,-0c0,-0 16.451,-44.662 -37.615,-47.008l-142.2,0l0,-1124.89l106.953,0c0,0 232.68,-16.24 264.415,346.903l54.644,0l-0,-400.513l-1034.76,0Z" style="fill:#bd965c;fill-rule:nonzero;"/></g><defs><linearGradient id="_Linear1" x1="0" y1="0" x2="1" y2="0" gradientUnits="userSpaceOnUse" gradientTransform="matrix(9626.48,0,0,9626.48,-4810.09,1758.46)"><stop offset="0" style="stop-color:#9f2241;stop-opacity:1"/><stop offset="0.49" style="stop-color:#9f2241;stop-opacity:1"/><stop offset="1" style="stop-color:#691c32;stop-opacity:1"/></linearGradient><linearGradient id="_Linear2" x1="0" y1="0" x2="1" y2="0" gradientUnits="userSpaceOnUse" gradientTransform="matrix(9626.48,0,0,9626.48,-4810.09,1753.94)"><stop offset="0" style="stop-color:#9f2241;stop-opacity:1"/><stop offset="0.49" style="stop-color:#9f2241;stop-opacity:1"/><stop offset="1" style="stop-color:#691c32;stop-opacity:1"/></linearGradient></defs></svg>