<?xml version="1.0" encoding="UTF-8"?>
<svg id="Capa_2" data-name="Capa 2" xmlns="http://www.w3.org/2000/svg" viewBox="0 0 59.26 59.1">
  <defs>
    <style>
      .cls-1 {
        stroke: #1998d5;
      }

      .cls-1, .cls-2 {
        stroke-miterlimit: 10;
      }

      .cls-1, .cls-2, .cls-3 {
        fill: none;
        stroke-width: 2.93px;
      }

      .cls-2 {
        stroke: #fff;
      }

      .cls-3 {
        stroke: #f4b51a;
        stroke-linecap: round;
        stroke-linejoin: round;
      }
    </style>
  </defs>
  <g id="Layer_1" data-name="Layer 1">
    <g>
      <polyline class="cls-1" points="1.47 29.76 9.82 22.4 19.73 32.59 29.84 22.4 39.9 32.59 50.07 22.4 57.79 29.76"/>
      <line class="cls-2" x1="9.3" y1="43.49" x2="49.96" y2="43.49"/>
      <path class="cls-3" d="M38.8,57.64s15.71-16.3,18.21-25.12c1.88-6.66.56-15.03-5.59-18.76-6.15-3.73-7.02-4.49-7.02-4.49,0,0,4.03-.39,3.95-4.56-.07-3.53-6.93-3.24-6.93-3.24h-23.57s-6.86-.3-6.93,3.24c-.08,4.17,3.95,4.56,3.95,4.56,0,0-.87.76-7.02,4.49C1.7,17.49.37,25.86,2.25,32.52c2.49,8.82,18.21,25.12,18.21,25.12h18.34Z"/>
    </g>
  </g>
</svg>