<?xml version="1.0" encoding="UTF-8"?>
<svg id="Capa_2" data-name="Capa 2" xmlns="http://www.w3.org/2000/svg" viewBox="0 0 56.46 58.11">
  <defs>
    <style>
      .cls-1 {
        fill: none;
        stroke: #fff;
        stroke-linecap: round;
        stroke-miterlimit: 10;
        stroke-width: 2.93px;
      }
    </style>
  </defs>
  <g id="Layer_1" data-name="Layer 1">
    <g>
      <polygon class="cls-1" points="11.2 56.65 11.2 53.3 14.49 53.3 14.49 47.76 17.65 47.76 17.65 41.94 20.56 41.94 20.56 31.99 17.65 31.99 17.65 26.56 14.49 26.56 14.49 31.99 11.2 31.99 11.2 38.2 7.6 38.2 7.6 44.26 4.33 44.26 4.33 50.12 1.46 50.12 1.46 56.65 11.2 56.65"/>
      <polygon class="cls-1" points="17.65 26.56 17.65 21.02 21.14 21.02 21.14 22.65 27.15 22.65 27.15 31.99 30.81 31.99 30.81 38.2 33.89 38.2 33.89 44.26 37.71 44.26 37.71 50.12 40.43 50.12 40.43 56.65 30.5 56.65 30.5 50.12 26.87 50.12 26.87 44.26 23.91 44.26 23.91 38.2 20.56 38.2 20.56 31.99 17.65 31.99 17.65 26.56"/>
      <path class="cls-1" d="M21.14,22.65S19.35,1.73,38.49,1.47c16.4-.23,16.51,14.38,16.51,21.18v33.57h-10.64V21.02s.34-7.92-6.86-7.92-7.36,7.92-7.36,7.92v3.72h-2.97v-2.1h-6.02Z"/>
    </g>
  </g>
</svg>