<?xml version="1.0" encoding="UTF-8"?>
<svg id="Capa_2" data-name="Capa 2" xmlns="http://www.w3.org/2000/svg" viewBox="0 0 60.95 59.9">
  <defs>
    <style>
      .cls-1 {
        fill: none;
        stroke: #fff;
        stroke-linecap: round;
        stroke-miterlimit: 10;
        stroke-width: 2.93px;
      }
    </style>
  </defs>
  <g id="Layer_1" data-name="Layer 1">
    <g>
      <g>
        <circle class="cls-1" cx="17.67" cy="30.24" r="4.32"/>
        <circle class="cls-1" cx="43.28" cy="30.24" r="4.32"/>
      </g>
      <polygon class="cls-1" points="58.05 58.44 37.14 30.24 53.32 8.42 44.72 2.05 30.48 21.25 16.24 2.05 15.42 2.65 14.16 3.56 15.01 4.81 12.64 6.53 13.52 7.79 11.54 9.37 9.66 7 7.64 8.42 23.81 30.24 2.91 58.44 16.24 58.44 30.48 39.23 44.72 58.44 58.05 58.44"/>
      <path class="cls-1" d="M30.48,26.91c-3.27,0-6.04,1.39-7.11,3.34,1.07,1.95,3.84,3.34,7.11,3.34s6.04-1.39,7.11-3.34c-1.07-1.95-3.84-3.34-7.11-3.34Z"/>
    </g>
  </g>
</svg>