<?xml version="1.0" encoding="UTF-8"?>
<svg id="Capa_2" data-name="Capa 2" xmlns="http://www.w3.org/2000/svg" viewBox="0 0 70.75 59.32">
  <defs>
    <style>
      .cls-1 {
        stroke: #fff;
        stroke-linecap: round;
        stroke-linejoin: round;
      }

      .cls-1, .cls-2 {
        fill: none;
        stroke-width: 2.93px;
      }

      .cls-2 {
        stroke: #6f2a7f;
        stroke-miterlimit: 10;
      }
    </style>
  </defs>
  <g id="Layer_1" data-name="Layer 1">
    <g>
      <polyline class="cls-1" points="30.86 2.9 35.85 1.46 54.23 11.88 58.14 19.68 54.57 26.61 15.69 26.61 12.92 19.68 16.79 10.44 25.99 10.44 29.31 14.04 37.06 14.04 42.38 6.45"/>
      <line class="cls-1" x1="14.36" y1="19.74" x2="57.14" y2="19.74"/>
      <path class="cls-2" d="M.1,43.67c4.87-.33,5.17-5.98,9.05-5.98s5.19,5.79,8.75,5.98c3.87.21,4.6-5.68,8.68-5.65,4.06.03,5.22,5.77,9.12,5.65,3.81-.12,4.53-5.65,8.31-5.76,3.95-.11,5.51,5.87,9.49,5.76,3.74-.1,4.11-5.43,7.94-5.65,4.09-.23,5.11,5.52,9.27,5.65"/>
      <path class="cls-2" d="M.1,57.85c4.87-.33,5.17-5.98,9.05-5.98s5.19,5.79,8.75,5.98c3.87.21,4.6-5.68,8.68-5.65,4.06.03,5.22,5.77,9.12,5.65,3.81-.12,4.53-5.65,8.31-5.76,3.95-.11,5.51,5.87,9.49,5.76,3.74-.1,4.11-5.43,7.94-5.65,4.09-.23,5.11,5.52,9.27,5.65"/>
    </g>
  </g>
</svg>