<?xml version="1.0" encoding="UTF-8"?>
<svg id="Capa_2" data-name="Capa 2" xmlns="http://www.w3.org/2000/svg" viewBox="0 0 54.41 60.81">
  <defs>
    <style>
      .cls-1 {
        fill: #fff;
      }

      .cls-2 {
        fill: #f7b817;
      }
    </style>
  </defs>
  <g id="Layer_1" data-name="Layer 1">
    <g>
      <path class="cls-1" d="M15.87,41.62c-.1,0-.21,0-.31-.01-1.32-.1-2.56-.82-3.67-2.14-.37-.44-.73-.83-1.07-1.2-1.85-2.01-3.59-3.92-1.2-8.21.39-.7,1.28-.96,1.98-.56.7.39.96,1.28.56,1.98-1.37,2.45-.95,2.91.8,4.82.36.39.75.81,1.15,1.29.58.69,1.15,1.07,1.66,1.11.43.03.75-.19.75-.19.61-.53,1.53-.46,2.06.14.53.61.46,1.53-.14,2.06-.11.1-1.09.91-2.58.91Z"/>
      <path class="cls-1" d="M10.39,48.81c-.81,0-1.46-.65-1.46-1.46v-5.12c0-.81.65-1.46,1.46-1.46s1.46.65,1.46,1.46v5.12c0,.81-.65,1.46-1.46,1.46Z"/>
      <path class="cls-2" d="M7.22,49.66c-2.09,0-4.46-.88-6.05-3.83-2.98-5.52-.2-14.45,7.44-23.87.53-.66,1.5-.76,2.16-.22.66.53.76,1.5.22,2.15-6.63,8.17-9.43,16.21-7.12,20.48.46.84.99,1.39,1.55,1.73-.41-.73-.68-1.57-.81-2.52-.9-6.81,5.97-17.37,13.86-21.32,5.06-2.53,22.27-10.52,31.42-7,.01,0,.02,0,.04.01-2.82-2.57-7.88-3.61-12.29-2.32-.81.24-1.66-.23-1.9-1.04-.24-.81.23-1.66,1.04-1.9,6.49-1.91,13.95.32,16.98,5.07,1.5,2.35.43,5.54-3.17,9.5-.7.77-1.43,1.49-2.1,2.13-1.33,1.29-2.56,2.26-3.06,2.64-.67.51-1.63.38-2.14-.29s-.39-1.63.28-2.14c.89-.69,1.83-1.48,2.73-2.33,2.64-2.54,3.75-4.67,3.63-5.51-.02-.14-.08-.56-1.12-.96-6.34-2.44-19.11,1.95-28.95,6.88-7.24,3.63-12.85,13.19-12.19,18.18.21,1.61,1.04,2.51,2.6,2.82.64.13,1.13.65,1.21,1.3s-.25,1.28-.83,1.57c-.83.42-2.06.78-3.4.78Z"/>
      <path class="cls-2" d="M5.7,30.23c-.64,0-1.24-.41-1.45-1.05-.07-.2-6.37-20.03,11.04-27.25,17.28-7.17,27.27,7.97,27.37,8.12.46.71.25,1.66-.46,2.12-.71.46-1.66.25-2.12-.46-.35-.54-8.73-13.12-23.62-6.95-6.16,2.56-9.61,7.22-10.25,13.85-.49,5.13.93,9.57.95,9.62.26.8-.17,1.67-.98,1.93-.16.05-.32.08-.48.08Z"/>
      <path class="cls-1" d="M37.26,57.15c-.41,0-.83-.05-1.25-.15-9.17-2.13-14.3-5.27-15.69-9.59-.25-.77.18-1.59.94-1.83.77-.25,1.59.18,1.83.94.71,2.21,3.64,5.34,13.57,7.64.76.18,1.44.03,2.14-.45,2.27-1.55,3.78-6.04,3.99-7.56.11-.8.85-1.35,1.65-1.24.8.11,1.35.85,1.24,1.65-.19,1.31-1.71,7.14-5.23,9.55-.99.68-2.08,1.03-3.19,1.03Z"/>
      <path class="cls-1" d="M45.22,42.77c-.21,0-.42-.04-.62-.14-.73-.34-1.04-1.21-.7-1.94,1.07-2.27.1-4.05.06-4.13-.05-.09-.1-.2-.13-.3l-1.26-4.04c-.13-.42-.06-.88.18-1.24.22-.33.35-1.56.29-2.63l-1.84-7.9c-.18-.78.3-1.57,1.09-1.75.78-.18,1.57.31,1.75,1.09l1.87,8.01c.02.07.03.15.03.22.05.61.13,2.49-.41,3.89l1.05,3.36c.36.72,1.49,3.42-.03,6.66-.25.53-.77.84-1.32.84Z"/>
      <g>
        <path class="cls-1" d="M48.17,43.4s-1.74-.29-3.31-1.77l-2.33-2.19h-3.59s-2.6,5.24-6.64,3.45c0,0,.54,2.04,9.07,2.06,3.32,0,4.5.63,6.81-1.56Z"/>
        <path class="cls-1" d="M44.31,46.5c-.41,0-.82-.02-1.27-.04-.5-.02-1.05-.05-1.69-.05-8.39-.02-10.16-1.98-10.47-3.15-.14-.54.04-1.12.46-1.48.43-.36,1.03-.45,1.54-.22,2.71,1.2,4.66-2.6,4.75-2.77.25-.49.75-.81,1.3-.81h3.59c.37,0,.73.14,1,.39l2.33,2.19c1.2,1.13,2.55,1.39,2.56,1.39.54.1.98.5,1.14,1.02.16.53,0,1.1-.39,1.47-1.84,1.74-3.24,2.04-4.86,2.04ZM37.65,43.32c.99.1,2.21.17,3.72.18.68,0,1.28.03,1.81.05.74.03,1.29.06,1.76,0-.35-.24-.72-.52-1.07-.86l-1.91-1.8h-2.16c-.51.81-1.24,1.7-2.14,2.42Z"/>
      </g>
      <path class="cls-1" d="M43.04,40.24c-.44,0-.88-.2-1.17-.59-.48-.64-.35-1.55.29-2.04.49-.38,1.97-1.75.61-3.64-.76-1.05-1.43-1.81-1.97-2.43-1.15-1.31-2.06-2.35-2.02-4.28.02-.62.42-1.16,1.01-1.35.24-.08,2.38-.74,4.36-.41.79.13,1.33.88,1.2,1.68-.13.79-.88,1.33-1.68,1.2-.53-.09-1.14-.05-1.68.02.2.3.51.67.99,1.21.58.66,1.3,1.48,2.14,2.64,2.33,3.22.55,6.36-1.22,7.68-.26.2-.57.29-.87.29Z"/>
      <path class="cls-1" d="M16.14,36.36c-.55,0-1.07-.31-1.32-.84l-.14-.3c-.92-.24-1.75-.83-2.02-1.84-.37-1.37.52-2.59,1.38-3.21.65-.47,1.56-.32,2.04.33.44.61.34,1.46-.22,1.95.49.07.91.37,1.13.83l.47,1.01c.34.73.03,1.6-.7,1.94-.2.09-.41.14-.62.14Z"/>
      <path class="cls-1" d="M28.35,29.58c-.47,0-.93-.23-1.21-.65-.45-.67-.27-1.58.4-2.02,4.51-3.01,7.83-.95,7.97-.87.68.43.88,1.33.44,2.01-.43.67-1.32.87-1.99.46-.12-.07-1.97-1.06-4.8.82-.25.17-.53.25-.81.25Z"/>
      <path class="cls-1" d="M35.17,60.81c-.81,0-1.46-.65-1.46-1.46v-3.57c0-.81.65-1.46,1.46-1.46s1.46.65,1.46,1.46v3.57c0,.81-.65,1.46-1.46,1.46Z"/>
    </g>
  </g>
</svg>