<?xml version="1.0" encoding="UTF-8"?>
<svg width="175px" height="112px" viewBox="0 0 175 112" version="1.1" xmlns="http://www.w3.org/2000/svg" xmlns:xlink="http://www.w3.org/1999/xlink">
    <!-- Generator: Sketch 64 (93537) - https://sketch.com -->
    <title>Logotipo</title>
    <desc>Created with Sketch.</desc>
    <g id="HD" stroke="none" stroke-width="1" fill="none" fill-rule="evenodd">
        <g id="Escritorio" transform="translate(-135.000000, -36.000000)">
            <g id="Menú" transform="translate(-1.000000, -1.000000)">
                <g id="Logotipo" transform="translate(136.000000, 37.000000)">
                    <g>
                        <path d="M0,82.6672401 L0,53.4830108 L17.5921053,53.4830108 C24.8564073,53.4830108 28.4885584,56.345233 28.4885584,62.0696774 C28.4885584,64.5987097 27.5875286,66.6139068 25.7854691,68.1152688 C23.9834096,69.6166308 21.2616323,70.3673118 17.6201373,70.3673118 L4.98970252,70.3673118 L4.98970252,82.6672401 L0,82.6672401 Z M18.9656751,58.0673835 L4.98970252,58.0673835 L4.98970252,65.7829391 L18.9656751,65.7829391 C20.4366895,65.7829391 21.5593059,65.4136201 22.333524,64.6749821 C23.0828652,64.0017982 23.5073455,63.0381751 23.4988558,62.0295341 C23.510303,60.9652006 23.0742278,59.9452118 22.2974828,59.2194982 C21.520595,58.4567742 20.423341,58.0673835 18.9656751,58.0673835 Z" id="Shape" fill="#FFFFFF" fill-rule="nonzero"></path>
                        <polygon id="Path" fill="#FFFFFF" points="32.4370709 82.6672401 32.4370709 53.4830108 37.430778 53.4830108 37.430778 82.6672401"></polygon>
                        <path d="M54.5223112,64.3217204 L62.2991991,64.8636559 C69.3552632,65.3667861 72.8832952,68.2852091 72.8832952,73.6189247 C72.8832952,76.5386858 71.5657895,78.8803823 68.930778,80.6440143 C66.2957666,82.4076464 62.706331,83.2894624 58.1624714,83.2894624 C50.617849,83.2894624 45.377193,80.4553405 42.4405034,74.7870968 L46.5171625,72.0332616 C48.6529367,76.7594743 52.6308162,79.1225806 58.4508009,79.1225806 C61.3340961,79.1225806 63.6287185,78.6221266 65.3346682,77.6212186 C67.0406178,76.6203106 67.8935927,75.314313 67.8935927,73.7032258 C67.8935927,71.0912306 65.9113272,69.6594504 61.9467963,69.4078853 L54.3381007,68.9502509 C51.1344394,68.7548865 48.5901983,67.9975149 46.7053776,66.6781362 C44.8205568,65.3587575 43.8861556,63.6566786 43.9021739,61.5718996 C43.9021739,58.788626 45.0955378,56.6476464 47.4822654,55.1489606 C49.8689931,53.6502748 53.2648741,52.8929032 57.6699085,52.8768459 C64.2988177,52.8768459 69.0949657,54.9616249 72.0583524,59.1311828 L67.5812357,61.8207885 C65.7124333,58.6253763 62.3993135,57.0276703 57.6418764,57.0276703 C54.9721587,57.0276703 52.8443936,57.4090323 51.2585812,58.1717563 C49.6727689,58.9344803 48.8718535,59.9139785 48.8558352,61.1102509 C48.8180857,62.0578476 49.338551,62.939452 50.1853547,63.3622939 C51.0823799,63.8654241 52.528032,64.185233 54.5223112,64.3217204 Z" id="Path" fill="#FFFFFF"></path>
                        <polygon id="Path" fill="#FFFFFF" points="104.219108 58.0673835 92.2053776 58.0673835 92.2053776 82.6672401 87.2116705 82.6672401 87.2116705 58.0673835 75.1498856 58.0673835 74.3169336 53.4830108 105.052059 53.4830108"></polygon>
                        <path d="M123.308924,83.289466 C118.319222,83.289466 114.237223,81.8175388 111.062929,78.8736918 C108.029666,76.1068205 106.300641,72.1862283 106.300641,68.0751254 C106.300641,63.9640226 108.029666,60.0434304 111.062929,57.2765591 C114.234554,54.3327121 118.316552,52.8607885 123.308924,52.8607885 C128.301297,52.8607885 132.397979,54.3327121 135.59897,57.2765591 C138.632234,60.0434304 140.361258,63.9640226 140.361258,68.0751254 C140.361258,72.1862283 138.632234,76.1068205 135.59897,78.8736918 C132.424676,81.8202151 128.327994,83.2921386 123.308924,83.289466 Z M114.498856,75.7224373 C116.63463,77.7135484 119.57132,78.7077658 123.308924,78.705095 C127.046529,78.7024134 129.983219,77.7081959 132.118993,75.7224373 C134.281465,73.7393548 135.3627,71.1969415 135.3627,68.0951971 C135.3627,64.9934528 134.281465,62.4430108 132.118993,60.443871 C129.956522,58.4554361 127.019832,57.4612186 123.308924,57.4612186 C119.598017,57.4612186 116.661327,58.4554361 114.498856,60.443871 C112.347063,62.4296296 111.279176,64.9800717 111.295017,68.0951971 C111.311213,71.2103226 112.389779,73.752736 114.530892,75.7224373 L114.498856,75.7224373 Z M124.790618,46.3936918 L131.15389,46.3936918 L125.263158,51.3835125 L121.314645,51.3835125 L124.790618,46.3936918 Z" id="Shape" fill="#FFFFFF" fill-rule="nonzero"></path>
                        <polygon id="Path" fill="#FFFFFF" points="167.391304 82.6672401 149.927346 58.8180645 149.927346 82.6672401 144.933638 82.6672401 144.933638 53.4830108 152.338101 53.4830108 169.89016 77.328172 169.89016 53.4830108 174.879863 53.4830108 174.879863 82.6672401"></polygon>
                        <path d="M36.4816934,107.435699 L36.4816934,91.1977061 C39.9176201,91.7356272 41.6355835,92.0005735 45.0795195,92.4301075 C47.4564811,92.6794374 49.6670436,93.7696223 51.3146453,95.5050896 C52.8908983,97.123125 53.7634872,99.3012536 53.7414188,101.562724 C53.7414188,103.883011 52.9405034,105.737634 51.3146453,107.102509 C49.6887872,108.467384 47.6144165,109.005305 45.0795195,108.672115 C41.6475973,108.222509 39.9176201,107.985663 36.4816934,107.435699 Z M44.3867277,94.8949104 C42.3283753,94.6219355 41.2991991,94.4934767 39.2448513,94.1723297 L39.2448513,105.3081 C41.3913043,105.625233 42.4485126,105.777778 44.6149886,106.058781 C46.5371854,106.311685 48.0749428,105.94638 49.2202517,104.97491 C50.336941,104.071285 50.972882,102.699938 50.9422197,101.261649 C50.956598,99.6741008 50.3126353,98.1518659 49.1641876,97.058638 C47.978833,95.8744086 46.3850114,95.1598566 44.3867277,94.8949104 L44.3867277,94.8949104 Z" id="Shape" fill="#FFC63E" fill-rule="nonzero"></path>
                        <path d="M56.2843249,109.936631 L56.2843249,93.6946237 C60.9937071,94.1469056 65.7124333,94.4948148 70.4405034,94.7383513 C70.2522883,95.7499642 70.1601831,96.2557706 69.9759725,97.2673835 C66.3371472,97.0800478 62.6983219,96.8244683 59.0594966,96.5006452 L59.0594966,99.7964158 C62.6836384,100.109534 64.4937071,100.242007 68.1218535,100.458781 L68.1218535,103.007885 C64.4937071,102.795125 62.6836384,102.662652 59.0594966,102.349534 L59.0594966,107.64043 C62.6929825,107.961577 66.3318078,108.215818 69.9759725,108.403154 C70.1601831,109.434839 70.2522883,109.948674 70.4405034,110.980358 C65.715103,110.736822 60.9963768,110.388913 56.2843249,109.936631 Z" id="Path" fill="#FFC63E"></path>
                        <path d="M88.7494279,111.767168 C85.9462243,111.767168 83.687643,110.932186 81.9136156,109.262222 C80.1986158,107.719235 79.2297197,105.510502 79.2545767,103.200573 C79.2188646,100.919572 80.1924742,98.7397802 81.9136156,97.2473118 C83.687643,95.6415771 85.9662471,94.8387097 88.7494279,94.8387097 C91.5326087,94.8387097 93.8392449,95.6014337 95.6132723,97.1991398 C97.3371125,98.6806586 98.3107951,100.856542 98.2683066,103.13233 C98.2912369,105.447979 97.3249444,107.662866 95.6132723,109.218065 C93.8392449,110.892043 91.5526316,111.755125 88.7494279,111.767168 Z M83.8398169,107.540072 C85.0411899,108.656057 86.6750572,109.222079 88.7494279,109.214134 C90.8237986,109.206022 92.4656751,108.627957 93.6710526,107.499928 C94.8678927,106.399169 95.5296825,104.832191 95.4851259,103.204588 C95.5389604,101.5973 94.8736376,100.049953 93.6710526,98.9855197 C92.4696796,97.9016487 90.8237986,97.3797849 88.7494279,97.3797849 C86.6750572,97.3797849 85.0411899,97.9257348 83.8398169,99.0216487 C82.6481977,100.097811 81.9903682,101.645789 82.041762,103.25276 C81.9954499,104.875081 82.6510331,106.438265 83.8398169,107.540072 L83.8398169,107.540072 Z" id="Shape" fill="#FFC63E" fill-rule="nonzero"></path>
                        <path d="M100.819222,111.148961 L100.819222,94.9069534 C104.323227,94.7704659 107.831236,94.5697491 111.323227,94.3088172 C113.457666,94.1522581 114.999428,94.3610036 115.956522,94.9591398 C116.913616,95.557276 117.394165,96.6090323 117.394165,98.1264516 C117.414539,99.3009709 116.938937,100.429449 116.084668,101.233548 C115.163409,102.106717 113.95939,102.618283 112.692792,102.674695 L112.624714,102.674695 C114.863272,105.61319 115.984554,107.090466 118.231121,109.968746 C116.913616,110.09319 116.256865,110.153405 114.943364,110.261792 C112.812929,107.331326 111.739703,105.846022 109.613272,102.895484 C107.210526,103.056057 106.009153,103.128315 103.606407,103.244731 L103.606407,111.020502 C102.493135,111.076703 101.932494,111.104803 100.819222,111.148961 Z M112.088101,96.8057348 C108.696224,97.058638 107.002288,97.1670251 103.606407,97.3356272 L103.606407,100.699642 C107.002288,100.531039 108.696224,100.426667 112.088101,100.169749 C113.774027,100.04129 114.614989,99.4190681 114.614989,98.3231541 C114.614989,97.2272401 113.774027,96.677276 112.088101,96.8057348 Z" id="Shape" fill="#FFC63E" fill-rule="nonzero"></path>
                        <path d="M128.947368,109.129749 C126.180206,109.483011 123.909611,108.921004 122.139588,107.467814 C120.404662,106.080358 119.422521,103.955132 119.488558,101.731326 C119.489534,99.3642112 120.445746,97.0981705 122.139588,95.4488889 C123.959223,93.5990058 126.368136,92.4470118 128.947368,92.1932616 C131.750572,91.84 134.005149,92.3337634 135.755149,93.710681 C137.495517,95.0409334 138.479048,97.1386545 138.39016,99.3307527 C138.379149,101.733904 137.43387,104.038058 135.755149,105.753692 C133.967828,107.667283 131.549233,108.866693 128.947368,109.129749 L128.947368,109.129749 Z M124.065789,105.516846 C125.267162,106.488315 126.868993,106.85362 128.947368,106.592688 C131.025744,106.331756 132.639588,105.548961 133.836957,104.272401 C135.006749,103.061854 135.652878,101.437547 135.635011,99.7522581 C135.635011,98.0180645 135.034325,96.689319 133.836957,95.7379211 C132.639588,94.7865233 131.009725,94.4814337 128.947368,94.7383513 C126.885011,94.9952688 125.259153,95.7419355 124.065789,96.9823656 C122.893616,98.1649066 122.246804,99.7714038 122.271739,101.43828 C122.193913,103.002043 122.859357,104.510388 124.065789,105.504803 L124.065789,105.516846 Z" id="Shape" fill="#FFC63E" fill-rule="nonzero"></path>
                        <ellipse id="Oval" fill="#FFC63E" cx="87.4399314" cy="20.0997849" rx="20.0509153" ry="20.0997849"></ellipse>
                        <ellipse id="Oval" fill="#FFFFFF" cx="87.4399314" cy="20.0997849" rx="18.2608696" ry="18.3053763"></ellipse>
                        <polygon id="Rectangle" fill="#FFC63E" transform="translate(93.582602, 14.477500) rotate(-45.000000) translate(-93.582602, -14.477500) " points="92.6508877 7.49216603 94.5313229 7.48987725 94.5143157 21.4628342 92.6338804 21.4651229"></polygon>
                        <path d="M82.3901602,27.6507527 C82.1296424,26.7018655 81.3928961,25.9587553 80.4479405,25.6917563 L80.4479405,25.6917563 C79.2341228,25.3574229 77.94785,25.8839423 77.3144278,26.9744198 C76.6810056,28.0648973 76.8591037,29.4461725 77.7482959,30.3393698 C78.6374881,31.2325671 80.0150353,31.413944 81.1041638,30.7812254 C82.1932923,30.1485068 82.7211798,28.8601862 82.3901602,27.642724 L82.3901602,27.6507527 Z" id="Path" fill="#FFC63E"></path>
                        <polygon id="Rectangle" fill="#FFC63E" transform="translate(96.021389, 12.031741) rotate(-45.000000) translate(-96.021389, -12.031741) " points="95.0896749 5.04640694 96.9701101 5.04411816 96.9531028 19.0170751 95.0726676 19.0193638"></polygon>
                        <path d="M83.3392449,25.9767742 L83.4033181,26.0731183 L89.8106407,19.6501792 L89.7585812,19.5819355 C89.3929268,19.1089908 88.9706079,18.6829461 88.5011442,18.313405 L88.4330664,18.265233 L82.0257437,24.688172 L82.1258581,24.7564158 C82.3627387,24.9126514 82.5840171,25.09145 82.7866133,25.2903226 C82.9941796,25.4992133 83.1793964,25.7292804 83.3392449,25.9767742 L83.3392449,25.9767742 Z" id="Path" fill="#FFC63E"></path>
                        <path d="M84.7528604,16.01319 C85.66302,15.7538597 86.6288917,15.766416 87.5320366,16.049319 C88.5761547,16.3955636 89.5185525,16.9954792 90.2751716,17.7955556 C91.0745388,18.5553427 91.6743019,19.5013065 92.021167,20.5493907 C92.3019718,21.4537726 92.3131068,22.4206871 92.0532037,23.3313262 L92.0532037,23.3875269 L93.3066362,24.6560573 L96.7465675,21.2037276 L86.875286,11.3124014 L83.4353547,14.7607168 L84.7008009,16.0292473 L84.7528604,16.01319 Z" id="Path" fill="#FFC63E"></path>
                    </g>
                </g>
            </g>
        </g>
    </g>
</svg>