<?xml version="1.0" encoding="utf-8"?>
<!-- Generator: Adobe Illustrator 26.4.1, SVG Export Plug-In . SVG Version: 6.00 Build 0)  -->
<svg version="1.1" id="Capa_1" xmlns="http://www.w3.org/2000/svg" xmlns:xlink="http://www.w3.org/1999/xlink" x="0px" y="0px"
	 viewBox="0 0 500 500" style="enable-background:new 0 0 500 500;" xml:space="preserve">
<path d="M279.44,220.64L279.44,220.64L279.44,220.64z"/>
<g>
	<g>
		<path d="M60.38,378.15L49.5,342.43l-0.05-0.21c0-0.35,0.19-0.53,0.58-0.53h6.66c0.39,0,0.63,0.18,0.74,0.53l7.03,25.79
			c0.04,0.11,0.09,0.16,0.16,0.16c0.07,0,0.12-0.05,0.16-0.16l6.92-25.79c0.11-0.35,0.35-0.53,0.74-0.53h6.5
			c0.21,0,0.37,0.07,0.48,0.21c0.11,0.14,0.12,0.32,0.05,0.53l-11.04,35.72c-0.11,0.35-0.34,0.53-0.69,0.53h-6.66
			C60.71,378.68,60.48,378.51,60.38,378.15z"/>
		<path d="M108.44,347.9c-0.12,0.12-0.27,0.18-0.45,0.18H90.66c-0.18,0-0.26,0.09-0.26,0.26v8.19c0,0.18,0.09,0.26,0.26,0.26h11.36
			c0.18,0,0.32,0.06,0.45,0.18s0.18,0.27,0.18,0.45v5.13c0,0.18-0.06,0.32-0.18,0.45c-0.12,0.12-0.27,0.18-0.45,0.18H90.66
			c-0.18,0-0.26,0.09-0.26,0.26V372c0,0.18,0.09,0.26,0.26,0.26h17.33c0.18,0,0.33,0.06,0.45,0.18c0.12,0.12,0.18,0.27,0.18,0.45
			v5.13c0,0.18-0.06,0.32-0.18,0.45c-0.12,0.12-0.27,0.18-0.45,0.18H83.57c-0.18,0-0.33-0.06-0.45-0.18
			c-0.12-0.12-0.18-0.27-0.18-0.45V342.3c0-0.18,0.06-0.32,0.18-0.45c0.12-0.12,0.27-0.18,0.45-0.18h24.41
			c0.18,0,0.33,0.06,0.45,0.18c0.12,0.12,0.18,0.27,0.18,0.45v5.13C108.62,347.63,108.56,347.78,108.44,347.9z"/>
		<path d="M132.51,378.21l-6.61-14.64c-0.07-0.14-0.18-0.21-0.32-0.21h-4.91c-0.18,0-0.26,0.09-0.26,0.27v14.43
			c0,0.18-0.06,0.32-0.18,0.45c-0.12,0.12-0.27,0.18-0.45,0.18h-6.18c-0.18,0-0.33-0.06-0.45-0.18c-0.12-0.12-0.18-0.27-0.18-0.45
			v-35.72c0-0.18,0.06-0.32,0.18-0.45c0.12-0.12,0.27-0.18,0.45-0.18h15.11c2.26,0,4.24,0.46,5.95,1.37
			c1.71,0.92,3.03,2.22,3.96,3.91c0.93,1.69,1.4,3.65,1.4,5.87c0,2.4-0.6,4.45-1.8,6.16s-2.87,2.92-5.02,3.62
			c-0.18,0.07-0.23,0.19-0.16,0.37l7.19,14.96c0.07,0.14,0.11,0.25,0.11,0.32c0,0.28-0.19,0.42-0.58,0.42h-6.5
			C132.89,378.68,132.65,378.53,132.51,378.21z M120.41,348.35v9.04c0,0.18,0.09,0.26,0.26,0.26h6.92c1.48,0,2.69-0.44,3.62-1.32
			c0.93-0.88,1.4-2.03,1.4-3.44s-0.47-2.56-1.4-3.46s-2.14-1.35-3.62-1.35h-6.92C120.49,348.09,120.41,348.18,120.41,348.35z"/>
		<path d="M144.74,378.5c-0.12-0.12-0.18-0.27-0.18-0.45v-35.72c0-0.18,0.06-0.32,0.18-0.45c0.12-0.12,0.27-0.18,0.45-0.18h6.18
			c0.18,0,0.33,0.06,0.45,0.18s0.18,0.27,0.18,0.45v35.72c0,0.18-0.06,0.32-0.18,0.45c-0.12,0.12-0.27,0.18-0.45,0.18h-6.18
			C145.01,378.68,144.86,378.62,144.74,378.5z"/>
		<path d="M183.05,347.9c-0.12,0.12-0.27,0.18-0.45,0.18h-17.28c-0.18,0-0.26,0.09-0.26,0.26v8.19c0,0.18,0.09,0.26,0.26,0.26h11.36
			c0.18,0,0.32,0.06,0.45,0.18c0.12,0.12,0.18,0.27,0.18,0.45v5.13c0,0.18-0.06,0.32-0.18,0.45c-0.12,0.12-0.27,0.18-0.45,0.18
			h-11.36c-0.18,0-0.26,0.09-0.26,0.26v14.59c0,0.18-0.06,0.32-0.18,0.45c-0.12,0.12-0.27,0.18-0.45,0.18h-6.18
			c-0.18,0-0.33-0.06-0.45-0.18s-0.18-0.27-0.18-0.45v-35.72c0-0.18,0.06-0.32,0.18-0.45c0.12-0.12,0.27-0.18,0.45-0.18h24.36
			c0.18,0,0.32,0.06,0.45,0.18c0.12,0.12,0.18,0.27,0.18,0.45v5.13C183.23,347.63,183.17,347.78,183.05,347.9z"/>
		<path d="M186.54,378.5c-0.12-0.12-0.18-0.27-0.18-0.45v-35.72c0-0.18,0.06-0.32,0.18-0.45c0.12-0.12,0.27-0.18,0.45-0.18h6.18
			c0.18,0,0.33,0.06,0.45,0.18s0.18,0.27,0.18,0.45v35.72c0,0.18-0.06,0.32-0.18,0.45c-0.12,0.12-0.27,0.18-0.45,0.18h-6.18
			C186.81,378.68,186.66,378.62,186.54,378.5z"/>
		<path d="M205.16,377.49c-2.08-1.07-3.68-2.58-4.81-4.52s-1.69-4.17-1.69-6.71v-12.21c0-2.54,0.56-4.77,1.69-6.71
			s2.73-3.44,4.81-4.49c2.08-1.06,4.49-1.59,7.24-1.59c2.71,0,5.1,0.5,7.16,1.51c2.06,1,3.66,2.43,4.81,4.28
			c1.14,1.85,1.72,3.99,1.72,6.42c0,0.32-0.21,0.51-0.63,0.58l-6.18,0.37h-0.11c-0.35,0-0.53-0.19-0.53-0.58
			c0-1.87-0.57-3.36-1.72-4.49c-1.14-1.13-2.65-1.69-4.52-1.69c-1.9,0-3.43,0.57-4.57,1.69c-1.15,1.13-1.72,2.62-1.72,4.49v12.73
			c0,1.83,0.57,3.31,1.72,4.44c1.14,1.13,2.67,1.69,4.57,1.69c1.87,0,3.37-0.56,4.52-1.69c1.14-1.13,1.72-2.61,1.72-4.44
			c0-0.39,0.21-0.58,0.64-0.58l6.18,0.26c0.18,0,0.32,0.05,0.45,0.16c0.12,0.11,0.18,0.23,0.18,0.37c0,2.43-0.57,4.58-1.72,6.45
			c-1.14,1.87-2.75,3.31-4.81,4.33s-4.45,1.53-7.16,1.53C209.66,379.11,207.24,378.57,205.16,377.49z"/>
		<path d="M252.67,378.15l-1.58-5.18c-0.07-0.14-0.16-0.21-0.27-0.21h-13c-0.1,0-0.19,0.07-0.26,0.21l-1.53,5.18
			c-0.11,0.35-0.34,0.53-0.69,0.53h-6.71c-0.21,0-0.37-0.06-0.48-0.18s-0.12-0.31-0.05-0.55l11.41-35.72
			c0.11-0.35,0.33-0.53,0.69-0.53h8.29c0.35,0,0.58,0.18,0.69,0.53l11.41,35.72c0.04,0.07,0.05,0.16,0.05,0.26
			c0,0.32-0.19,0.48-0.58,0.48h-6.71C253,378.68,252.77,378.51,252.67,378.15z M239.67,367.01h9.3c0.21,0,0.28-0.11,0.21-0.32
			L244.42,351c-0.04-0.14-0.09-0.2-0.16-0.18c-0.07,0.02-0.12,0.08-0.16,0.18l-4.65,15.69C239.42,366.9,239.49,367.01,239.67,367.01
			z"/>
		<path d="M269.1,377.49c-2.08-1.07-3.68-2.58-4.81-4.52s-1.69-4.17-1.69-6.71v-12.21c0-2.54,0.56-4.77,1.69-6.71
			s2.73-3.44,4.81-4.49c2.08-1.06,4.49-1.59,7.24-1.59c2.71,0,5.1,0.5,7.16,1.51c2.06,1,3.66,2.43,4.81,4.28
			c1.14,1.85,1.72,3.99,1.72,6.42c0,0.32-0.21,0.51-0.63,0.58l-6.18,0.37h-0.11c-0.35,0-0.53-0.19-0.53-0.58
			c0-1.87-0.57-3.36-1.72-4.49c-1.14-1.13-2.65-1.69-4.52-1.69c-1.9,0-3.43,0.57-4.57,1.69c-1.15,1.13-1.72,2.62-1.72,4.49v12.73
			c0,1.83,0.57,3.31,1.72,4.44c1.14,1.13,2.67,1.69,4.57,1.69c1.87,0,3.37-0.56,4.52-1.69c1.14-1.13,1.72-2.61,1.72-4.44
			c0-0.39,0.21-0.58,0.64-0.58l6.18,0.26c0.18,0,0.32,0.05,0.45,0.16c0.12,0.11,0.18,0.23,0.18,0.37c0,2.43-0.57,4.58-1.72,6.45
			c-1.14,1.87-2.75,3.31-4.81,4.33s-4.45,1.53-7.16,1.53C273.59,379.11,271.18,378.57,269.1,377.49z"/>
		<path d="M294.81,378.5c-0.12-0.12-0.18-0.27-0.18-0.45v-35.72c0-0.18,0.06-0.32,0.18-0.45c0.12-0.12,0.27-0.18,0.45-0.18h6.18
			c0.18,0,0.33,0.06,0.45,0.18c0.12,0.12,0.18,0.27,0.18,0.45v35.72c0,0.18-0.06,0.32-0.18,0.45c-0.12,0.12-0.27,0.18-0.45,0.18
			h-6.18C295.08,378.68,294.93,378.62,294.81,378.5z"/>
		<path d="M313.57,377.57c-2.1-1.13-3.73-2.7-4.89-4.73s-1.74-4.36-1.74-7v-11.31c0-2.61,0.58-4.91,1.74-6.92s2.79-3.57,4.89-4.68
			s4.52-1.66,7.27-1.66c2.78,0,5.22,0.56,7.32,1.66c2.1,1.11,3.73,2.67,4.89,4.68c1.16,2.01,1.74,4.31,1.74,6.92v11.31
			c0,2.64-0.58,4.98-1.74,7.03s-2.79,3.62-4.89,4.73c-2.1,1.11-4.54,1.66-7.32,1.66C318.08,379.26,315.66,378.7,313.57,377.57z
			 M325.54,371.02c1.2-1.23,1.8-2.87,1.8-4.91v-11.63c0-2.04-0.59-3.69-1.77-4.94s-2.76-1.88-4.73-1.88c-1.94,0-3.5,0.63-4.68,1.88
			s-1.77,2.9-1.77,4.94v11.63c0,2.04,0.59,3.68,1.77,4.91s2.74,1.85,4.68,1.85C322.77,372.87,324.34,372.26,325.54,371.02z
			 M317.45,338.21c-0.07-0.14-0.05-0.32,0.05-0.53l2.8-5.34c0.14-0.32,0.41-0.48,0.79-0.48h5.34c0.25,0,0.41,0.08,0.5,0.24
			s0.06,0.34-0.08,0.55l-3.75,5.34c-0.18,0.28-0.42,0.42-0.74,0.42h-4.44C317.68,338.42,317.52,338.35,317.45,338.21z"/>
		<path d="M361.07,341.88c0.12-0.12,0.27-0.18,0.45-0.18h6.18c0.18,0,0.33,0.06,0.45,0.18c0.12,0.12,0.18,0.27,0.18,0.45v35.72
			c0,0.18-0.06,0.32-0.18,0.45c-0.12,0.12-0.27,0.18-0.45,0.18h-5.97c-0.35,0-0.6-0.14-0.74-0.42l-13.68-22.62
			c-0.07-0.11-0.14-0.15-0.21-0.13c-0.07,0.02-0.11,0.1-0.11,0.24l0.11,22.3c0,0.18-0.06,0.32-0.18,0.45
			c-0.12,0.12-0.27,0.18-0.45,0.18h-6.18c-0.18,0-0.33-0.06-0.45-0.18c-0.12-0.12-0.18-0.27-0.18-0.45v-35.72
			c0-0.18,0.06-0.32,0.18-0.45c0.12-0.12,0.27-0.18,0.45-0.18h5.97c0.35,0,0.6,0.14,0.74,0.42l13.63,22.51
			c0.07,0.11,0.14,0.15,0.21,0.13s0.11-0.1,0.11-0.24l-0.05-22.19C360.89,342.15,360.95,342,361.07,341.88z"/>
		<path d="M383.85,378.5c-0.12-0.12-0.18-0.27-0.18-0.45v-35.72c0-0.18,0.06-0.32,0.18-0.45c0.12-0.12,0.27-0.18,0.45-0.18h13.21
			c2.64,0,4.96,0.47,6.95,1.4c1.99,0.93,3.53,2.25,4.62,3.94s1.64,3.65,1.64,5.86v14.59c0,2.22-0.55,4.17-1.64,5.86
			c-1.09,1.69-2.63,3-4.62,3.94c-1.99,0.93-4.31,1.4-6.95,1.4H384.3C384.12,378.68,383.97,378.62,383.85,378.5z M391.38,372.29h6.39
			c1.62,0,2.93-0.55,3.94-1.64c1-1.09,1.52-2.55,1.56-4.39v-12.15c0-1.83-0.5-3.29-1.51-4.39c-1-1.09-2.35-1.64-4.04-1.64h-6.34
			c-0.18,0-0.26,0.09-0.26,0.26v23.67C391.11,372.2,391.2,372.29,391.38,372.29z"/>
		<path d="M440.97,347.9c-0.12,0.12-0.27,0.18-0.45,0.18h-17.33c-0.18,0-0.26,0.09-0.26,0.26v8.19c0,0.18,0.09,0.26,0.26,0.26h11.36
			c0.18,0,0.32,0.06,0.45,0.18s0.18,0.27,0.18,0.45v5.13c0,0.18-0.06,0.32-0.18,0.45c-0.12,0.12-0.27,0.18-0.45,0.18h-11.36
			c-0.18,0-0.26,0.09-0.26,0.26V372c0,0.18,0.09,0.26,0.26,0.26h17.33c0.18,0,0.33,0.06,0.45,0.18c0.12,0.12,0.18,0.27,0.18,0.45
			v5.13c0,0.18-0.06,0.32-0.18,0.45c-0.12,0.12-0.27,0.18-0.45,0.18h-24.41c-0.18,0-0.33-0.06-0.45-0.18
			c-0.12-0.12-0.18-0.27-0.18-0.45V342.3c0-0.18,0.06-0.32,0.18-0.45c0.12-0.12,0.27-0.18,0.45-0.18h24.41
			c0.18,0,0.33,0.06,0.45,0.18c0.12,0.12,0.18,0.27,0.18,0.45v5.13C441.15,347.63,441.09,347.78,440.97,347.9z"/>
		<path d="M71.08,389.8c0.12-0.12,0.27-0.18,0.45-0.18h6.18c0.18,0,0.32,0.06,0.45,0.18c0.12,0.12,0.18,0.27,0.18,0.45v35.72
			c0,0.18-0.06,0.32-0.18,0.45c-0.12,0.12-0.27,0.18-0.45,0.18h-6.18c-0.18,0-0.32-0.06-0.45-0.18c-0.12-0.12-0.18-0.27-0.18-0.45
			v-14.59c0-0.18-0.09-0.26-0.26-0.26H58.95c-0.18,0-0.26,0.09-0.26,0.26v14.59c0,0.18-0.06,0.32-0.18,0.45
			c-0.12,0.12-0.27,0.18-0.45,0.18h-6.18c-0.18,0-0.33-0.06-0.45-0.18s-0.18-0.27-0.18-0.45v-35.72c0-0.18,0.06-0.32,0.18-0.45
			c0.12-0.12,0.27-0.18,0.45-0.18h6.18c0.18,0,0.33,0.06,0.45,0.18s0.18,0.27,0.18,0.45v14.21c0,0.18,0.09,0.27,0.26,0.27h11.68
			c0.18,0,0.26-0.09,0.26-0.27v-14.21C70.89,390.07,70.95,389.92,71.08,389.8z"/>
		<path d="M83.76,426.42c-0.12-0.12-0.18-0.27-0.18-0.45v-35.72c0-0.18,0.06-0.32,0.18-0.45c0.12-0.12,0.27-0.18,0.45-0.18h6.18
			c0.18,0,0.33,0.06,0.45,0.18c0.12,0.12,0.18,0.27,0.18,0.45v35.72c0,0.18-0.06,0.32-0.18,0.45c-0.12,0.12-0.27,0.18-0.45,0.18
			h-6.18C84.03,426.61,83.88,426.54,83.76,426.42z"/>
		<path d="M96.81,426.42c-0.12-0.12-0.18-0.27-0.18-0.45v-35.72c0-0.18,0.06-0.32,0.18-0.45c0.12-0.12,0.27-0.18,0.45-0.18h13.21
			c2.64,0,4.96,0.47,6.95,1.4s3.53,2.25,4.62,3.94c1.09,1.69,1.64,3.65,1.64,5.86v14.59c0,2.22-0.55,4.17-1.64,5.86
			c-1.09,1.69-2.63,3-4.62,3.94c-1.99,0.93-4.31,1.4-6.95,1.4H97.26C97.08,426.61,96.93,426.54,96.81,426.42z M104.34,420.21h6.39
			c1.62,0,2.93-0.55,3.94-1.64c1-1.09,1.52-2.55,1.56-4.39v-12.15c0-1.83-0.5-3.29-1.51-4.39c-1-1.09-2.35-1.64-4.04-1.64h-6.34
			c-0.18,0-0.26,0.09-0.26,0.26v23.67C104.07,420.12,104.16,420.21,104.34,420.21z"/>
		<path d="M147.99,426.13l-6.61-14.64c-0.07-0.14-0.18-0.21-0.32-0.21h-4.91c-0.18,0-0.26,0.09-0.26,0.26v14.43
			c0,0.18-0.06,0.32-0.18,0.45c-0.12,0.12-0.27,0.18-0.45,0.18h-6.18c-0.18,0-0.33-0.06-0.45-0.18s-0.18-0.27-0.18-0.45v-35.72
			c0-0.18,0.06-0.32,0.18-0.45c0.12-0.12,0.27-0.18,0.45-0.18h15.11c2.26,0,4.24,0.46,5.95,1.37c1.71,0.92,3.03,2.22,3.96,3.91
			c0.93,1.69,1.4,3.65,1.4,5.87c0,2.4-0.6,4.45-1.8,6.16s-2.87,2.92-5.02,3.62c-0.18,0.07-0.23,0.19-0.16,0.37l7.19,14.96
			c0.07,0.14,0.11,0.25,0.11,0.32c0,0.28-0.19,0.42-0.58,0.42h-6.5C148.37,426.61,148.13,426.45,147.99,426.13z M135.89,396.27v9.04
			c0,0.18,0.09,0.26,0.26,0.26h6.92c1.48,0,2.69-0.44,3.62-1.32s1.4-2.03,1.4-3.44s-0.47-2.56-1.4-3.46s-2.14-1.35-3.62-1.35h-6.92
			C135.97,396.01,135.89,396.1,135.89,396.27z"/>
		<path d="M165.93,425.49c-2.1-1.13-3.73-2.7-4.89-4.73s-1.74-4.36-1.74-7v-11.31c0-2.61,0.58-4.91,1.74-6.92s2.79-3.57,4.89-4.68
			s4.52-1.66,7.27-1.66c2.78,0,5.22,0.55,7.32,1.66c2.1,1.11,3.73,2.67,4.89,4.68c1.16,2.01,1.74,4.31,1.74,6.92v11.31
			c0,2.64-0.58,4.99-1.74,7.03s-2.79,3.62-4.89,4.73c-2.1,1.11-4.54,1.66-7.32,1.66C170.45,427.19,168.02,426.62,165.93,425.49z
			 M177.9,418.94c1.2-1.23,1.8-2.87,1.8-4.91V402.4c0-2.04-0.59-3.69-1.77-4.94c-1.18-1.25-2.76-1.88-4.73-1.88
			c-1.94,0-3.5,0.63-4.68,1.88s-1.77,2.9-1.77,4.94v11.63c0,2.04,0.59,3.68,1.77,4.91c1.18,1.23,2.74,1.85,4.68,1.85
			C175.13,420.79,176.7,420.18,177.9,418.94z"/>
		<path d="M197.76,425.42c-2.08-1.07-3.68-2.58-4.81-4.52s-1.69-4.17-1.69-6.71v-12.21c0-2.54,0.56-4.77,1.69-6.71
			s2.73-3.43,4.81-4.49s4.49-1.59,7.24-1.59c2.71,0,5.1,0.5,7.16,1.51c2.06,1,3.66,2.43,4.81,4.28s1.72,3.99,1.72,6.42
			c0,0.32-0.21,0.51-0.63,0.58l-6.18,0.37h-0.11c-0.35,0-0.53-0.19-0.53-0.58c0-1.87-0.57-3.36-1.72-4.49
			c-1.14-1.13-2.65-1.69-4.52-1.69c-1.9,0-3.43,0.56-4.57,1.69c-1.15,1.13-1.72,2.62-1.72,4.49v12.74c0,1.83,0.57,3.31,1.72,4.44
			c1.14,1.13,2.67,1.69,4.57,1.69c1.87,0,3.37-0.56,4.52-1.69c1.14-1.13,1.72-2.61,1.72-4.44c0-0.39,0.21-0.58,0.64-0.58l6.18,0.26
			c0.18,0,0.32,0.05,0.45,0.16c0.12,0.11,0.18,0.23,0.18,0.37c0,2.43-0.57,4.58-1.72,6.45c-1.14,1.87-2.75,3.31-4.81,4.33
			s-4.45,1.53-7.16,1.53C202.26,427.03,199.84,426.49,197.76,425.42z"/>
		<path d="M245.27,426.08l-1.58-5.18c-0.07-0.14-0.16-0.21-0.27-0.21h-13c-0.1,0-0.19,0.07-0.26,0.21l-1.53,5.18
			c-0.11,0.35-0.34,0.53-0.69,0.53h-6.71c-0.21,0-0.37-0.06-0.48-0.18s-0.12-0.31-0.05-0.55l11.41-35.72
			c0.11-0.35,0.33-0.53,0.69-0.53h8.3c0.35,0,0.58,0.18,0.69,0.53l11.41,35.72c0.04,0.07,0.05,0.16,0.05,0.26
			c0,0.32-0.19,0.48-0.58,0.48h-6.71C245.6,426.61,245.37,426.43,245.27,426.08z M232.27,414.93h9.3c0.21,0,0.28-0.1,0.21-0.32
			l-4.76-15.69c-0.04-0.14-0.09-0.2-0.16-0.18c-0.07,0.02-0.12,0.08-0.16,0.18l-4.65,15.69
			C232.02,414.82,232.09,414.93,232.27,414.93z"/>
		<path d="M276.6,426.13l-6.6-14.64c-0.07-0.14-0.18-0.21-0.32-0.21h-4.91c-0.18,0-0.26,0.09-0.26,0.26v14.43
			c0,0.18-0.06,0.32-0.18,0.45c-0.12,0.12-0.27,0.18-0.45,0.18h-6.18c-0.18,0-0.33-0.06-0.45-0.18c-0.12-0.12-0.18-0.27-0.18-0.45
			v-35.72c0-0.18,0.06-0.32,0.18-0.45c0.12-0.12,0.27-0.18,0.45-0.18h15.11c2.26,0,4.24,0.46,5.95,1.37
			c1.71,0.92,3.03,2.22,3.96,3.91s1.4,3.65,1.4,5.87c0,2.4-0.6,4.45-1.8,6.16c-1.2,1.71-2.87,2.92-5.02,3.62
			c-0.18,0.07-0.23,0.19-0.16,0.37l7.19,14.96c0.07,0.14,0.11,0.25,0.11,0.32c0,0.28-0.19,0.42-0.58,0.42h-6.5
			C276.99,426.61,276.74,426.45,276.6,426.13z M264.5,396.27v9.04c0,0.18,0.09,0.26,0.26,0.26h6.92c1.48,0,2.69-0.44,3.62-1.32
			s1.4-2.03,1.4-3.44s-0.47-2.56-1.4-3.46s-2.14-1.35-3.62-1.35h-6.92C264.59,396.01,264.5,396.1,264.5,396.27z"/>
		<path d="M310.58,407.64c3.35,1.73,5.02,4.6,5.02,8.61c0,3.42-1.16,6-3.49,7.74s-5.37,2.62-9.14,2.62h-13.69
			c-0.18,0-0.33-0.06-0.45-0.18c-0.12-0.12-0.18-0.27-0.18-0.45v-35.72c0-0.18,0.06-0.32,0.18-0.45c0.12-0.12,0.27-0.18,0.45-0.18
			h13.26c8.35,0,12.52,3.38,12.52,10.15c0,3.52-1.5,6.04-4.49,7.56C310.37,407.42,310.37,407.53,310.58,407.64z M296.1,396.27v8.24
			c0,0.18,0.09,0.26,0.26,0.26h6.18c1.66,0,2.94-0.39,3.86-1.16c0.91-0.78,1.37-1.83,1.37-3.17c0-1.37-0.46-2.46-1.37-3.25
			c-0.92-0.79-2.2-1.19-3.86-1.19h-6.18C296.19,396.01,296.1,396.1,296.1,396.27z M306.78,418.92c0.91-0.83,1.37-1.96,1.37-3.41
			c0-1.44-0.46-2.58-1.37-3.41c-0.92-0.83-2.2-1.24-3.86-1.24h-6.55c-0.18,0-0.26,0.09-0.26,0.27v8.77c0,0.18,0.09,0.27,0.26,0.27
			h6.61C304.59,420.16,305.86,419.74,306.78,418.92z"/>
		<path d="M326.83,425.44c-2.06-1.06-3.66-2.54-4.81-4.47c-1.15-1.92-1.72-4.13-1.72-6.63v-24.1c0-0.18,0.06-0.32,0.19-0.45
			c0.12-0.12,0.27-0.18,0.45-0.18h6.18c0.18,0,0.32,0.06,0.45,0.18c0.12,0.12,0.19,0.27,0.19,0.45v24.15c0,1.87,0.57,3.37,1.72,4.52
			c1.14,1.15,2.65,1.72,4.52,1.72s3.37-0.57,4.52-1.72c1.14-1.14,1.72-2.65,1.72-4.52v-24.15c0-0.18,0.06-0.32,0.18-0.45
			c0.12-0.12,0.27-0.18,0.45-0.18h6.18c0.18,0,0.32,0.06,0.45,0.18c0.12,0.12,0.18,0.27,0.18,0.45v24.1c0,2.5-0.57,4.71-1.72,6.63
			s-2.75,3.41-4.81,4.47s-4.45,1.59-7.16,1.59S328.89,426.5,326.83,425.44z"/>
		<path d="M372.51,426.13l-6.61-14.64c-0.07-0.14-0.18-0.21-0.32-0.21h-4.91c-0.18,0-0.26,0.09-0.26,0.26v14.43
			c0,0.18-0.06,0.32-0.18,0.45c-0.12,0.12-0.27,0.18-0.45,0.18h-6.18c-0.18,0-0.33-0.06-0.45-0.18c-0.12-0.12-0.18-0.27-0.18-0.45
			v-35.72c0-0.18,0.06-0.32,0.18-0.45c0.12-0.12,0.27-0.18,0.45-0.18h15.11c2.26,0,4.24,0.46,5.95,1.37
			c1.71,0.92,3.03,2.22,3.96,3.91s1.4,3.65,1.4,5.87c0,2.4-0.6,4.45-1.8,6.16c-1.2,1.71-2.87,2.92-5.02,3.62
			c-0.18,0.07-0.23,0.19-0.16,0.37l7.19,14.96c0.07,0.14,0.11,0.25,0.11,0.32c0,0.28-0.19,0.42-0.58,0.42h-6.5
			C372.9,426.61,372.65,426.45,372.51,426.13z M360.41,396.27v9.04c0,0.18,0.09,0.26,0.26,0.26h6.92c1.48,0,2.69-0.44,3.62-1.32
			s1.4-2.03,1.4-3.44s-0.47-2.56-1.4-3.46s-2.14-1.35-3.62-1.35h-6.92C360.5,396.01,360.41,396.1,360.41,396.27z"/>
		<path d="M390.45,425.49c-2.1-1.13-3.73-2.7-4.89-4.73s-1.74-4.36-1.74-7v-11.31c0-2.61,0.58-4.91,1.74-6.92s2.79-3.57,4.89-4.68
			s4.52-1.66,7.27-1.66c2.78,0,5.22,0.55,7.32,1.66c2.1,1.11,3.73,2.67,4.89,4.68c1.16,2.01,1.74,4.31,1.74,6.92v11.31
			c0,2.64-0.58,4.99-1.74,7.03s-2.79,3.62-4.89,4.73c-2.1,1.11-4.54,1.66-7.32,1.66C394.97,427.19,392.55,426.62,390.45,425.49z
			 M402.42,418.94c1.2-1.23,1.8-2.87,1.8-4.91V402.4c0-2.04-0.59-3.69-1.77-4.94s-2.76-1.88-4.73-1.88c-1.94,0-3.5,0.63-4.68,1.88
			s-1.77,2.9-1.77,4.94v11.63c0,2.04,0.59,3.68,1.77,4.91s2.74,1.85,4.68,1.85S401.22,420.18,402.42,418.94z"/>
		<path d="M421.81,425.68c-2.11-0.9-3.74-2.19-4.89-3.86c-1.15-1.67-1.72-3.62-1.72-5.84v-1.16c0-0.18,0.06-0.33,0.18-0.45
			c0.12-0.12,0.27-0.18,0.45-0.18h6.02c0.18,0,0.32,0.06,0.45,0.18c0.12,0.12,0.18,0.27,0.18,0.45v0.79c0,1.41,0.65,2.6,1.95,3.57
			c1.3,0.97,3.06,1.45,5.28,1.45c1.87,0,3.26-0.4,4.17-1.19c0.92-0.79,1.37-1.77,1.37-2.93c0-0.85-0.28-1.56-0.85-2.14
			s-1.33-1.09-2.3-1.53s-2.51-1.05-4.62-1.82c-2.36-0.81-4.36-1.64-6-2.48s-3.01-2-4.12-3.46s-1.66-3.27-1.66-5.42
			c0-2.11,0.55-3.96,1.64-5.55c1.09-1.58,2.61-2.8,4.54-3.65c1.94-0.85,4.17-1.27,6.71-1.27c2.68,0,5.06,0.48,7.16,1.43
			c2.1,0.95,3.73,2.28,4.91,3.99s1.77,3.69,1.77,5.95v0.79c0,0.18-0.06,0.32-0.18,0.45c-0.12,0.12-0.27,0.18-0.45,0.18h-6.08
			c-0.18,0-0.33-0.06-0.45-0.18c-0.12-0.12-0.18-0.27-0.18-0.45v-0.42c0-1.48-0.61-2.74-1.82-3.78c-1.22-1.04-2.88-1.56-4.99-1.56
			c-1.66,0-2.95,0.35-3.88,1.06s-1.4,1.67-1.4,2.91c0,0.88,0.27,1.62,0.82,2.22c0.55,0.6,1.36,1.14,2.43,1.61
			c1.07,0.48,2.74,1.12,4.99,1.93c2.5,0.92,4.47,1.73,5.89,2.43c1.43,0.71,2.71,1.75,3.86,3.14c1.14,1.39,1.72,3.2,1.72,5.42
			c0,3.31-1.21,5.93-3.65,7.85c-2.43,1.92-5.72,2.88-9.88,2.88C426.39,427.03,423.93,426.58,421.81,425.68z"/>
	</g>
	<g>
		<g>
			<path d="M319.68,170.95c-2.64,0-4.78,2.14-4.78,4.78v26.49h-10.79h-5.49h-14.86v-8.68h-19.41c-3.33-4.51-8.3-7.72-14.02-8.8
				l7.96-12.57l3.74-5.9l17.45-27.57c0.01-0.01,0.02-0.02,0.04-0.02h5.32h5.82h5.75c2.82,0,5.09-2.35,4.97-5.2
				c-0.12-2.71-2.57-4.75-5.29-4.75H285.5h-6.13h-5.32c-0.02,0-0.03,0.01-0.04,0.02l-24.59,38.84l-3.25,5.13
				c-0.02,0.03-0.06,0.03-0.08,0l-3.19-5.03l-24.61-38.8c-0.01-0.01-0.02-0.02-0.04-0.02h-5.47h-6.12h-10.94l0,0
				c-3.25,0-5.78,3.13-4.73,6.54c0.64,2.09,2.73,3.4,4.91,3.4h5.61h5.81h5.45c0.02,0,0.03,0.01,0.04,0.02l17.74,27.95l3.7,5.84
				l7.68,12.1c-5.73,1.08-10.71,4.29-14.05,8.81h-19.41v8.68H193.6h-5.49h-10.79v-26.49c0-2.64-2.14-4.78-4.78-4.78
				s-4.78,2.14-4.78,4.78v28.09v6.36v28.09c0,2.64,2.14,4.78,4.78,4.78s4.78-2.14,4.78-4.78v-26.49h10.79h5.49h14.86v8.68h19.41
				c4.13,5.59,10.75,9.23,18.24,9.23s14.11-3.64,18.24-9.23h19.41v-8.68h14.86h5.49h10.79v26.49c0,2.64,2.14,4.78,4.78,4.78
				c2.64,0,4.78-2.14,4.78-4.78v-28.09v-3.16v-0.04v-3.16v-28.09C324.46,173.09,322.32,170.95,319.68,170.95z M246.11,224.37
				c-9.58,0-17.38-7.79-17.38-17.37s7.8-17.37,17.38-17.37s17.38,7.79,17.38,17.37S255.69,224.37,246.11,224.37z"/>
			<path d="M246.11,191.63c-8.47,0-15.36,6.89-15.36,15.36s6.89,15.36,15.36,15.36s15.36-6.89,15.36-15.36
				S254.59,191.63,246.11,191.63z M247.71,206.94c-0.07,0.91-0.86,1.6-1.77,1.53c-0.18-0.01-0.34-0.07-0.5-0.14l-2.15,2.13
				l-1.29-1.54l2.48-1.75c-0.03-0.15-0.07-0.3-0.06-0.46c0.07-0.91,0.86-1.6,1.77-1.53c0.28,0.02,0.52,0.12,0.74,0.26l5.05-3.57
				l-4.39,4.34C247.68,206.44,247.73,206.68,247.71,206.94z M258.34,207.98c0,0.28-0.22,0.5-0.5,0.5h-1.45
				c-0.27,2.15-1.16,4.15-2.64,5.75l0.91,0.95c0.19,0.2,0.19,0.52-0.01,0.71c-0.1,0.09-0.22,0.14-0.35,0.14s-0.26-0.05-0.36-0.15
				l-1.6-1.66l0.35-0.35c1.81-1.78,2.81-4.17,2.81-6.71c0-5.19-4.22-9.41-9.41-9.41s-9.41,4.22-9.41,9.41
				c0,2.48,0.96,4.82,2.69,6.59l0.34,0.34l-1.53,1.66c-0.19,0.2-0.51,0.21-0.71,0.03c-0.2-0.19-0.22-0.51-0.03-0.71l0.89-0.97
				c-1.42-1.58-2.27-3.54-2.53-5.63h-1.4c-0.28,0-0.5-0.23-0.5-0.5s0.22-0.5,0.5-0.5h1.31c0-0.11-0.03-0.21-0.03-0.31
				c0-2.51,0.9-4.82,2.38-6.63l-1.07-1.05c-0.2-0.19-0.2-0.51-0.01-0.71c0.2-0.2,0.51-0.2,0.71-0.01l1.04,1.02
				c1.77-1.77,4.18-2.89,6.85-3.02v-1.35c0-0.28,0.22-0.5,0.5-0.5s0.5,0.23,0.5,0.5v1.35c2.65,0.13,5.05,1.24,6.82,3l1.01-0.99
				c0.2-0.19,0.52-0.19,0.71,0.01s0.19,0.52-0.01,0.71l-1.04,1.02c1.5,1.81,2.41,4.13,2.41,6.65c0,0.11-0.03,0.21-0.03,0.31h1.36
				C258.11,207.48,258.34,207.7,258.34,207.98z"/>
		</g>
		<g>
			<path d="M246.11,100.42L246.11,100.42c0,0,0.02,0,0.03,0C246.13,100.42,246.12,100.42,246.11,100.42z"/>
			<path d="M246.37,105.93c-0.09,0-0.17-0.01-0.26-0.01c-0.07,0-0.13,0.01-0.2,0.01c0.06,0,0.12,0,0.18,0
				C246.18,105.92,246.28,105.93,246.37,105.93z"/>
			<path d="M246.11,69.02c-7.35,0-13.34,5.98-13.34,13.34c0,7.35,5.98,13.34,13.34,13.34s13.34-5.98,13.34-13.34
				C259.45,75,253.47,69.02,246.11,69.02z M246.11,90.18c-4.31,0-7.82-3.51-7.82-7.83c0-4.31,3.51-7.82,7.82-7.82
				c4.31,0,7.83,3.51,7.83,7.82C253.94,86.67,250.43,90.18,246.11,90.18z"/>
			<path d="M266.63,76.14c1.47-0.4,2.34-1.91,1.94-3.38c-2.73-10.12-11.97-17.18-22.46-17.18c-10.53,0-19.77,7.1-22.48,17.26
				c-0.39,1.47,0.48,2.98,1.95,3.37c0.24,0.06,0.48,0.09,0.71,0.09c1.22,0,2.33-0.81,2.66-2.05c2.06-7.75,9.12-13.17,17.15-13.17
				c8,0,15.05,5.39,17.13,13.11C263.65,75.67,265.16,76.53,266.63,76.14z"/>
			<path d="M217.08,71.58c0.24,0.06,0.48,0.09,0.71,0.09c1.22,0,2.33-0.81,2.66-2.05c3.09-11.61,13.65-19.72,25.68-19.72
				c11.98,0,22.53,8.07,25.65,19.62c0.4,1.47,1.91,2.33,3.38,1.94c1.47-0.4,2.34-1.91,1.94-3.38c-3.77-13.95-16.51-23.7-30.97-23.7
				c-14.52,0-27.27,9.79-31,23.81C214.73,69.68,215.61,71.19,217.08,71.58z"/>
			<path d="M301.88,116.24c0.03-0.16,0.05-0.31,0.05-0.48V90.37h-10.89v-3.69h-25.56c-1.52,0-2.76,1.23-2.76,2.76
				c0,1.52,1.23,2.76,2.76,2.76h20.05v3.69h10.89v17.2c-14.98-8.06-32.1-12.65-50.28-12.66c-0.01,0-0.03,0-0.04,0s-0.01,0-0.02,0
				c-18.19,0-35.33,4.59-50.33,12.66v-17.2h10.89V92.2h20.05c1.52,0,2.76-1.23,2.76-2.76c0-1.52-1.23-2.76-2.76-2.76h-25.56v3.69
				h-10.89v25.39c0,0.16,0.02,0.32,0.05,0.48c-30.44,18.78-50.78,52.44-50.78,90.76c0,58.77,47.81,106.58,106.58,106.58
				S352.66,265.76,352.66,207C352.66,168.67,332.33,135.02,301.88,116.24z M172.27,275.94c7.95-5.8,15.95-10.67,23.97-14.62
				c6.52,20,16.52,35.74,28.45,44.46C204.24,301.35,186.07,290.71,172.27,275.94z M201.12,259.04
				c25.78-11.46,51.84-13.38,77.83-5.66c4.45,1.32,8.6,2.88,12.49,4.53c-9.15,29.83-26.04,49.91-45.33,49.91
				C227.06,307.82,210.35,288.25,201.12,259.04z M267.56,305.76c12.15-8.89,22.29-25.09,28.8-45.63
				c11.4,5.47,19.73,11.6,24.13,15.21C306.63,290.4,288.27,301.26,267.56,305.76z M324.12,271.17c-4.72-3.91-13.72-10.55-26.17-16.4
				c3.6-13.04,5.79-27.59,6.17-43h-5.49c-0.37,14.63-2.37,28.44-5.66,40.8c-3.81-1.59-7.86-3.09-12.21-4.39
				c-19.99-5.98-48.39-8.58-81.17,5.63c-3.48-12.67-5.61-26.92-5.99-42.04h-5.49c0.4,15.93,2.72,30.94,6.54,44.3
				c-8.43,4.04-17.13,9.22-26.04,15.74c-14.08-16.8-22.79-38.23-23.52-61.65h22.67v-6.36h-22.67c0.7-22.44,8.73-43.04,21.8-59.51
				c4.23,3.63,13.46,10.78,26.73,17.09c-3.23,12.47-5.17,26.27-5.51,40.82h5.49c0.33-13.75,2.09-26.79,5.01-38.58
				c3.98,1.68,8.22,3.27,12.79,4.64c6.72,2.01,14.39,3.63,22.85,4.36l-3.7-5.84c-5.78-0.77-11.56-2.01-17.34-3.72
				c-4.7-1.4-9.08-3.05-13.15-4.81c2.02-7.03,4.46-13.56,7.26-19.44h-5.81c-2.42,5.32-4.56,11.07-6.38,17.18
				c-12.25-5.97-20.83-12.64-24.69-15.93c13.89-15.69,32.57-27.04,53.73-31.74c-6.51,4.89-12.43,11.89-17.51,20.54h6.12
				c9.03-14.26,20.57-22.86,33.14-22.96c0.07,0,0.13-0.01,0.2-0.01c0.09,0,0.17,0.01,0.26,0.01c12.5,0.12,23.99,8.65,32.99,22.8
				h6.13c-5.05-8.57-10.94-15.51-17.4-20.37c20.88,4.65,39.34,15.77,53.16,31.14c-8.14,6.05-16.32,11.13-24.54,15.24
				c-1.75-5.7-3.78-11.08-6.06-16.07h-5.82c2.67,5.59,5.01,11.76,6.98,18.39c-9.9,4.47-19.83,7.55-29.79,9.2l-3.74,5.9
				c10.91-1.37,22.64-4.4,34.99-9.84c3.12,12.13,5.01,25.63,5.35,39.89h5.49c-0.36-15.09-2.43-29.36-5.88-42.2
				c8.6-4.18,17.48-9.57,26.56-16.34c13.35,16.57,21.58,37.41,22.28,60.13h-22.62v3.16c0,0.01,0,0.01,0,0.02s0,0.01,0,0.02v3.16
				h22.62C346.36,233.29,337.88,254.47,324.12,271.17z"/>
		</g>
	</g>
	<g>
		<path d="M135.13,449.74c-0.29,0.22-0.6,0.41-0.93,0.57c-0.33,0.16-0.69,0.28-1.07,0.37s-0.81,0.13-1.28,0.13
			c-0.74,0-1.43-0.14-2.06-0.41s-1.17-0.65-1.63-1.12c-0.46-0.48-0.82-1.04-1.08-1.68c-0.26-0.65-0.39-1.34-0.39-2.09
			c0-0.74,0.13-1.43,0.39-2.07c0.26-0.65,0.62-1.21,1.08-1.7c0.46-0.48,1.01-0.87,1.65-1.14c0.64-0.28,1.33-0.42,2.09-0.42
			c0.47,0,0.9,0.04,1.27,0.12c0.38,0.08,0.73,0.19,1.05,0.33c0.32,0.14,0.62,0.31,0.9,0.51s0.54,0.42,0.79,0.67l-0.79,0.85
			c-0.44-0.41-0.91-0.75-1.42-1.01c-0.5-0.26-1.11-0.4-1.81-0.4c-0.57,0-1.1,0.11-1.58,0.32c-0.48,0.22-0.91,0.51-1.26,0.9
			c-0.36,0.38-0.64,0.83-0.84,1.35c-0.2,0.51-0.3,1.07-0.3,1.67s0.1,1.16,0.3,1.68s0.48,0.97,0.84,1.35s0.78,0.68,1.26,0.9
			s1.01,0.33,1.58,0.33c0.71,0,1.31-0.13,1.82-0.39c0.51-0.26,1.01-0.62,1.5-1.09l0.76,0.75
			C135.7,449.27,135.42,449.52,135.13,449.74z"/>
		<path d="M148.23,447.51c-0.25,0.64-0.61,1.21-1.07,1.7c-0.46,0.49-1.01,0.88-1.66,1.17c-0.65,0.29-1.36,0.43-2.15,0.43
			c-0.78,0-1.5-0.14-2.14-0.43c-0.64-0.28-1.19-0.67-1.65-1.15c-0.46-0.48-0.82-1.05-1.07-1.69s-0.38-1.32-0.38-2.03
			c0-0.72,0.13-1.39,0.38-2.04c0.25-0.64,0.61-1.21,1.07-1.7c0.46-0.49,1.01-0.88,1.66-1.17c0.65-0.29,1.36-0.43,2.15-0.43
			c0.78,0,1.5,0.14,2.14,0.43c0.64,0.28,1.19,0.67,1.65,1.15c0.46,0.48,0.82,1.05,1.06,1.69c0.25,0.64,0.38,1.32,0.38,2.03
			C148.62,446.19,148.49,446.87,148.23,447.51z M147.11,443.84c-0.2-0.52-0.48-0.97-0.84-1.35s-0.79-0.69-1.29-0.91
			s-1.04-0.34-1.62-0.34c-0.59,0-1.13,0.11-1.62,0.33c-0.5,0.22-0.92,0.52-1.27,0.9s-0.63,0.83-0.83,1.35
			c-0.2,0.51-0.3,1.07-0.3,1.65c0,0.59,0.1,1.14,0.3,1.66s0.48,0.97,0.85,1.35c0.36,0.38,0.79,0.69,1.28,0.91
			c0.5,0.22,1.04,0.34,1.63,0.34c0.59,0,1.13-0.11,1.62-0.33c0.5-0.22,0.92-0.52,1.27-0.9s0.63-0.83,0.83-1.35
			c0.2-0.51,0.3-1.07,0.3-1.65C147.41,444.91,147.31,444.36,147.11,443.84z"/>
		<path d="M159.52,440.34h1.13v10.29h-0.93l-6.64-8.44v8.44h-1.13v-10.29h1.09l6.48,8.25V440.34z"/>
		<path d="M168.32,450.63h-1.16v-9.22h-3.45v-1.07h8.07v1.07h-3.46L168.32,450.63L168.32,450.63z"/>
		<path d="M181.93,450.63l-2.98-4h-2.94v4h-1.16v-10.29h4.42c0.57,0,1.08,0.07,1.54,0.22c0.46,0.15,0.84,0.36,1.17,0.63
			c0.32,0.27,0.57,0.59,0.75,0.97s0.26,0.8,0.26,1.26c0,0.43-0.07,0.82-0.2,1.16c-0.14,0.34-0.33,0.63-0.58,0.88
			s-0.55,0.46-0.89,0.63s-0.71,0.28-1.12,0.35l3.16,4.2h-1.43V450.63z M181.14,441.95c-0.46-0.36-1.11-0.54-1.94-0.54h-3.18v4.19
			h3.17c0.38,0,0.74-0.05,1.06-0.15c0.32-0.1,0.6-0.24,0.84-0.42c0.24-0.18,0.42-0.41,0.55-0.67c0.13-0.27,0.2-0.57,0.2-0.9
			C181.83,442.82,181.6,442.31,181.14,441.95z"/>
		<path d="M196.01,447.51c-0.25,0.64-0.61,1.21-1.07,1.7c-0.46,0.49-1.02,0.88-1.66,1.17c-0.65,0.29-1.36,0.43-2.15,0.43
			c-0.78,0-1.5-0.14-2.14-0.43c-0.64-0.28-1.19-0.67-1.65-1.15c-0.46-0.48-0.81-1.05-1.07-1.69c-0.25-0.64-0.37-1.32-0.37-2.03
			c0-0.72,0.13-1.39,0.38-2.04c0.25-0.64,0.61-1.21,1.07-1.7c0.46-0.49,1.02-0.88,1.66-1.17c0.65-0.29,1.36-0.43,2.15-0.43
			c0.78,0,1.5,0.14,2.14,0.43c0.64,0.28,1.19,0.67,1.65,1.15c0.46,0.48,0.81,1.05,1.07,1.69c0.25,0.64,0.37,1.32,0.37,2.03
			C196.39,446.19,196.27,446.87,196.01,447.51z M194.89,443.84c-0.2-0.52-0.48-0.97-0.84-1.35s-0.79-0.69-1.29-0.91
			c-0.49-0.22-1.04-0.34-1.62-0.34s-1.13,0.11-1.63,0.33c-0.49,0.22-0.92,0.52-1.27,0.9s-0.63,0.83-0.83,1.35
			c-0.2,0.51-0.3,1.07-0.3,1.65c0,0.59,0.1,1.14,0.3,1.66s0.48,0.97,0.84,1.35s0.79,0.69,1.29,0.91s1.04,0.34,1.62,0.34
			c0.59,0,1.13-0.11,1.63-0.33c0.49-0.22,0.92-0.52,1.27-0.9s0.63-0.83,0.83-1.35c0.2-0.51,0.3-1.07,0.3-1.65
			C195.19,444.91,195.09,444.36,194.89,443.84z"/>
		<path d="M199.73,440.34h1.16v9.22h5.79v1.07h-6.95V440.34z"/>
		<path d="M217.15,441.4h-6.28v3.51h5.61v1.06h-5.61v3.6h6.35v1.06h-7.51v-10.29h7.44L217.15,441.4L217.15,441.4z"/>
		<path d="M221.45,443.57c0.08,0.2,0.22,0.38,0.43,0.54c0.2,0.16,0.49,0.31,0.85,0.44s0.83,0.26,1.4,0.37
			c1.15,0.25,1.99,0.61,2.53,1.06c0.55,0.45,0.82,1.07,0.82,1.87c0,0.44-0.09,0.84-0.26,1.21c-0.18,0.36-0.42,0.67-0.72,0.93
			c-0.3,0.25-0.67,0.45-1.11,0.59c-0.43,0.14-0.9,0.21-1.41,0.21c-0.83,0-1.58-0.13-2.26-0.4s-1.33-0.68-1.95-1.23l0.72-0.85
			c0.54,0.49,1.08,0.86,1.63,1.1c0.55,0.24,1.18,0.36,1.9,0.36c0.7,0,1.25-0.16,1.67-0.48s0.62-0.75,0.62-1.28
			c0-0.25-0.04-0.46-0.12-0.65s-0.22-0.37-0.41-0.52c-0.2-0.16-0.47-0.3-0.82-0.43s-0.79-0.25-1.33-0.37
			c-0.59-0.13-1.1-0.27-1.54-0.44c-0.44-0.17-0.8-0.37-1.08-0.6c-0.29-0.24-0.5-0.51-0.64-0.83c-0.14-0.31-0.2-0.69-0.2-1.12
			c0-0.41,0.08-0.79,0.25-1.13s0.4-0.64,0.71-0.89c0.3-0.25,0.66-0.45,1.07-0.59c0.41-0.14,0.86-0.21,1.35-0.21
			c0.75,0,1.41,0.1,1.98,0.31s1.11,0.52,1.64,0.94l-0.68,0.9c-0.48-0.39-0.96-0.67-1.45-0.85c-0.48-0.18-0.99-0.26-1.52-0.26
			c-0.33,0-0.64,0.04-0.9,0.13c-0.27,0.09-0.5,0.21-0.69,0.35c-0.19,0.15-0.34,0.32-0.44,0.53s-0.15,0.43-0.15,0.66
			C221.33,443.15,221.37,443.37,221.45,443.57z"/>
		<path d="M243.76,440.34h1.25l-4.42,10.36h-1.03l-4.42-10.36h1.3l3.66,8.86L243.76,440.34z"/>
		<path d="M256.97,447.51c-0.25,0.64-0.61,1.21-1.07,1.7c-0.46,0.49-1.01,0.88-1.66,1.17c-0.65,0.29-1.36,0.43-2.15,0.43
			c-0.78,0-1.5-0.14-2.14-0.43c-0.64-0.28-1.19-0.67-1.65-1.15c-0.46-0.48-0.82-1.05-1.07-1.69s-0.37-1.32-0.37-2.03
			c0-0.72,0.13-1.39,0.38-2.04c0.25-0.64,0.61-1.21,1.07-1.7c0.46-0.49,1.01-0.88,1.66-1.17c0.65-0.29,1.36-0.43,2.15-0.43
			c0.78,0,1.5,0.14,2.14,0.43c0.64,0.28,1.19,0.67,1.65,1.15c0.46,0.48,0.82,1.05,1.07,1.69s0.37,1.32,0.37,2.03
			C257.36,446.19,257.23,446.87,256.97,447.51z M255.85,443.84c-0.2-0.52-0.48-0.97-0.85-1.35c-0.36-0.38-0.79-0.69-1.28-0.91
			c-0.5-0.22-1.04-0.34-1.63-0.34s-1.13,0.11-1.62,0.33c-0.49,0.22-0.92,0.52-1.27,0.9s-0.63,0.83-0.83,1.35
			c-0.2,0.51-0.3,1.07-0.3,1.65c0,0.59,0.1,1.14,0.3,1.66s0.48,0.97,0.84,1.35s0.79,0.69,1.29,0.91s1.04,0.34,1.62,0.34
			c0.59,0,1.13-0.11,1.62-0.33c0.5-0.22,0.92-0.52,1.27-0.9s0.63-0.83,0.83-1.35c0.2-0.51,0.3-1.07,0.3-1.65
			C256.15,444.91,256.05,444.36,255.85,443.84z"/>
		<path d="M260.69,440.34h1.16v9.22h5.79v1.07h-6.95V440.34z"/>
		<path d="M278.78,446.24c0,0.76-0.1,1.42-0.31,1.98c-0.21,0.57-0.5,1.04-0.88,1.43s-0.83,0.67-1.35,0.86
			c-0.52,0.19-1.11,0.29-1.75,0.29s-1.22-0.1-1.74-0.29s-0.97-0.48-1.35-0.85c-0.38-0.38-0.67-0.84-0.88-1.4s-0.31-1.2-0.31-1.93
			v-5.98h1.16v5.91c0,1.12,0.28,1.97,0.83,2.57s1.32,0.9,2.31,0.9c0.95,0,1.7-0.28,2.26-0.85s0.84-1.42,0.84-2.54v-5.98h1.16v5.88
			H278.78z"/>
		<path d="M287.35,447.81h-0.06l-3.75-5.5v8.32h-1.13v-10.29h1.18l3.75,5.62l3.75-5.62h1.18v10.29h-1.16v-8.33L287.35,447.81z"/>
		<path d="M303.49,441.4h-6.28v3.51h5.62v1.06h-5.62v3.6h6.35v1.06h-7.51v-10.29h7.44V441.4z M298.96,439.43l1.4-2.13l1.17,0.54
			l-1.66,1.59H298.96z"/>
		<path d="M310.66,450.63h-1.16v-9.22h-3.45v-1.07h8.07v1.07h-3.45L310.66,450.63L310.66,450.63z"/>
		<path d="M324.27,450.63l-2.99-4h-2.94v4h-1.16v-10.29h4.42c0.57,0,1.08,0.07,1.54,0.22c0.46,0.15,0.84,0.36,1.17,0.63
			c0.32,0.27,0.57,0.59,0.75,0.97s0.27,0.8,0.27,1.26c0,0.43-0.07,0.82-0.21,1.16c-0.14,0.34-0.33,0.63-0.58,0.88
			s-0.55,0.46-0.89,0.63c-0.34,0.17-0.72,0.28-1.12,0.35l3.16,4.2h-1.42V450.63z M323.47,441.95c-0.46-0.36-1.11-0.54-1.94-0.54
			h-3.18v4.19h3.17c0.38,0,0.74-0.05,1.06-0.15s0.6-0.24,0.84-0.42c0.23-0.18,0.42-0.41,0.55-0.67c0.13-0.27,0.2-0.57,0.2-0.9
			C324.17,442.82,323.94,442.31,323.47,441.95z"/>
		<path d="M329.96,440.34v10.29h-1.16v-10.29H329.96z"/>
		<path d="M341.84,449.74c-0.29,0.22-0.6,0.41-0.93,0.57s-0.69,0.28-1.07,0.37s-0.81,0.13-1.28,0.13c-0.74,0-1.43-0.14-2.06-0.41
			s-1.17-0.65-1.63-1.12c-0.46-0.48-0.82-1.04-1.08-1.68c-0.26-0.65-0.39-1.34-0.39-2.09c0-0.74,0.13-1.43,0.39-2.07
			c0.26-0.65,0.62-1.21,1.08-1.7c0.46-0.48,1.01-0.87,1.65-1.14c0.64-0.28,1.33-0.42,2.09-0.42c0.47,0,0.9,0.04,1.27,0.12
			c0.38,0.08,0.73,0.19,1.05,0.33c0.32,0.14,0.62,0.31,0.9,0.51s0.54,0.42,0.79,0.67l-0.79,0.85c-0.44-0.41-0.91-0.75-1.42-1.01
			c-0.5-0.26-1.11-0.4-1.81-0.4c-0.57,0-1.1,0.11-1.58,0.32c-0.48,0.22-0.91,0.51-1.26,0.9c-0.36,0.38-0.64,0.83-0.84,1.35
			c-0.2,0.51-0.3,1.07-0.3,1.67s0.1,1.16,0.3,1.68c0.2,0.52,0.48,0.97,0.84,1.35s0.78,0.68,1.26,0.9s1.01,0.33,1.58,0.33
			c0.71,0,1.31-0.13,1.82-0.39s1.01-0.62,1.5-1.09l0.76,0.75C342.41,449.27,342.13,449.52,341.84,449.74z"/>
		<path d="M354.94,447.51c-0.25,0.64-0.61,1.21-1.07,1.7c-0.46,0.49-1.01,0.88-1.66,1.17s-1.36,0.43-2.15,0.43
			c-0.78,0-1.5-0.14-2.14-0.43c-0.64-0.28-1.19-0.67-1.65-1.15c-0.46-0.48-0.82-1.05-1.07-1.69s-0.37-1.32-0.37-2.03
			c0-0.72,0.13-1.39,0.38-2.04c0.25-0.64,0.61-1.21,1.07-1.7s1.01-0.88,1.66-1.17s1.36-0.43,2.15-0.43s1.5,0.14,2.14,0.43
			c0.64,0.28,1.19,0.67,1.65,1.15c0.46,0.48,0.82,1.05,1.07,1.69s0.37,1.32,0.37,2.03C355.32,446.19,355.2,446.87,354.94,447.51z
			 M353.82,443.84c-0.2-0.52-0.48-0.97-0.85-1.35c-0.36-0.38-0.79-0.69-1.28-0.91c-0.5-0.22-1.04-0.34-1.63-0.34
			s-1.13,0.11-1.62,0.33s-0.92,0.52-1.27,0.9c-0.35,0.38-0.63,0.83-0.83,1.35c-0.2,0.51-0.3,1.07-0.3,1.65c0,0.59,0.1,1.14,0.3,1.66
			c0.2,0.52,0.48,0.97,0.84,1.35s0.79,0.69,1.29,0.91s1.04,0.34,1.62,0.34c0.59,0,1.13-0.11,1.62-0.33s0.92-0.52,1.27-0.9
			c0.35-0.38,0.63-0.83,0.83-1.35c0.2-0.51,0.3-1.07,0.3-1.65C354.12,444.91,354.02,444.36,353.82,443.84z"/>
		<path d="M359.6,443.57c0.08,0.2,0.22,0.38,0.43,0.54s0.49,0.31,0.85,0.44c0.36,0.13,0.83,0.26,1.4,0.37
			c1.14,0.25,1.99,0.61,2.53,1.06s0.82,1.07,0.82,1.87c0,0.44-0.09,0.84-0.26,1.21c-0.17,0.36-0.41,0.67-0.72,0.93
			c-0.3,0.25-0.67,0.45-1.11,0.59c-0.43,0.14-0.9,0.21-1.41,0.21c-0.82,0-1.58-0.13-2.26-0.4c-0.68-0.27-1.33-0.68-1.95-1.23
			l0.72-0.85c0.54,0.49,1.08,0.86,1.63,1.1c0.55,0.24,1.18,0.36,1.89,0.36c0.7,0,1.25-0.16,1.67-0.48s0.62-0.75,0.62-1.28
			c0-0.25-0.04-0.46-0.12-0.65s-0.22-0.37-0.41-0.52c-0.2-0.16-0.47-0.3-0.82-0.43s-0.79-0.25-1.33-0.37
			c-0.59-0.13-1.1-0.27-1.54-0.44s-0.8-0.37-1.08-0.6s-0.5-0.51-0.63-0.83c-0.14-0.31-0.21-0.69-0.21-1.12
			c0-0.41,0.08-0.79,0.25-1.13s0.4-0.64,0.7-0.89c0.3-0.25,0.66-0.45,1.07-0.59c0.41-0.14,0.86-0.21,1.35-0.21
			c0.75,0,1.41,0.1,1.98,0.31s1.11,0.52,1.64,0.94l-0.68,0.9c-0.48-0.39-0.96-0.67-1.45-0.85c-0.48-0.18-0.99-0.26-1.52-0.26
			c-0.33,0-0.64,0.04-0.9,0.13c-0.27,0.09-0.5,0.21-0.69,0.35c-0.19,0.15-0.34,0.32-0.44,0.53s-0.15,0.43-0.15,0.66
			C359.48,443.15,359.52,443.37,359.6,443.57z"/>
	</g>
</g>
</svg>
