<svg xmlns="http://www.w3.org/2000/svg" viewBox="0 0 512 430.39"><defs><style>.cls-1{fill:#fff;}</style></defs><title>Recurso 3</title><g id="Capa_2" data-name="Capa 2"><g id="Layer_1" data-name="Layer 1"><path class="cls-1" d="M174.55,0C78.14,0,0,62.06,0,138.62c0,54.67,39.85,101.94,97.73,124.5a86.5,86.5,0,0,1-24,74.18c38.41,0,70.87-25.65,81.54-60.9q9.48.83,19.23.84c96.39,0,174.54-62.06,174.54-138.62S270.94,0,174.55,0Z"/><path class="cls-1" d="M512,231.71c0-69.17-63.8-126.51-147.22-136.92a134.64,134.64,0,0,1,7.31,43.83,136.43,136.43,0,0,1-16.42,64.77c-10.28,19.31-24.88,36.56-43.4,51.26-34.39,27.32-79,43.22-126.74,45.34,30,42,86.79,70.35,151.92,70.35,6.5,0,12.91-.3,19.23-.84,10.67,35.24,43.13,60.89,81.54,60.89a86.5,86.5,0,0,1-24-74.18C472.15,333.65,512,286.38,512,231.71Z"/></g></g></svg>