<svg xmlns="http://www.w3.org/2000/svg" xmlns:xlink="http://www.w3.org/1999/xlink" viewBox="0 0 189.15 46.95"><defs><style>.cls-1{fill:none;}.cls-2{clip-path:url(#clip-path);}.cls-3{clip-path:url(#clip-path-2);}.cls-4{fill:#002d74;}.cls-5{fill:#a2a9ad;}</style><clipPath id="clip-path" transform="translate(0 0)"><rect class="cls-1" width="189.15" height="46.95"/></clipPath><clipPath id="clip-path-2" transform="translate(0 0)"><polyline class="cls-1" points="0 0 0 46.95 189.15 46.95 189.15 0"/></clipPath></defs><title>coopertires</title><g id="Capa_2" data-name="Capa 2"><g id="Capa_1-2" data-name="Capa 1"><g class="cls-2"><g class="cls-3"><path class="cls-4" d="M74.85,14.49a2.92,2.92,0,0,0,.42,2.77c2.46,3.53,12,6,23.71,6.19a63.29,63.29,0,0,0,20.85-2.17,29,29,0,0,0,5.65-2.43h0c.11-.07.36-.24.26-.42s-.24,0-.3,0l-.14.07c-4.44,2.15-11.85,3.18-20.32,2.82a66.28,66.28,0,0,1-6.78-.63c-1-.14-1.89-.3-2.71-.49-5.36-1.12-9-2.94-9.95-5a2.43,2.43,0,0,1,.06-2.28c1.74-3.29,9.47-6,18.39-6.52,1.79-.14,3.73-.2,5.77-.17.15,0,.17-.08.17-.13s0-.07-.12-.09l-2.32-.09c-15.3-.39-30.86,3.69-32.64,8.55" transform="translate(0 0)"/><path class="cls-5" d="M92.63,0c-21,.44-36.26,5.43-37,12.13-.53,4.55,6,8.89,17.91,11.92A58.14,58.14,0,0,0,86.18,26c.35,0,.42-.16.42-.27s-.15-.22-.47-.29a50.4,50.4,0,0,1-7-1.42c-7.82-2.15-12.08-5.42-11.67-9,.59-5.07,11-10.62,29.66-11.42,17.58-.77,29.54,3.36,32.27,7.83a4.11,4.11,0,0,1,.4,3.65c-.89,2.56-4.14,5.06-8.93,6.86a72.48,72.48,0,0,1-14.64,3.22c-.2,0-.32.09-.36.16l0,.11c0,.08.09.18.32.18a69.11,69.11,0,0,0,15.59-3.28c5.15-2,8.56-4.61,9.59-7.45a4.88,4.88,0,0,0-.36-4.24h0C127.94,5.16,113.44-.41,92.63,0" transform="translate(0 0)"/><path class="cls-5" d="M123.09,35H112.18a.14.14,0,0,0-.12.09l-.81,2.53a.13.13,0,0,0,0,.12.16.16,0,0,0,.11,0h5.46l-2.85,9v0a.11.11,0,0,0,0,.08.12.12,0,0,0,.1.05h4.64a.11.11,0,0,0,.12-.09s2.82-8.87,2.88-9h5.17a.12.12,0,0,0,.12-.09l.79-2.53s0,0,0,0a.13.13,0,0,0,0-.08.12.12,0,0,0-.1,0h-4.61" transform="translate(0 0)"/><path class="cls-4" d="M19.9,35H5.84a4.06,4.06,0,0,0-3.75,2.47l-2,6.35a1.79,1.79,0,0,0,.39,1.58c.73,1.06,2.29,1.53,5,1.53H15.6a.11.11,0,0,0,.11-.06l1.37-2.59a.13.13,0,0,0-.11-.17H5.07l1.42-4.44.43-1.36a2.26,2.26,0,0,1,1.71-.48h9.88a.12.12,0,0,0,.11-.07L20,35.19a.13.13,0,0,0,0-.12A.11.11,0,0,0,19.9,35" transform="translate(0 0)"/></g><path class="cls-4" d="M37.05,36.85a3.86,3.86,0,0,0-2.63-1.59,8.34,8.34,0,0,0-2-.22H24.2a4,4,0,0,0-4,2.65l-2,6.15a.43.43,0,0,1,0,.05,2,2,0,0,0,.43,1.45c.77,1.11,2.36,1.62,5,1.62h6c3.23,0,4.9-.7,5.43-2.28l2.11-6.61a1.91,1.91,0,0,0-.1-1.21m-6.62,6.78c-.05.14-.45.51-1.71.51h-5.6c.08-.26,1.41-4.38,1.41-4.38L25,38.34c.07-.09.41-.46,1.68-.47l4.62,0h1C31.94,38.93,30.49,43.47,30.43,43.63Z" transform="translate(0 0)"/><path class="cls-4" d="M73.55,36.59c-.69-.92-2.35-1.52-4.23-1.54l-8.16,0c-1.52,0-3.47.39-4.13,2.22l0,0c-.11.3-2,6.28-2.09,6.53l-1,3a.15.15,0,0,0,0,.11.12.12,0,0,0,.1,0h4.67a.13.13,0,0,0,.12-.08l1.48-4.64h9.76c1.66,0,2.48-.38,2.81-1.33l.09-.28.81-2.55a1.67,1.67,0,0,0-.28-1.49M68.9,38.13l-.24.73c-.15.5-.53.51-1.22.51H61.28l.3-.87.06-.19c.06-.19.21-.44.83-.44.05,0,5.24,0,5.77,0s.62.12.65.16A.09.09,0,0,1,68.9,38.13Z" transform="translate(0 0)"/><path class="cls-4" d="M75.12,37.49l0,0c0,.06-1.79,5.65-1.87,5.85a1.9,1.9,0,0,0,.21,1.85,5.44,5.44,0,0,0,4.11,1.7h11a.11.11,0,0,0,.11-.06L90,44.36a.13.13,0,0,0-.11-.17l-5.63,0-6.27,0c.08-.24.61-1.85.65-2l8.66,0a.11.11,0,0,0,.11-.08l.82-2.55v0a.1.1,0,0,0,0-.07.12.12,0,0,0-.1,0l-8.53,0,.24-.64,0-.12c.19-.58,1.07-.6,1.34-.59l10.13,0a.14.14,0,0,0,.11-.06L93,35.23a.13.13,0,0,0,0-.12.11.11,0,0,0-.1-.06l-13,0c-1.53-.08-3.72.1-4.82,2.46" transform="translate(0 0)"/><path class="cls-5" d="M129.18,35a.14.14,0,0,0-.12.09l-3.73,11.68a.15.15,0,0,0,0,.11.16.16,0,0,0,.11,0h4.64a.14.14,0,0,0,.12-.09l3.71-11.66a.11.11,0,0,0,0-.12.12.12,0,0,0-.1,0h-4.63" transform="translate(0 0)"/><g class="cls-3"><path class="cls-4" d="M55.44,36.85h0a3.82,3.82,0,0,0-2.62-1.59,8.34,8.34,0,0,0-2-.22H42.59a4,4,0,0,0-4,2.65l-2,6.15s0,.05,0,.05A2,2,0,0,0,37,45.33c.77,1.11,2.35,1.62,5,1.62h6c3.23,0,4.91-.7,5.44-2.28l2.11-6.61a1.87,1.87,0,0,0-.11-1.21m-6.62,6.78c0,.14-.44.51-1.7.51H41.51c.09-.26,1.41-4.36,1.41-4.36l.46-1.43c.06-.09.41-.46,1.67-.47l4.63,0h1C50.31,39,48.88,43.47,48.82,43.63Z" transform="translate(0 0)"/><path class="cls-4" d="M110,36.55c-.69-.92-2.35-1.52-4.22-1.54H94.27a.13.13,0,0,0-.12.08L91.4,43.78s0,0-1,3a.09.09,0,0,0,0,.1.11.11,0,0,0,.1,0h4.67a.12.12,0,0,0,.12-.08l1.49-4.6h.47l4.31,0c.11.31.5,1.3,1.85,4.68a.11.11,0,0,0,.11.07h4.47a.12.12,0,0,0,.1,0,.14.14,0,0,0,0-.07v0l-1.42-4.59c1.56,0,2.34-.41,2.66-1.32l.07-.23.82-2.6a1.59,1.59,0,0,0,.07-.48,1.67,1.67,0,0,0-.35-1m-4.65,1.54-.23.73c-.16.5-.53.51-1.23.51H97.76c.07-.23.29-.86.29-.86l.06-.2c.07-.19.22-.44.83-.44.06,0,5.25,0,5.78,0s.62.12.65.16A.15.15,0,0,1,105.37,38.09Z" transform="translate(0 0)"/><path class="cls-5" d="M151.27,36.55c-.69-.92-2.35-1.52-4.23-1.54H135.52a.12.12,0,0,0-.12.08l-2.76,8.68-.95,3a.12.12,0,0,0,0,.1.1.1,0,0,0,.1,0h4.67a.12.12,0,0,0,.12-.08l1.48-4.6h.47l4.31,0c.11.31.51,1.3,1.85,4.68a.14.14,0,0,0,.12.07h4.47a.14.14,0,0,0,.1,0,.14.14,0,0,0,0-.07.08.08,0,0,0,0,0L148,42.19c1.55,0,2.33-.41,2.65-1.32,0,0,.09-.28.09-.28l.8-2.55a1.61,1.61,0,0,0,.08-.48,1.67,1.67,0,0,0-.35-1m-8.43,5.6a.14.14,0,0,1,0-.07v0l0,.09Zm3.77-4.06-.23.73c-.16.5-.53.51-1.23.51H139l.3-.88.06-.18c.06-.19.21-.44.83-.44.05,0,5.24,0,5.77,0s.63.12.65.16S146.64,38,146.61,38.09Z" transform="translate(0 0)"/></g><path class="cls-5" d="M153.3,37.49l0,0c0,.06-1.79,5.65-1.86,5.85a1.9,1.9,0,0,0,.21,1.85c.77,1.11,2.69,1.7,4.11,1.7h11a.13.13,0,0,0,.11-.06l1.3-2.53a.11.11,0,0,0,0-.11.11.11,0,0,0-.1-.06l-5.63,0-6.28,0c.08-.23.61-1.85.66-2l8.65,0a.13.13,0,0,0,.12-.08l.81-2.55a.06.06,0,0,0,0,0,.19.19,0,0,0,0-.07.14.14,0,0,0-.1,0l-8.53,0,.23-.63,0-.13c.18-.58,1.07-.6,1.33-.59l10.14,0a.11.11,0,0,0,.1-.06l1.56-2.79a.13.13,0,0,0,0-.12.14.14,0,0,0-.11-.06l-12.94,0c-1.54-.08-3.72.1-4.82,2.46" transform="translate(0 0)"/><g class="cls-3"><path class="cls-5" d="M181.41,46.92l-12.82,0a.12.12,0,0,1-.1-.05.13.13,0,0,1,0-.12l1.31-2.53s.06-.06,0-.06l11.66,0" transform="translate(0 0)"/><path class="cls-5" d="M181.38,46.92a8,8,0,0,0,3.15-.67c1.27-.72,1.44-1,1.72-1.91l1-3a1.35,1.35,0,0,0-.11-1.21,2.41,2.41,0,0,0-2.1-.73h-9.63l.3-1a1,1,0,0,1,1.05-.73c.75,0,4.57,0,4.61,0h6.39a.11.11,0,0,0,.11-.06l1.31-2.53a.17.17,0,0,0,0-.12.12.12,0,0,0-.1-.05l-12.91,0c-.16,0-4,0-4.83,2.53l-.8,2.52c0,.12-.37,1.21.15,1.6a3,3,0,0,0,2,.48h9.52c-.08.27-.68,2.15-.68,2.15" transform="translate(0 0)"/></g></g></g></g></svg>