<svg xmlns="http://www.w3.org/2000/svg" viewBox="0 0 281.73 43.19"><defs><style>.cls-1{fill:#004187;}.cls-2{fill:#e60012;}</style></defs><title>goodrich</title><g id="Capa_2" data-name="Capa 2"><g id="Capa_1-2" data-name="Capa 1"><path class="cls-1" d="M278.48,2.48v-.9h.86c.36,0,.77,0,.77.45,0,.55-.68.45-1.09.45h-.54m1,.32c.5,0,.9-.22.9-.81s-.27-.77-1-.77h-1.26V4.11h.32V2.8h.67l.82,1.31h.4Zm-.41,2.49a2.63,2.63,0,0,0,2.62-2.67,2.64,2.64,0,0,0-5.28,0,2.67,2.67,0,0,0,2.66,2.67m0-.32a2.33,2.33,0,1,1,2.31-2.35A2.3,2.3,0,0,1,279.11,5"/><path class="cls-1" d="M180.94,19c-1.26,4.83-2.57,5.56-6.14,5.56s-4.39-.32-3-5.56c1.08-4.25,1.54-5.6,5.92-5.6,4.61,0,4.33,1.44,3.25,5.6M186.05.5l-3,10.89h-.36c-.68-2.76-3.48-3.3-6.69-3.3-7.27,0-10.75,2.62-12.47,9.12l-1.26,4.88c-1.49,5.69,1.58,7.86,8,7.86,3.8,0,6.78-.72,8.63-4H179l-1,3.88h8.85L194.81.45h-8.76Z"/><polygon class="cls-1" points="219.12 29.86 210.13 29.86 215.95 8.13 224.9 8.13 219.12 29.86"/><polygon class="cls-1" points="225.49 5.83 216.59 5.83 217.99 0.45 226.98 0.45 225.49 5.83"/><path class="cls-1" d="M249.21,21.14c-1,4-2.49,6.19-4.84,7.37S238.77,30,234.07,30C223.77,30,222,27.47,224.18,19c1.89-7.27,4.69-11,15.54-11,7.63,0,12.69.63,10.71,8.27h-8.68c.36-1.13.36-1.85-.13-2.3s-1.5-.64-3.3-.64c-3.07,0-4.2.73-5.47,5.61s-.72,5.55,2.58,5.55c3.93,0,4.38-.77,5.06-3.43h8.72"/><path class="cls-1" d="M95.42,9.58c.86-3-2.35-2.94-5.24-2.94-7,0-7.68,1.72-9,6.46l-1.31,4.79c-1.4,5.2.68,5.74,5.78,5.74s6.55-.91,7.64-5H86.47l1.45-5.42h16.71l-1.4,5.15c-2.66,9.89-6.28,11.7-19.33,11.7-11.52,0-17-1.58-14.37-11.07l2-7.59C74.18,1.72,81.23.27,91.94.27c9.44,0,16.17,0,13.42,9.35H95.42"/><path class="cls-1" d="M262.35,12.29h.23C264.7,8.9,267.59,8,271.7,8c5.88,0,8,2.26,6.78,6.82l-4,15h-8.63l3.52-13.33c.5-2.08.05-3.12-2.8-3.12-3.89,0-5.06,1.9-5.74,4.48l-3.16,12h-8.59l8-29.41h8.63l-3.35,11.88"/><path class="cls-1" d="M123.16,19c-1.22,4.65-1.86,5.56-5.92,5.56S112.77,23.67,114,19s1.94-5.6,6.14-5.6,4.25.95,3,5.6M121.39,8.09c-11.11,0-13.82,2.21-16.12,11C103.05,27.65,104.81,30,115.7,30c11.21,0,13.87-2.12,16.18-10.93,2.35-9.09.67-11-10.49-11"/><path class="cls-1" d="M152,19c-1.22,4.65-1.86,5.56-5.92,5.56s-4.47-.91-3.3-5.56,2-5.6,6.14-5.6,4.3.95,3.08,5.6M150.26,8.09c-11.06,0-13.82,2.21-16.12,11C131.92,27.65,133.68,30,144.57,30s13.87-2.12,16.18-10.93c2.34-9.09.67-11-10.49-11"/><path class="cls-2" d="M30.09,9.44c-.63,2.35-1.58,2.8-5,2.8H18l1.44-5.33h8.22c2.72.09,2.85.77,2.4,2.53m-2.4,11c-.63,2.39-2.12,3-5.28,3H15l1.54-5.74h7.59c3.12,0,4.16.36,3.52,2.76m3-20H11.48l-8,29.41H23c7.77,0,12.2-1,14.14-8.18,1-3.7.77-6.32-4.56-6.6l.09-.31c5-.63,6.6-3,7.59-6.78C42,1.63,38,.5,30.68.5"/><polygon class="cls-2" points="52.45 12.65 67.36 12.65 65.64 19.07 50.78 19.07 47.89 29.91 38.09 29.91 46.04 0.5 71.92 0.5 70.21 6.87 54.03 6.87 52.45 12.65"/><path class="cls-1" d="M202.22,17l-3.39,12.88h-8.94l5.82-21.69h8.63l-1,3.53s2.26-3.53,7.91-3.53h2.62l-1.49,5.47h-5.87A4.19,4.19,0,0,0,202.22,17"/><polygon class="cls-1" points="245.41 42.97 247.22 36.37 1.76 36.37 0 42.97 245.41 42.97"/><polygon class="cls-1" points="251.1 34.29 248.44 34.29 248.71 33.39 254.94 33.39 254.67 34.29 252.05 34.29 249.61 43.05 248.66 43.05 251.1 34.29"/><path class="cls-1" d="M255.76,33.39h.85l-.31,1.13h-.86Zm-.82,2.84h.86l-1.9,6.83h-.85Z"/><path class="cls-1" d="M257.47,36.23h.86l-.22.82h0A2.1,2.1,0,0,1,260,36.1c1.09,0,1.45.45,1.09,1.85l-.14.54h-.77c.37-1.26.32-1.58-.67-1.58a1.62,1.62,0,0,0-1.68,1.4l-1.31,4.75h-.85l1.8-6.83"/><path class="cls-1" d="M266.19,39.85l.27-1c.5-1.85.41-2.71-1.62-2.71s-2.71.68-3.53,3.53-.67,3.52,1.54,3.52c2,0,2.53-.54,2.89-1.9l.09-.27H265c-.36,1.36-.67,1.36-2,1.36-1.17,0-1.31-.41-.9-1.9l.18-.63h4M262.44,39c.41-1.45.64-2.08,2.13-2.08s1.35.63.94,2.08Z"/><path class="cls-1" d="M268.14,40.93c-.37,1.18-.23,1.45,1,1.45s1.68-.18,2-1.36c.27-.9.18-1-1.4-1s-2.08-.36-1.67-1.85.81-2,2.85-2,2.26.45,1.85,1.9H272c.31-1,0-1.13-1.27-1.13s-1.45.14-1.72,1.18-.18,1,1.22,1.13c2,.13,2.26.27,1.86,1.76s-.91,2.17-3.12,2.17c-1.58,0-2.26-.19-1.67-2.22h.86"/></g></g></svg>