<svg xmlns="http://www.w3.org/2000/svg" viewBox="0 0 254.04 43.48"><defs><style>.cls-1{fill:#ff4d00;}.cls-2{fill:#878787;}</style></defs><title>hankook</title><g id="Capa_2" data-name="Capa 2"><g id="Capa_1-2" data-name="Capa 1"><path d="M75.63,5.06c-.07.24-2.58,8.42-2.58,8.42h-8l2.58-8.42H58.47l-7,23h9.16l3-9.66h8l-3,9.66h9.15c.08-.24,6.92-22.6,7.06-23Z"/><path d="M123.78,7.57l-.42.31.86-2.82h-9.16l-7,23h9.16c.07-.24,4.25-13.91,4.25-13.91A4.2,4.2,0,0,1,125.19,11h2.35a2,2,0,0,1,1.67.73A2.19,2.19,0,0,1,129.6,13a4.56,4.56,0,0,1-.2,1.25L125.17,28.1h9.16c.07-.24,5-16.24,5-16.24a7.89,7.89,0,0,0,.34-2.22,4.94,4.94,0,0,0-.9-3c-1-1.38-2.83-2.07-5.36-2.07A15.9,15.9,0,0,0,123.78,7.57Z"/><path d="M87.52,6.72c.08.28,1.32,4.56,1.42,4.89a21.72,21.72,0,0,1,7.2-1.68c2.84,0,4.44.39,5,1.2a1.76,1.76,0,0,1,.15,1.61l-.57,1.88-.17-.06a22.94,22.94,0,0,0-6.82-1.23,14.23,14.23,0,0,0-8,2.21,10.56,10.56,0,0,0-4.24,5.7c-.63,2.07-.47,3.83.46,5.09,1.08,1.47,3.22,2.24,6.19,2.24a20.25,20.25,0,0,0,8.59-2l.35-.16-.53,1.73h9.16c.07-.24,4.87-15.92,4.87-15.92a6.52,6.52,0,0,0,.3-1.89,4.34,4.34,0,0,0-.84-2.65c-1.47-2-4.87-3-9.82-3A44.8,44.8,0,0,0,87.52,6.72Zm7.25,11.33a12.66,12.66,0,0,1,4.56.75l.14.06-1,3.35-.07,0a13.34,13.34,0,0,1-5.12,1.14c-1.54,0-2.62-.36-3.12-1a1.61,1.61,0,0,1-.31-1,2.22,2.22,0,0,1,.11-.7C90.43,19,92.24,18.05,94.77,18.05Z"/><path d="M159.46,5l-8.77,6.91L152.82,5h-9.15l-7.16,23.38h9.15l2.91-9.5,6.67,9.5H165l-8.4-12L170.46,5Z"/><path d="M163.27,16.63h0a9.43,9.43,0,0,0,1.06,8.57c1.9,2.57,5.32,4,9.62,4,10.11,0,15.82-3.9,18.5-12.66A9.41,9.41,0,0,0,191.38,8c-1.9-2.57-5.31-4-9.61-4C172.47,4,165.73,8.59,163.27,16.63Zm8.95,5.13c-.8-1.07-.82-2.78-.08-5.22h0c.91-3,3-6.49,7.67-6.49,1.8,0,3,.44,3.68,1.36.8,1.08.83,2.79.08,5.23-.91,3-3,6.49-7.66,6.49C174.11,23.13,172.9,22.68,172.22,21.76Z"/><path d="M193.79,16.63h0a9.43,9.43,0,0,0,1.06,8.57c1.9,2.57,5.32,4,9.62,4,10.12,0,15.82-3.9,18.5-12.66A9.41,9.41,0,0,0,221.9,8c-1.89-2.57-5.31-4-9.61-4C203,4,196.25,8.59,193.79,16.63Zm16.54-6.58c1.8,0,3,.44,3.68,1.36.8,1.08.83,2.79.08,5.23-.91,3-3,6.49-7.66,6.49-1.8,0-3-.45-3.69-1.37-.79-1.08-.82-2.78-.08-5.22h0C203.57,13.58,205.64,10.05,210.33,10.05Z"/><path d="M243.63,4.74l-8.9,7.52L237,4.74h-9.14L220.6,28.5h9.15c.07-.24,2.95-9.65,2.95-9.65s7.07,9.52,7.18,9.65h10l-9-12.08S253.33,5.32,254,4.74Z"/><path class="cls-1" d="M54.15,1.12,54,0H46.27c.89,9.16-5.42,19.38-14.42,21.81h0s-.17,0-.18-.12a.18.18,0,0,1,.05-.12h0A23.51,23.51,0,0,0,42.48,0H34.89c.33,7.47-4.69,14.27-12.35,17-.05,0-.16,0-.18-.12a.14.14,0,0,1,.06-.11h0A19,19,0,0,0,31.09,0h-7.6C23.42,8.81,15.5,15,0,15c.22.12.44.24.65.37,10.09,5.51,15.35,8.9,22.79,15a6.4,6.4,0,0,0,4.34,1.46C47.87,30.36,55.1,12.73,54.15,1.12Z"/><path class="cls-2" d="M101.85,37.63a3.22,3.22,0,0,1-1,1.56,4.6,4.6,0,0,1-1.72.88,8.06,8.06,0,0,1-2.19.28h-2.5l-.9,2.94H91.27L93.81,35h5a5.52,5.52,0,0,1,1.87.29,2.13,2.13,0,0,1,1.14.88A1.73,1.73,0,0,1,101.85,37.63Zm-2.33,0a.67.67,0,0,0-.21-.8,2,2,0,0,0-1.12-.26H95.58l-.66,2.13h2.65a2.68,2.68,0,0,0,1.28-.26A1.35,1.35,0,0,0,99.52,37.67Z"/><polygon class="cls-2" points="109.33 43.29 101.22 43.29 103.77 35.01 111.64 35.01 111.14 36.63 105.53 36.63 105.09 38.06 108.35 38.06 107.86 39.67 104.6 39.67 103.99 41.67 109.84 41.67 109.33 43.29"/><path class="cls-2" d="M120,43.29h-2.6l-1.11-3H114l-.92,3h-2.26L113.33,35h5.27a5.48,5.48,0,0,1,1.87.29,2.19,2.19,0,0,1,1.15.88,1.84,1.84,0,0,1,.08,1.46,3.69,3.69,0,0,1-2.92,2.44Zm-.61-5.62a.68.68,0,0,0-.18-.81,1.91,1.91,0,0,0-1.12-.25h-3l-.65,2.13h3C118.47,38.75,119.12,38.39,119.35,37.67Z"/><polygon class="cls-2" points="131.35 36.63 125.49 36.63 125.02 38.19 128.44 38.19 127.94 39.8 124.52 39.8 123.45 43.29 121.18 43.29 123.73 35.01 131.84 35.01 131.35 36.63"/><path class="cls-2" d="M140.09,39.15a5.89,5.89,0,0,1-1.27,2.23,6.06,6.06,0,0,1-2.15,1.49,7.09,7.09,0,0,1-2.82.55,4.91,4.91,0,0,1-2.47-.55,2.47,2.47,0,0,1-1.23-1.49,3.83,3.83,0,0,1,.1-2.23,5.69,5.69,0,0,1,1.27-2.23,6.08,6.08,0,0,1,2.14-1.5,7.27,7.27,0,0,1,2.82-.55,5,5,0,0,1,2.48.55,2.55,2.55,0,0,1,1.23,1.5A3.83,3.83,0,0,1,140.09,39.15Zm-2.33,0a3.09,3.09,0,0,0,.14-1.34,1.35,1.35,0,0,0-.55-.94,2.3,2.3,0,0,0-1.38-.35,3.51,3.51,0,0,0-1.59.35,3.33,3.33,0,0,0-1.13.94,4.11,4.11,0,0,0-.67,1.34,3,3,0,0,0-.15,1.34,1.33,1.33,0,0,0,.55.93,2.3,2.3,0,0,0,1.38.35,3.52,3.52,0,0,0,1.6-.35,3.4,3.4,0,0,0,1.13-.93A4.43,4.43,0,0,0,137.76,39.15Z"/><path class="cls-2" d="M149,43.29h-2.6l-1.11-3H143l-.92,3h-2.26L142.37,35h5.27a5.58,5.58,0,0,1,1.88.29,2.2,2.2,0,0,1,1.14.88,1.8,1.8,0,0,1,.08,1.46,3.69,3.69,0,0,1-2.93,2.44Zm-.61-5.62a.68.68,0,0,0-.18-.81,1.91,1.91,0,0,0-1.12-.25h-3l-.66,2.13h3C147.51,38.75,148.16,38.39,148.39,37.67Z"/><path class="cls-2" d="M160.83,43.29h-2.27l.94-3c.05-.16.12-.36.19-.6s.16-.48.23-.71.14-.4.17-.51l-.54.62-.68.75-3.43,3.68-1.17-3.68c-.07-.25-.15-.5-.22-.75s-.11-.46-.15-.62l-.15.51c-.06.23-.13.46-.2.71l-.18.6-.93,3h-2.22L152.77,35H155l1.21,3.75c.07.24.14.49.2.75s.12.48.15.63l.52-.63.66-.75L161.14,35h2.23Z"/><path class="cls-2" d="M172.26,43.29h-2.49l-.32-1.85H165.3l-1.46,1.85h-2.42L168.3,35h2.2Zm-3.11-3.42-.27-1.5c0-.25-.07-.49-.1-.71s-.06-.43-.07-.58c-.1.15-.24.35-.41.58l-.54.71-1.19,1.5Z"/><path class="cls-2" d="M182.28,43.29h-2l-2.77-4.52-.3-.5c-.1-.18-.16-.32-.21-.43l-.15.5c-.06.22-.13.46-.2.7l-.18.61-1.11,3.64H173.1L175.65,35h2.17l2.67,4.37c.09.16.19.33.28.51a2.19,2.19,0,0,1,.22.43c0-.11.09-.28.15-.5s.13-.46.2-.71l.18-.6L182.6,35h2.24Z"/><path class="cls-2" d="M194.42,36.71l-2.32.71a1.26,1.26,0,0,0-.6-.67,2.64,2.64,0,0,0-1.2-.23,3.52,3.52,0,0,0-2.2.74,3.77,3.77,0,0,0-1.27,1.89,2.63,2.63,0,0,0-.1,1.34,1.53,1.53,0,0,0,.63.94,2.41,2.41,0,0,0,1.35.34,3.17,3.17,0,0,0,1.34-.25,4.32,4.32,0,0,0,1.2-.8l1.66.83a6,6,0,0,1-2,1.38,7.28,7.28,0,0,1-2.74.49,5,5,0,0,1-2.43-.53,2.59,2.59,0,0,1-1.28-1.47,3.79,3.79,0,0,1,.08-2.27,5.47,5.47,0,0,1,1.33-2.23,6.6,6.6,0,0,1,2.22-1.5,7.34,7.34,0,0,1,2.79-.55,4.93,4.93,0,0,1,2.45.52A2.33,2.33,0,0,1,194.42,36.71Z"/><polygon class="cls-2" points="201.58 43.29 193.47 43.29 196.02 35.01 203.89 35.01 203.39 36.63 197.78 36.63 197.34 38.06 200.6 38.06 200.1 39.67 196.85 39.67 196.23 41.67 202.08 41.67 201.58 43.29"/><polygon class="cls-2" points="216.54 36.64 213.29 36.64 211.24 43.29 208.97 43.29 211.02 36.64 207.76 36.64 208.27 35.01 217.05 35.01 216.54 36.64"/><polygon class="cls-2" points="218.2 43.29 215.93 43.29 218.47 35.01 220.75 35.01 218.2 43.29"/><path class="cls-2" d="M229.41,43.29H226.8l-1.1-3h-2.28l-.93,3h-2.26L222.77,35h5.28a5.58,5.58,0,0,1,1.88.29,2.2,2.2,0,0,1,1.14.88,1.84,1.84,0,0,1,.08,1.46,3.71,3.71,0,0,1-2.93,2.44Zm-.61-5.62a.68.68,0,0,0-.18-.81,1.91,1.91,0,0,0-1.12-.25h-3l-.66,2.13h3C227.92,38.75,228.57,38.39,228.8,37.67Z"/><polygon class="cls-2" points="238.74 43.29 230.63 43.29 233.18 35.01 241.05 35.01 240.55 36.63 234.94 36.63 234.5 38.06 237.76 38.06 237.26 39.67 234.01 39.67 233.39 41.67 239.25 41.67 238.74 43.29"/><path class="cls-2" d="M248.76,40.78a3.16,3.16,0,0,1-1.65,1.91,7.58,7.58,0,0,1-3.61.73A7,7,0,0,1,241,43a3,3,0,0,1-1.48-1.1l2-1.07a2.54,2.54,0,0,0,1.11.73,4.68,4.68,0,0,0,1.5.22,4.28,4.28,0,0,0,1.55-.22,1.06,1.06,0,0,0,.7-.68.47.47,0,0,0,0-.45,1.22,1.22,0,0,0-.63-.35q-.51-.15-1.5-.33a9.17,9.17,0,0,1-1.72-.43,2,2,0,0,1-1-.75,1.56,1.56,0,0,1-.05-1.29,2.66,2.66,0,0,1,1-1.3,5.14,5.14,0,0,1,1.71-.83,8.18,8.18,0,0,1,2.13-.3,6.46,6.46,0,0,1,2.22.35,4,4,0,0,1,1.51,1l-2,1.17a2.67,2.67,0,0,0-1-.63,3.57,3.57,0,0,0-1.34-.23,3.12,3.12,0,0,0-1.33.24.92.92,0,0,0-.52.51.39.39,0,0,0,.07.42,1.42,1.42,0,0,0,.61.3c.31.08.74.17,1.31.28a12.79,12.79,0,0,1,1.26.27,4.13,4.13,0,0,1,1.08.44,1.49,1.49,0,0,1,.66.73A1.51,1.51,0,0,1,248.76,40.78Z"/></g></g></svg>