<svg width="29" height="33" viewBox="0 0 29 33" fill="none" xmlns="http://www.w3.org/2000/svg">
<path d="M14.1335 0L13.2123 0.880219L5.60547 8.528L4.32422 9.76953L5.9655 10.5703C5.9655 10.5703 7.26725 11.0405 9.08919 11.4505L3.44272 17.0957L2.16147 18.3385L3.76303 19.138C3.76303 19.138 5.14422 19.5288 5.84506 19.7787L1.24025 24.3835L0 25.6647L1.60156 26.4655C1.60156 26.4655 4.72397 27.9722 10.2897 28.5078V32.5514H12.8522V28.668C13.2827 28.6821 13.6825 28.7077 14.1335 28.7077C14.5845 28.7077 14.9842 28.6821 15.4147 28.668V32.5514H17.9772V28.5078C23.5532 27.9722 26.7064 26.4655 26.7064 26.4655L28.2669 25.6647L27.0267 24.3835L22.4219 19.7787C23.1227 19.5288 24.5039 19.138 24.5039 19.138L26.1055 18.3372L24.8242 17.097L19.1777 11.4505C20.9997 11.0405 22.3014 10.5703 22.3014 10.5703L23.9427 9.76953L22.6615 8.528L15.0547 0.880219L14.1335 0ZM14.1335 3.64388L19.2585 8.72788C18.4974 8.98413 18.3424 9.184 16.4551 9.3685L14.1335 9.60938L11.8106 9.3685C9.92456 9.184 9.76953 8.98413 9.00847 8.72788L14.1335 3.64388ZM14.1335 10.0501L15.6556 11.5312L21.5404 17.4173C20.9446 17.6274 20.96 17.6966 19.7389 17.9375L17.3763 18.418L19.0983 20.099L23.7826 24.7845C22.1515 25.37 19.3584 26.1452 14.1335 26.1452C8.95722 26.1452 6.17691 25.37 4.52409 24.7832L9.16862 20.099L10.8906 18.418L8.528 17.9375C7.30697 17.6966 7.32234 17.6274 6.72656 17.416L12.6126 11.5312L14.1335 10.0501Z" fill="black"/>
</svg>
