<svg width="47" height="47" viewBox="0 0 47 47" fill="none" xmlns="http://www.w3.org/2000/svg">
<path d="M25.8501 39.1675C26.0609 39.1593 26.2711 39.1938 26.4683 39.2688C26.6654 39.3438 26.8454 39.4579 26.9974 39.6041C27.1495 39.7504 27.2704 39.9258 27.353 40.1199C27.4356 40.314 27.4782 40.5228 27.4782 40.7337C27.4782 40.9447 27.4356 41.1535 27.353 41.3476C27.2704 41.5417 27.1495 41.7171 26.9974 41.8633C26.8454 42.0096 26.6654 42.1236 26.4683 42.1987C26.2711 42.2737 26.0609 42.3082 25.8501 42.3C25.4344 42.3 25.0357 42.1349 24.7417 41.8409C24.4478 41.547 24.2826 41.1483 24.2826 40.7326C24.2826 40.3169 24.4478 39.9182 24.7417 39.6242C25.0357 39.3303 25.4344 39.1675 25.8501 39.1675ZM20.3675 37.6C20.5783 37.5919 20.7886 37.6263 20.9857 37.7013C21.1829 37.7764 21.3629 37.8904 21.5149 38.0367C21.6669 38.1829 21.7879 38.3584 21.8705 38.5525C21.9531 38.7466 21.9957 38.9553 21.9957 39.1663C21.9957 39.3772 21.9531 39.586 21.8705 39.7801C21.7879 39.9742 21.6669 40.1496 21.5149 40.2959C21.3629 40.4421 21.1829 40.5562 20.9857 40.6312C20.7886 40.7063 20.5783 40.7407 20.3675 40.7326C19.9626 40.7169 19.5795 40.545 19.2986 40.253C19.0177 39.961 18.8608 39.5715 18.8608 39.1663C18.8608 38.7611 19.0177 38.3716 19.2986 38.0796C19.5795 37.7876 19.9626 37.6157 20.3675 37.6ZM31.3326 37.6C31.5434 37.5919 31.7537 37.6263 31.9508 37.7013C32.148 37.7764 32.328 37.8904 32.48 38.0367C32.632 38.1829 32.753 38.3584 32.8356 38.5525C32.9182 38.7466 32.9608 38.9553 32.9608 39.1663C32.9608 39.3772 32.9182 39.586 32.8356 39.7801C32.753 39.9742 32.632 40.1496 32.48 40.2959C32.328 40.4421 32.148 40.5562 31.9508 40.6312C31.7537 40.7063 31.5434 40.7407 31.3326 40.7326C30.9277 40.7169 30.5446 40.545 30.2637 40.253C29.9828 39.961 29.8259 39.5715 29.8259 39.1663C29.8259 38.7611 29.9828 38.3716 30.2637 38.0796C30.5446 37.7876 30.9277 37.6157 31.3326 37.6ZM25.8501 14.1C31.6405 14.1 34.9281 17.7966 35.4052 22.2639H35.5509C39.278 22.2639 42.3001 25.1709 42.3001 28.757C42.3001 32.3431 39.278 35.25 35.5509 35.25H16.1493C12.4222 35.25 9.40008 32.3431 9.40008 28.757C9.40008 25.1709 12.4222 22.2639 16.1493 22.2639H16.295C16.7744 17.766 20.0573 14.1 25.8501 14.1ZM25.8501 16.45C21.9726 16.45 18.5956 19.4345 18.5956 23.5588C18.5956 24.2121 17.9987 24.7244 17.3149 24.7244H16.0224C13.663 24.722 11.7501 26.555 11.7501 28.811C11.7501 31.067 13.663 32.9 16.0224 32.9H35.6778C38.0372 32.9 39.9501 31.067 39.9501 28.811C39.9501 26.555 38.0372 24.722 35.6778 24.722H34.3853C33.7014 24.7244 33.1045 24.2121 33.1045 23.5588C33.1045 19.3828 29.7252 16.45 25.8501 16.45ZM8.93713 20.445C9.02747 20.7056 9.0233 20.9896 8.92534 21.2473C8.82739 21.5051 8.64189 21.7202 8.40133 21.855L8.20863 21.9396L6.32628 22.5882C6.04849 22.6854 5.74434 22.6748 5.47398 22.5586C5.20361 22.4423 4.98673 22.2288 4.86621 21.9603C4.7457 21.6918 4.73033 21.3879 4.82315 21.1086C4.91597 20.8293 5.11022 20.595 5.36748 20.4521L5.56018 20.3675L7.44488 19.7189C7.73937 19.6178 8.06194 19.6378 8.34174 19.7744C8.62153 19.9109 8.83567 20.153 8.93713 20.4474M20.9621 10.575C21.7446 10.9557 22.4308 11.4516 23.016 12.032C22.0603 12.2294 21.1704 12.5232 20.3464 12.9133C19.285 12.2744 18.0351 12.0231 16.8093 12.2021C15.5835 12.381 14.4576 12.9792 13.6231 13.8948C12.7887 14.8104 12.2973 15.9868 12.2326 17.2239C12.1679 18.461 12.5338 19.6823 13.2682 20.68C12.4927 20.9103 11.7642 21.2464 11.0944 21.667C10.1859 20.2517 9.76514 18.5782 9.89638 16.9015C10.0276 15.2248 10.7036 13.6371 11.8213 12.3804C12.939 11.1237 14.4371 10.2671 16.087 9.94113C17.7369 9.61518 19.4481 9.83779 20.9597 10.575M6.85268 10.9745L7.05008 11.0497L8.84078 11.9216C9.10476 12.0499 9.31116 12.2724 9.41934 12.5452C9.52753 12.8181 9.52967 13.1216 9.42535 13.3959C9.32103 13.6703 9.1178 13.8957 8.85565 14.0277C8.59351 14.1598 8.29143 14.1889 8.00888 14.1094L7.80913 14.0342L6.02078 13.1624C5.75679 13.034 5.5504 12.8116 5.44221 12.5387C5.33402 12.2658 5.33188 11.9624 5.4362 11.688C5.54052 11.4136 5.74376 11.1883 6.0059 11.0562C6.26805 10.9242 6.57012 10.895 6.85268 10.9745ZM23.4742 5.39327C23.7216 5.51399 23.9188 5.71775 24.0314 5.969C24.1439 6.22025 24.1646 6.50304 24.0899 6.76802L24.0147 6.96542L23.1429 8.75612C23.0145 9.0201 22.7921 9.22649 22.5192 9.33468C22.2463 9.44287 21.9429 9.44501 21.6685 9.34069C21.3942 9.23637 21.1688 9.03314 21.0367 8.77099C20.9047 8.50885 20.8755 8.20677 20.955 7.92422L21.0302 7.72447L21.9021 5.93377C21.9698 5.7947 22.0642 5.67036 22.1801 5.56789C22.2959 5.46541 22.4308 5.38681 22.5771 5.3366C22.7234 5.28638 22.8781 5.26554 23.0325 5.27526C23.1868 5.28499 23.3354 5.32509 23.4742 5.39327ZM14.5701 5.31807L14.657 5.51077L15.3056 7.39547C15.401 7.6729 15.3891 7.97596 15.2723 8.24507C15.1555 8.51418 14.9423 8.72988 14.6746 8.84976C14.4068 8.96964 14.1039 8.98503 13.8254 8.89291C13.5469 8.80078 13.3129 8.60781 13.1695 8.35192L13.0825 8.15922L12.4363 6.27687C12.3424 6.00009 12.3551 5.69827 12.4718 5.43033C12.5885 5.16239 12.8009 4.94756 13.0675 4.82778C13.334 4.70799 13.6357 4.69185 13.9135 4.78251C14.1914 4.87316 14.4254 5.06411 14.5701 5.31807Z" fill="black"/>
</svg>
