<svg width="38" height="38" viewBox="0 0 38 38" fill="none" xmlns="http://www.w3.org/2000/svg">
<g clip-path="url(#clip0_79_181)">
<path d="M23.7178 7.00224C23.3892 6.99295 23.0604 7.01256 22.7353 7.06084C21.8812 7.18802 21.0795 7.50596 20.2565 7.76905C19.4336 8.03213 18.617 8.23661 18.0085 8.23661C17.6207 8.23661 16.9188 8.22664 16.2105 8.23412C15.5036 8.2416 14.8266 8.25157 14.2281 8.3613C13.1732 8.55331 12.2593 9.01713 11.6184 9.7216C10.9763 10.4273 10.6359 11.3126 10.4788 12.2327L10.4763 12.2502L9.72573 17.0081C5.80566 17.2301 2.96661 19.639 1.42676 22.872C1.10983 23.525 0.965333 24.2482 1.00702 24.9728C1.04871 25.6974 1.27519 26.3992 1.66491 27.0115C2.41301 28.1611 3.64863 28.9404 5.06878 29.2484C15.2605 31.4528 23.9908 30.7782 33.4893 29.4304H33.5204V29.4279L33.5765 29.4229L33.6065 29.4204L33.6314 29.4154C33.7536 29.3953 33.8721 29.3571 33.983 29.302C35.5939 28.9653 36.7971 28.2895 37.4929 27.3731C38.2447 26.3806 38.418 25.2685 38.418 24.4231C38.418 20.1838 35.1538 15.0718 29.1353 13.4484L28.4047 10.6131L28.3972 10.5882C27.8224 8.53211 25.9658 7.06832 23.719 7.00224H23.7178ZM23.6879 9.47597C24.9684 9.45852 25.6728 10.1181 25.9945 11.259L25.9958 11.2614L26.8598 14.6042L26.8623 14.6117C26.875 14.7247 26.9031 14.8355 26.9458 14.9409L27.1503 15.7301L27.1753 15.8324C27.3149 16.3336 26.871 17.3286 26.2838 17.6727C25.9247 17.8822 24.537 18.4096 22.9223 18.7886C21.4111 19.1427 19.6394 19.4096 18.0222 19.4407C16.4711 18.3248 14.642 17.4121 12.2394 17.0917L12.9376 12.6542C13.0411 12.0544 13.2206 11.6654 13.4613 11.3998C13.7032 11.1355 14.0323 10.931 14.6769 10.8138C14.8864 10.7752 15.5747 10.7353 16.238 10.7278C16.9013 10.7203 17.5758 10.7303 18.0085 10.7303C19.1057 10.7303 20.1231 10.4311 21.0159 10.1455C21.9086 9.86 22.7091 9.58445 23.1031 9.5246C23.3101 9.49384 23.505 9.47763 23.6879 9.47597ZM29.8797 16.3286C33.9095 18.0368 35.9243 21.8022 35.9243 24.4231C35.9243 24.9343 35.8246 25.4468 35.5054 25.8682C35.1912 26.2821 34.5952 26.7148 33.2648 26.9392C29.4969 27.2036 27.0905 26.5402 25.1853 25.4343C26.7563 25.1014 28.1615 24.5989 29.0929 24.0565L29.0954 24.054C30.528 23.2162 31.2487 21.5092 30.8036 19.9058L29.8797 16.3286ZM28.1067 19.4357L28.3934 20.5517L28.3997 20.5741C28.5431 21.089 28.3373 21.609 27.8373 21.9007C26.9995 22.3895 24.5394 23.1975 22.3824 23.2984C22.1546 23.0905 21.9289 22.8802 21.7054 22.6675C21.3849 22.3633 21.0383 22.0441 20.7079 21.7299C21.6436 21.6027 22.5727 21.4313 23.4921 21.2162C25.2551 20.8023 26.6379 20.3522 27.5393 19.826H27.5418C27.7413 19.7096 27.9296 19.5795 28.1067 19.4357ZM10.3018 19.4582C13.2518 19.4582 15.1196 20.2961 16.7417 21.5279C16.8485 21.6484 16.9777 21.7471 17.122 21.8184C18.0821 22.6002 18.9773 23.5142 19.9835 24.4717C20.2952 24.771 20.6231 25.0673 20.9672 25.3607C21.0775 25.4938 21.2142 25.6025 21.3687 25.6799L21.3762 25.6849C22.336 26.4724 23.3718 27.1624 24.4684 27.7447C18.3464 28.2085 12.2793 28.2584 5.59619 26.812C4.74585 26.6288 4.08378 26.1599 3.75461 25.6525C3.42544 25.1475 3.33941 24.655 3.67731 23.9468C5.00644 21.1526 7.00762 19.4582 10.3018 19.4582Z" fill="black"/>
</g>
<defs>
<clipPath id="clip0_79_181">
<rect width="38" height="38" fill="white"/>
</clipPath>
</defs>
</svg>
