<svg xmlns="http://www.w3.org/2000/svg" viewBox="0 0 444.11 177.09"><defs><style>.cls-1{fill:#fae912;}.cls-2{fill:#fff;}</style></defs><title>logotipo_roca</title><g id="Capa_2" data-name="Capa 2"><g id="Capa_1-2" data-name="Capa 1"><path class="cls-1" d="M40.11,81.6A41.53,41.53,0,0,1,81.6,40.11h2.47V51.37H81.6a30.23,30.23,0,0,0,0,60.46h2.47V123.1H81.6A41.54,41.54,0,0,1,40.11,81.6ZM45.63,142a70.07,70.07,0,0,1-21.1-19.36l-4.47-6.2v60.62H31.31V145.86a79.77,79.77,0,0,0,7.49,5.23l23.5,26H77.47L46.05,142.32ZM60.16,81.6v2.47H71.42V81.6a10.18,10.18,0,0,1,20.36,0v2.47H103V81.6a21.44,21.44,0,0,0-42.88,0Zm-40.06,0a61.5,61.5,0,1,1,61.5,61.5A61.57,61.57,0,0,1,20.1,81.6Zm11.26,0A50.24,50.24,0,1,0,81.6,31.36,50.29,50.29,0,0,0,31.36,81.6ZM81.6,0A81.7,81.7,0,0,0,0,81.6v95.48H11.26V81.6A70.34,70.34,0,1,1,81.6,151.94H68.51l23.83,25.15,15.65-.15L93.88,162.28A81.61,81.61,0,0,0,81.6,0Z"/><polygon class="cls-1" points="443.15 77.61 161.98 77.61 161.98 70.84 444.11 70.84 443.15 77.61"/><polygon class="cls-1" points="443.19 177.09 96.94 177.09 96.94 170.33 444.11 170.33 443.19 177.09"/><path class="cls-2" d="M203.27,102.07a11.85,11.85,0,0,1-.1,1.55l-1.57,12.13a11.72,11.72,0,0,1-7.94,9.63,6.81,6.81,0,0,1,5.53,7.15,12.63,12.63,0,0,1-.15,1.89L196.16,155H185.28l3.17-22.55c0-.21,0-.41,0-.59,0-1.47-.88-2.35-2.58-2.35h-9.42L172.9,155H162l8.7-61.79h23.43C199.7,93.22,203.27,96.84,203.27,102.07Zm-22.91,0-2.63,18.68h9.21a3.18,3.18,0,0,0,3.43-2.93L192.15,105a4.06,4.06,0,0,0,.06-.67c0-1.43-.93-2.26-2.6-2.26Z"/><path class="cls-2" d="M205.11,146.67a11.6,11.6,0,0,1,.12-1.63l5.9-41.85A11.92,11.92,0,0,1,223,92.78h13.22c5.51,0,9.2,3.64,9.2,8.78a11.6,11.6,0,0,1-.12,1.63L239.36,145a12,12,0,0,1-12,10.41H214.17C208.72,155.45,205.11,151.81,205.11,146.67Zm20.17,0a3.24,3.24,0,0,0,3.43-3l5.46-39a4.2,4.2,0,0,0,.06-.69c0-1.48-.92-2.31-2.6-2.31h-6.47a3.21,3.21,0,0,0-3.36,3l-5.48,39a4.18,4.18,0,0,0-.06.68c0,1.49.93,2.32,2.54,2.32Z"/><path class="cls-2" d="M246.8,146.67a13.26,13.26,0,0,1,.11-1.63l5.91-41.85a11.92,11.92,0,0,1,11.83-10.41h13.22c5.52,0,9.19,3.65,9.19,8.8a11.17,11.17,0,0,1-.11,1.61l-1.8,12.73H274.28l1.58-11.33a3.92,3.92,0,0,0,.05-.67c0-1.49-.91-2.33-2.59-2.33h-6.47a3.21,3.21,0,0,0-3.36,3l-5.48,39a4.18,4.18,0,0,0-.06.68c0,1.49.93,2.32,2.54,2.32H267a3.19,3.19,0,0,0,3.41-3l1.85-13H283l-2,14.42a12,12,0,0,1-12,10.41H255.86C250.41,155.45,246.8,151.81,246.8,146.67Z"/><path class="cls-2" d="M311.68,143.82h-13L295.43,155h-11l19.3-61.79h17.12L322.72,155h-11Zm-.08-8.67-.19-23-.23-10.33h-.3l-3.11,10.33-6.63,23Z"/><path class="cls-2" d="M344.13,121.9c-2.78,0-4.27-1.36-4.27-3.85a7.25,7.25,0,0,1,.07-1l2.69-19.1a5.16,5.16,0,0,1,5.56-4.85h2.07c2.79,0,4.29,1.36,4.29,3.85a7.12,7.12,0,0,1-.07,1l-.66,4.8h-2.08l.64-4.62a8,8,0,0,0,.05-.81c0-1.67-.89-2.46-2.82-2.46h-1.24c-2.22,0-3.36,1-3.69,3.27L342,116.87a6.09,6.09,0,0,0-.06.82c0,1.66.94,2.44,2.86,2.44h1.23c2.23,0,3.35-1,3.67-3.26l.75-5.44h2.08l-.78,5.61a5.16,5.16,0,0,1-5.57,4.86Z"/><path class="cls-2" d="M368.71,114.91h-7.19l-2.15,6.79H357.3l9.21-28.41h3.35L371,121.7H369Zm-.06-1.75-.46-12.33-.25-5.77h-.09L366,100.83l-3.91,12.33Z"/><path class="cls-2" d="M392.93,97.13a9,9,0,0,1-.07,1l-.74,5.25a4.9,4.9,0,0,1-3.5,4.42A3.06,3.06,0,0,1,391,111.1a8.17,8.17,0,0,1-.08,1.06l-1.35,9.54h-2.09l1.39-9.78a6.48,6.48,0,0,0,.07-.83c0-1.65-.91-2.43-2.84-2.43H381.6l-1.84,13h-2.08l4-28.41h7C391.44,93.29,392.93,94.64,392.93,97.13Zm-2.11.34c0-1.64-.92-2.42-2.84-2.42h-4.47l-1.67,11.85h4.47c2.22,0,3.37-1,3.69-3.26l.75-5.33A6.48,6.48,0,0,0,390.82,97.47Z"/><path class="cls-2" d="M344.13,155.13c-2.78,0-4.27-1.36-4.27-3.85a7.25,7.25,0,0,1,.07-1l2.69-19.1a5.16,5.16,0,0,1,5.56-4.85h2.07c2.79,0,4.29,1.36,4.29,3.85a7.12,7.12,0,0,1-.07,1l-.66,4.8h-2.08l.64-4.62a8,8,0,0,0,.05-.81c0-1.67-.89-2.46-2.82-2.46h-1.24c-2.22,0-3.36,1-3.69,3.27L342,150.1a6.12,6.12,0,0,0-.06.83c0,1.65.94,2.43,2.86,2.43h1.23c2.23,0,3.35-1,3.67-3.26l.75-5.44h2.08l-.78,5.61a5.15,5.15,0,0,1-5.57,4.86Z"/><path class="cls-2" d="M364.32,128.28l-1.54,11h7.63l-.25,1.77h-7.63l-1.7,12.12H369l-.24,1.77H358.51l4-28.41h10.25l-.24,1.76Z"/><path class="cls-2" d="M391.73,126.52l-4,28.41h-2L381,131.45h-.06l-.57,4.94-2.61,18.54H375.8l4-28.41h2l4.76,23.55h.06l.52-4.83,2.63-18.72Z"/><path class="cls-2" d="M409.21,128.28h-4.79l-3.74,26.65H398.6l3.74-26.65h-4.73l.24-1.76h11.6Z"/><path class="cls-2" d="M417.38,128.28l-1.54,11h7.62l-.24,1.77h-7.63l-1.7,12.12h8.17l-.24,1.77H411.57l4-28.41h10.25l-.24,1.76Z"/><path class="cls-2" d="M444.11,130.36a7.21,7.21,0,0,1-.08,1l-.73,5.25a4.9,4.9,0,0,1-3.5,4.42,3.07,3.07,0,0,1,2.35,3.29,6.79,6.79,0,0,1-.09,1.06l-1.35,9.54h-2.08l1.39-9.78a6.35,6.35,0,0,0,.06-.83c0-1.65-.91-2.43-2.83-2.43h-4.48l-1.83,13h-2.08l4-28.41h7C442.61,126.52,444.11,127.87,444.11,130.36Zm-2.12.34c0-1.64-.91-2.42-2.83-2.42h-4.47L433,140.13h4.46c2.23,0,3.38-1,3.7-3.26l.75-5.33A6.38,6.38,0,0,0,442,130.7Z"/></g></g></svg>