<svg xmlns="http://www.w3.org/2000/svg" viewBox="0 0 279.07 42.79"><defs><style>.cls-1{fill:#004d9b;}.cls-1,.cls-2,.cls-3,.cls-4{fill-rule:evenodd;}.cls-2{fill:#fff;}.cls-3{fill:#1d1d1b;}.cls-4{fill:#ffed00;}</style></defs><title>michelin</title><g id="Capa_2" data-name="Capa 2"><g id="Capa_1-2" data-name="Capa 1"><polygon class="cls-1" points="0 42.75 279.06 42.75 279.07 0 0.01 0 0 42.75 0 42.75 0 42.75"/><path class="cls-2" d="M89.46,20.2s.42-5.36.53-6.66c.08-1,0-3.59-2.42-3.59H76.9L69.91,29h8.34l5.06-13.8L82.24,29h7.41l9.09-13.56L93.78,29h8.4l7-19.08h-13L89.46,20.2Zm47-10.07c-5.57,1.14-13.12,5.25-13,12.76,0,4.33,5.25,6.73,11.22,6.56a48.43,48.43,0,0,0,6.95-.77h0l2.21-5.79h0c-2.94.47-5.75,1.18-8,.29-4-1.6-1.53-5.75,1.29-7a11.25,11.25,0,0,1,5-1.07c.85,0,2.9.06,3.7,1.88h0l2.78-6.7h0a28.64,28.64,0,0,0-12.1-.11ZM218,29h9.2l7-19.08H225L218,29ZM107.48,29h9.2l7-19.08h-9.2l-7,19.08Zm56.31-12.21h-4.63L161.68,10H152.9l-7,19.08h8.74l2.39-6.46h4.63L159.31,29h8.76l7-19.08h-8.76l-2.53,6.87ZM213.13,10h-8.94l-7,19.08h18l2.32-6.34h-9L213.13,10ZM252,23.05c.07-1.32.33-6.53.49-9.53a3.7,3.7,0,0,0-.79-2.81,2.54,2.54,0,0,0-1.67-.76H239.38l-7,19.08h7.76l5-13.51L244.52,29h13l7-19.08h-7.69L252,23.05Zm-78.77,6h19.4l1.89-5.15H183.84l.79-2.12h10l1.72-4.69h-10l.76-2.12H197.6l1.85-5H180.27l-7,19.08Z"/><path class="cls-3" d="M65.53,42.78a5.2,5.2,0,0,0-3.06-6.31,5.37,5.37,0,0,0-1.85-4.36c.61-1.29,1.27-5.07-1.5-7.44,1.1-4.69-3.61-7.33-6.16-7.56a11,11,0,0,0-5.17-1.69A5.79,5.79,0,0,0,47,8.08a6.17,6.17,0,0,0-4.28-5.94C41.89,0,37.09.33,36.54,2.33A6.75,6.75,0,0,0,32.39,9.2a5.59,5.59,0,0,0-.06,7,14.23,14.23,0,0,0-5,.95h-.06a6.69,6.69,0,0,0-3.83-.64,7.39,7.39,0,0,0-1.76-.75,5.82,5.82,0,0,0-2-1.83A4.67,4.67,0,0,0,17.29,11a5.43,5.43,0,0,0-.6-2.76,3.71,3.71,0,0,1-.27-2.76,1.36,1.36,0,0,0-.21-1.9c-1.53-1.5-3-.71-3.47,0C11.28,1,9.62.31,8.63.66c-1.29-1-3.36-.39-3.32.85-.85.6-1.43.88-.11,3.31-.26,5.06.3,6.57,3.62,9.3A4.22,4.22,0,0,0,8.23,19a6.94,6.94,0,0,0,2.64,6c.46,3.5,3.83,5.56,6.05,6a7.87,7.87,0,0,0,5.76,3.47,6.39,6.39,0,0,0,1.1,2.81,8.61,8.61,0,0,0,.14,5.49Z"/><path class="cls-2" d="M57.31,35.07a7.85,7.85,0,0,1-1.93,3.83,21.1,21.1,0,0,1,.24,2.22c3.83-.33,7.31-4.59,3.92-7.84a6.1,6.1,0,0,1-2.23,1.79Z"/><path class="cls-2" d="M61.83,37.94c-.93,2.47-3.43,3.83-6.27,4.19a2.35,2.35,0,0,0,0,.65H64a3.76,3.76,0,0,0-2.15-4.84Z"/><path class="cls-2" d="M29.21,32.06a7.45,7.45,0,0,1-4.72,2.15c.5,4.33,8.11,8.5,16.84,8.42,14.35-.14,16-8.72,14.19-12-4.4,4.6-19.08,7.18-26.31,1.45Z"/><path class="cls-2" d="M31.63,24.65A11.5,11.5,0,0,1,30.12,31c1.3,1,4.07,3,10.29,3.09,9.34.15,19.27-4.43,13.7-12-2.5,3.06-14.3,5.81-22.48,2.59Z"/><path class="cls-2" d="M19.61,15.76c-.57,4-6.1,7.06-9.67,4.44a5.63,5.63,0,0,0,9.31,3.4,5.45,5.45,0,0,0,1.3-6.69,4.18,4.18,0,0,0-.94-1.15Z"/><path class="cls-2" d="M22.2,17.64a7,7,0,0,1-9.45,7.87c1.2,3.42,7.07,6.36,11.05,1.88,3.28-3.68,0-9.44-1.6-9.75Z"/><path class="cls-2" d="M25.05,18.23c4,7.47-.66,12.61-5.85,12.69,2.93,3.08,10.59,2.86,11.07-4.28.33-4.79-1.77-7.5-5.22-8.41Z"/><path class="cls-2" d="M54.16,40.23a15.73,15.73,0,0,1-5,2.55h4.82a5.58,5.58,0,0,0,.22-2.55ZM33.32,42.78a19.76,19.76,0,0,1-8-4.3,7.05,7.05,0,0,0,.53,4.3Z"/><path class="cls-2" d="M16.61,12.5c-.54.51-.47,1.87-.44,2.16.06.69-1,1.06-1.12.87-.36-.46.5-.92.14-1.94s.71-1.48.71-2.95a8.63,8.63,0,0,0-.82-2.55,5,5,0,0,1,.17-3.42c-.36-.34-.93-.82-1.47,0a3.72,3.72,0,0,0,.05,3.59c-.07,0-.72,0-1.1,1.19,0,0-.29.4-.29.4h-.25A2.78,2.78,0,0,1,12.53,8a9.19,9.19,0,0,1-.37-2.37c-.69-1.74-2-3.46-2.87-3.56a43.08,43.08,0,0,1,2.29,4.1c.3.74-.35.87-.35.87a19.8,19.8,0,0,0-3-4.95C7.6,1.47,7,1.28,6.73,1.66a2.25,2.25,0,0,1,.84.71A43.07,43.07,0,0,1,10.4,7.45a.41.41,0,0,1-.33.16c-.3,0-.7-.61-1.16-1.68A18.49,18.49,0,0,0,7,3a.66.66,0,0,0-1-.11,7.86,7.86,0,0,1,.69,1.49A1.58,1.58,0,0,1,8.3,5.62,11.2,11.2,0,0,0,9.07,8.8a6.21,6.21,0,0,0-.56.38,10,10,0,0,1-.88-3.44A.93.93,0,0,0,6.94,5c-.23-.06-.27.08-.28.24-.19,4.24.06,5.31,3.81,8.25a4.51,4.51,0,0,1,.94,1.29A1.64,1.64,0,0,0,13.06,16h0l.35.37h0a1.84,1.84,0,0,1-2.29-.12c-.22-.3-.84-1.21-.84-1.21-2.61,2.77.88,6.53,5,4.66S19,13.5,16.61,12.5Z"/><path class="cls-2" d="M54.54,19.3a1.79,1.79,0,0,1,.11,1.39c2,1.33,2.31,4,2.37,5.12a4.41,4.41,0,0,0-2.48-6.51Z"/><path class="cls-2" d="M58.3,26a9.84,9.84,0,0,1-2,3.24,6.3,6.3,0,0,1,1.28,3.85c3.65-2.19,1.27-6.71.68-7.09Z"/><path class="cls-2" d="M46.33,16.92a2.86,2.86,0,0,1-1.53.83c-.28,0-.46-.2-.15-.36a1.19,1.19,0,0,0,.53-1.9c.41-.06,1.83-.58,2-3a4.1,4.1,0,0,0-1.81-3.72s-.34-.37.08-.42C45.62,6,44,4,41.07,3.34h0l0-.25h0a.21.21,0,0,0,.16-.25c-.11-.59-2.25-.83-3.1,0-.18.17.42.35.59.35s.37.3.06.3C37.1,3.42,34,4.92,34.08,9a4.52,4.52,0,0,1,1.33-.17.19.19,0,0,1,0,.38c-2.79.22-4,5.14-.09,6.89,0,0,.2.11-.05.27-.46.3-.81.89-.11,1.29.25.14.44.32.33.56s-.51.21-.89,0c-1.92-1-4.18-.45-5.92.11a9.46,9.46,0,0,1,2.7,4.8,20.75,20.75,0,0,0,8.49,1.67c7.77,0,13.17-2.24,13.59-4.57.34-2-3.22-3.15-7.09-3.36Z"/><path class="cls-3" d="M10.48,9.37c-.46,0-1,.13-1,.24s.61.07,1.16.33c.34.24.92.63,1,.54s-.13-.64-.23-.87c-.33,0-.65-.22-1-.24Z"/><path class="cls-3" d="M43.61,12.53a.88.88,0,0,0-.34.2c-2.7-.49-3.54.25-5,.21,0-.18-.05-.44-.28-.41s-.2.21-.24.27c-.38.56-.53.88-.38,1s.35-.09.55-.32a2.06,2.06,0,0,1,1.31.35c.45.3,1.38,1.47,2.34,1.06.68-.31,1.32-1.47,1.81-1.48a4.09,4.09,0,0,0,.59,0c.11-.06-.11-1-.37-.9Zm-2.09,1.83c-.82.42-1.32-.65-2.12-1a9.15,9.15,0,0,1,3.37-.13c-.27.21-1,1-1.25,1.14Z"/><path class="cls-3" d="M43.65,6a1.24,1.24,0,0,0-1-.32c-.95.11-1.62,1.36-1.51,2.84a3.16,3.16,0,0,0,1,2.17,1.25,1.25,0,0,0,1,.35c1-.08,1.62-1.34,1.51-2.85a3.13,3.13,0,0,0-1-2.19Z"/><path class="cls-2" d="M43.35,6.45a.82.82,0,0,0-.6-.21c-.66.07-1.15,1.11-1.07,2.26,0,.1,0,.21,0,.31s0,0,0,0,0,0,0,0c.07-.78.48-1.39,1-1.42s1.09.71,1.12,1.66a2.42,2.42,0,0,1-.11.87s0,0,0,0h0a3.09,3.09,0,0,0,.31-1.67,2.62,2.62,0,0,0-.75-1.8Z"/><path class="cls-3" d="M39.46,6.17a1.35,1.35,0,0,0-1-.37c-1,.09-1.76,1.35-1.71,2.86a3.15,3.15,0,0,0,.88,2.21,1.38,1.38,0,0,0,1,.39c1-.07,1.76-1.33,1.71-2.87a3.09,3.09,0,0,0-.89-2.22Z"/><path class="cls-2" d="M38.47,6.34c-.71.07-1.29,1.12-1.24,2.3a3.09,3.09,0,0,0,.34,1.3s0,0,0,0v0a2.59,2.59,0,0,1-.11-.64c0-.94.4-1.71,1-1.73s1.1.72,1.14,1.67a2.43,2.43,0,0,1,0,.47h0s0,0,0,0a3.38,3.38,0,0,0,.2-1.3,2.57,2.57,0,0,0-.7-1.82.87.87,0,0,0-.67-.25Z"/><path class="cls-4" d="M32,42.79h-8a8.61,8.61,0,0,1-.14-5.49,6.39,6.39,0,0,1-1.1-2.81A7.87,7.87,0,0,1,16.92,31c-2.22-.46-5.59-2.52-6.05-6a6.94,6.94,0,0,1-2.64-6,4.22,4.22,0,0,1,.59-4.87C5.5,11.39,4.94,9.88,5.2,4.82c-1.32-2.43-.74-2.71.11-3.31C5.29.84,5.88.35,6.64.2L6.53,0H0V42.79H32Z"/><path class="cls-4" d="M63.48,37H224.23l1-2.72H62.15a5.26,5.26,0,0,1,.32,2.15,6.7,6.7,0,0,1,1,.57Z"/></g></g></svg>