<svg xmlns="http://www.w3.org/2000/svg" viewBox="0 0 294.03 37.4"><defs><style>.cls-1{fill:#e20613;}.cls-1,.cls-2{fill-rule:evenodd;}.cls-2{fill:#1d1d1b;}</style></defs><title>uniroyal</title><g id="Capa_2" data-name="Capa 2"><g id="Capa_1-2" data-name="Capa 1"><polygon class="cls-1" points="15.26 0 51.71 0 35.3 37.4 0 37.4 15.26 0 15.26 0"/><polygon class="cls-1" points="257.58 0 294.03 0 277.62 37.4 242.32 37.4 257.58 0 257.58 0"/><path class="cls-2" d="M57.24,3.63H67l-10.3,24.8s-1.15,2.67.57,2.86,3,.19,4.39-2.86c1.33-3.24,10.3-24.8,10.3-24.8h9L71.36,27.48s-2.48,9.15-15.07,9c0,0-5.15.38-7.44-1.33-2.49-1.91-2.29-4.39-1.53-6.68.57-2.1,9.92-24.8,9.92-24.8Z"/><polygon class="cls-2" points="71.93 35.87 84.91 3.63 97.5 3.63 94.26 27.09 103.8 3.63 111.05 3.63 98.07 35.87 86.24 35.87 90.06 8.78 78.99 35.87 71.93 35.87 71.93 35.87"/><polygon class="cls-2" points="115.05 3.63 124.4 3.63 111.43 35.87 101.89 35.87 115.05 3.63 115.05 3.63"/><path class="cls-2" d="M142.53,3.63H128.79L115.63,35.87H125L130.89,21a9.54,9.54,0,0,0,2.1.19c2.29.19,1.72,2.67,1.72,2.67s-2.87,7.44-3.25,8.2a9.11,9.11,0,0,0-.19,3.82h9.35c-.57-.57,0-3.24,0-3.24a80,80,0,0,0,3.82-9.92c.76-3.25-2.1-3.63-2.29-3.82a16.84,16.84,0,0,0-3.06-.38c6.87-1,9.35-3.82,10.88-9.54,1.34-5.54-7.44-5.34-7.44-5.34Zm-2.48,6.48c-.57,2.1-1.15,4.39-2.67,5.35a6.62,6.62,0,0,1-4.58.95l3.43-8.21s4.39-.19,3.82,1.91Z"/><path class="cls-2" d="M167.14,3.05c-12,0-14.5,8.59-14.5,8.59s-6.1,14.5-6.87,17-1.52,8.2,8.21,7.82c13.54,0,15.83-9,15.83-9s5.92-14.31,6.49-16.41c.76-2.1,2.86-8-9.16-8Zm.38,7.25c-.57,2.29-7.63,18.51-7.63,18.51a3.27,3.27,0,0,1-3.81,2.48c-2.1,0-1.34-1.53-1.34-2.1.19-.57,7.63-18.89,7.63-18.89s1.34-2.29,3.06-2.1c1.71,0,2.48-.19,2.09,2.1Z"/><polygon class="cls-2" points="179.16 3.63 188.51 3.63 186.79 16.41 195.38 3.63 204.54 3.63 188.32 24.04 183.55 35.87 174.2 35.87 178.97 24.04 179.16 3.63 179.16 3.63"/><path class="cls-2" d="M208.74,3.63,189.08,35.87h7.83l4.77-7.82h5l-2.1,7.82h9.35l7.63-32.24ZM208,23.09h-3.43L212,8.59l-4,14.5Z"/><polygon class="cls-2" points="229.73 3.63 239.27 3.63 228.01 30.91 238.12 30.91 236.21 35.87 216.75 35.87 229.73 3.63 229.73 3.63"/><path class="cls-2" d="M242.89,8.59h-.57V5.15h1.53c.76,0,1.14.19,1.14,1a.9.9,0,0,1-1,.95l1.14,1.53h-.76l-1-1.53h-.57V8.59Zm.76-1.91c.39,0,.77,0,.77-.57s-.38-.58-.77-.58h-.76V6.68Zm0,3.43a3.21,3.21,0,0,1-3.24-3.24,3.25,3.25,0,0,1,6.49,0,3.22,3.22,0,0,1-3.25,3.24Zm0-5.91a2.36,2.36,0,0,0-2.48,2.67,2.49,2.49,0,1,0,5,0,2.45,2.45,0,0,0-2.48-2.67Z"/></g></g></svg>