<svg xmlns="http://www.w3.org/2000/svg" viewBox="0 0 316.55 45.22"><defs><style>.cls-1{fill:#e20613;}.cls-1,.cls-2{fill-rule:evenodd;}.cls-2{fill:#1d1d1b;}</style></defs><title>yokohama</title><g id="Capa_2" data-name="Capa 2"><g id="Capa_1-2" data-name="Capa 1"><polyline class="cls-1" points="26.55 22.62 3.79 45.22 0 45.22 22.76 22.62 0 0.01 3.79 0.01 26.55 22.62"/><polyline class="cls-1" points="46.84 17.69 64.7 0 68.48 0 48.77 19.61 49.96 20.76 70.83 0 74.62 0 29.12 45.21 25.33 45.21 48.1 22.59 25.33 0 29.12 0 37.41 8.24 45.69 0.01 49.48 0.01 39.3 10.13 40.55 11.39 52.01 0 55.8 0 42.45 13.28 43.7 14.52 58.37 0 62.16 0 45.63 16.41 46.84 17.69"/><polyline class="cls-1" points="32.88 22.62 10.11 45.22 6.33 45.22 29.09 22.62 6.33 0.01 10.11 0.01 32.88 22.62"/><polyline class="cls-1" points="39.2 22.62 16.44 45.22 12.65 45.22 35.41 22.62 12.65 0.01 16.44 0.01 39.2 22.62"/><polyline class="cls-1" points="45.53 22.62 22.76 45.22 18.98 45.22 41.74 22.62 18.98 0.01 22.76 0.01 45.53 22.62"/><path class="cls-2" d="M300,14.19,296.5,24.3h7.15L300,14.19m-2.4-8.74h4.81L316.55,39h-6.79l-3.62-8.65H294.19L290.48,39h-6.79ZM247.59,39V5.45H256l9,25.65,9.11-25.65h8.5V39h-6.19V13.75L267.68,39h-5.25l-8.65-25.23V39ZM230.5,14.19,227,24.3h7.15Zm-2.4-8.74h4.81L247,39h-6.79l-3.62-8.65H224.67L221,39h-6.79Zm-39.18,0h6.19V18.91h12V5.45h6.15V39h-6.15V24.89h-12V39h-6.19ZM159,22.54a11.09,11.09,0,0,0,1.2,4.72,11.54,11.54,0,0,0,2.8,3.57,12.34,12.34,0,0,0,3.61,2.2,9.72,9.72,0,0,0,3.53.74,10.88,10.88,0,0,0,5.56-1.51,11.52,11.52,0,0,0,4.15-4.14,12.15,12.15,0,0,0,1.69-5.76,12,12,0,0,0-1.33-5.51,10.9,10.9,0,0,0-3.78-4.2,11.26,11.26,0,0,0-5.67-1.8,12,12,0,0,0-4,.72A12.52,12.52,0,0,0,163,13.74a10.76,10.76,0,0,0-2.86,3.68A11.5,11.5,0,0,0,159,22.54Zm-6.11.27a18,18,0,0,1,2.56-9.74A16.8,16.8,0,0,1,162.1,6.9a18,18,0,0,1,8.33-2.07,16.41,16.41,0,0,1,6.7,1.41,18.09,18.09,0,0,1,9.33,9.6,17.05,17.05,0,0,1,1.35,6.69q0,.18,0,.48c0,.21,0,.37,0,.47a17.66,17.66,0,0,1-2.08,6.85A18.11,18.11,0,0,1,179.81,37a16.29,16.29,0,0,1-9.75,2.82,17.87,17.87,0,0,1-7.57-1.69,15.84,15.84,0,0,1-5.41-4.17,17.73,17.73,0,0,1-3.14-5.49A17.1,17.1,0,0,1,152.92,22.81ZM134.82,5.45H141V20L151.46,5.45h7.43L146.22,21.9,158.89,39h-7.43L141,24.21V39h-6.19ZM104.93,22.54a11.09,11.09,0,0,0,1.2,4.72,11.54,11.54,0,0,0,2.8,3.57,12.34,12.34,0,0,0,3.61,2.2,9.76,9.76,0,0,0,3.52.74,10.89,10.89,0,0,0,5.57-1.51,11.52,11.52,0,0,0,4.15-4.14,12.15,12.15,0,0,0,1.69-5.76,12,12,0,0,0-1.33-5.51,10.9,10.9,0,0,0-3.78-4.2,11.26,11.26,0,0,0-5.67-1.8,12,12,0,0,0-4,.72,12.36,12.36,0,0,0-3.82,2.17A10.67,10.67,0,0,0,106,17.42,11.5,11.5,0,0,0,104.93,22.54Zm-6.11.27a18,18,0,0,1,2.56-9.74A16.84,16.84,0,0,1,108,6.9a18.12,18.12,0,0,1,8.34-2.07A16.41,16.41,0,0,1,123,6.24a18.09,18.09,0,0,1,9.33,9.6,17.05,17.05,0,0,1,1.35,6.69q0,.18,0,.48c0,.21,0,.37,0,.47a17.66,17.66,0,0,1-2.08,6.85A18.11,18.11,0,0,1,125.71,37,16.29,16.29,0,0,1,116,39.8a17.87,17.87,0,0,1-7.57-1.69A15.84,15.84,0,0,1,103,33.94a17.73,17.73,0,0,1-3.14-5.49A17.1,17.1,0,0,1,98.82,22.81ZM75.46,5.45h6.88l7.24,15.31L97,5.45h6.78l-11,21.16V39H86.51V26.61Z"/></g></g></svg>